<svg width="24" height="25" viewBox="0 0 24 25" fill="none" xmlns="http://www.w3.org/2000/svg">
<g clip-path="url(#clip0_163_1024)">
<path d="M21.4393 4.86422H22.1808C22.4395 4.86422 22.6492 4.65445 22.6492 4.39578C22.6492 4.13711 22.4395 3.92734 22.1808 3.92734H20.4007C20.142 3.92734 19.9323 4.13711 19.9323 4.39578V6.17586C19.9323 6.43454 20.142 6.6443 20.4007 6.6443C20.6594 6.6443 20.8692 6.43454 20.8692 6.17586V5.66043C22.2905 7.56329 23.0631 9.87211 23.0631 12.2734C23.0631 18.3737 18.1002 23.3366 12 23.3366C5.89975 23.3366 0.936885 18.3737 0.936885 12.2734C0.936885 6.17319 5.89975 1.21032 12 1.21032C12.4512 1.21032 12.9052 1.23773 13.3497 1.29174C13.6061 1.32275 13.84 1.1401 13.8712 0.883256C13.9025 0.626456 13.7196 0.39289 13.4628 0.361692C12.9809 0.303137 12.4888 0.273438 12 0.273438C8.79468 0.273438 5.78119 1.52165 3.51472 3.78816C1.24821 6.05463 0 9.06812 0 12.2734C0 15.4788 1.24821 18.4922 3.51472 20.7587C5.78119 23.0252 8.79468 24.2734 12 24.2734C15.2053 24.2734 18.2188 23.0252 20.4853 20.7587C22.7518 18.4922 24 15.4788 24 12.2734C24 9.5686 23.0964 6.97193 21.4393 4.86422Z" fill="#5F5D5D"/>
<path d="M5.08274 7.34893C4.86412 7.21055 4.57476 7.27566 4.43633 7.49414C3.36693 9.18316 2.89352 11.2144 3.10333 13.2138C3.31624 15.2428 4.22947 17.1562 5.6748 18.6016C7.41905 20.3458 9.71025 21.218 12.0015 21.218C14.2927 21.218 16.5839 20.3459 18.3282 18.6016C21.8167 15.113 21.8167 9.43673 18.3282 5.94824C16.8851 4.50515 14.9748 3.59225 12.9492 3.3777C10.9535 3.1662 8.92443 3.63591 7.23612 4.70007C7.01722 4.83803 6.95168 5.12729 7.08959 5.34615C7.22755 5.56505 7.51681 5.63059 7.73567 5.49268C10.9182 3.48681 15.0014 3.94649 17.6657 6.61071C20.7889 9.73396 20.7889 14.8158 17.6657 17.9391C14.5425 21.0624 9.46052 21.0624 6.33732 17.9391C3.70992 15.3117 3.24335 11.1297 5.22795 7.99538C5.36629 7.77676 5.30131 7.48735 5.08274 7.34893Z" fill="#5F5D5D"/>
<path d="M18.0895 12.7494H18.6672C18.9259 12.7494 19.1357 12.5396 19.1357 12.2809C19.1357 12.0223 18.9259 11.8125 18.6672 11.8125H18.0895C17.8309 11.8125 17.6211 12.0223 17.6211 12.2809C17.6211 12.5396 17.8308 12.7494 18.0895 12.7494Z" fill="#5F5D5D"/>
<path d="M4.86328 12.2653C4.86328 12.524 5.07305 12.7338 5.33172 12.7338H5.90941C6.16808 12.7338 6.37785 12.524 6.37785 12.2653C6.37785 12.0066 6.16808 11.7969 5.90941 11.7969H5.33172C5.07305 11.7969 4.86328 12.0066 4.86328 12.2653Z" fill="#5F5D5D"/>
<path d="M12.4759 6.18284V5.60516C12.4759 5.34649 12.2662 5.13672 12.0075 5.13672C11.7488 5.13672 11.5391 5.34649 11.5391 5.60516V6.18284C11.5391 6.44152 11.7488 6.65129 12.0075 6.65129C12.2662 6.65129 12.4759 6.44152 12.4759 6.18284Z" fill="#5F5D5D"/>
<path d="M11.5234 18.363V18.9407C11.5234 19.1993 11.7332 19.4091 11.9919 19.4091C12.2506 19.4091 12.4603 19.1993 12.4603 18.9407V18.363C12.4603 18.1043 12.2506 17.8945 11.9919 17.8945C11.7332 17.8945 11.5234 18.1043 11.5234 18.363Z" fill="#5F5D5D"/>
<path d="M9.65128 9.26268C9.4683 9.0798 9.17178 9.0798 8.98876 9.26268C8.80583 9.4456 8.80583 9.74222 8.98876 9.9252L10.5764 11.5128C10.4547 11.7395 10.3855 11.9984 10.3855 12.2732C10.3855 13.1631 11.1094 13.887 11.9993 13.887C12.8892 13.887 13.6131 13.1631 13.6131 12.2732C13.6131 11.9984 13.5438 11.7395 13.4222 11.5128L16.6256 8.30944C16.8085 8.12652 16.8085 7.8299 16.6256 7.64693C16.4426 7.46405 16.1461 7.46405 15.9631 7.64693L12.7597 10.8503C12.533 10.7286 12.2741 10.6594 11.9993 10.6594C11.7245 10.6594 11.4656 10.7287 11.2389 10.8503L9.65128 9.26268ZM12.6762 12.2732C12.6762 12.6465 12.3726 12.9501 11.9993 12.9501C11.626 12.9501 11.3224 12.6465 11.3224 12.2732C11.3224 11.9 11.626 11.5963 11.9993 11.5963C12.3726 11.5963 12.6762 11.9 12.6762 12.2732Z" fill="#5F5D5D"/>
<path d="M6.33479 6.60823C6.42239 6.52109 6.47246 6.40024 6.47246 6.27704C6.47246 6.15384 6.42239 6.03345 6.33479 5.94585C6.24766 5.85876 6.12722 5.80859 6.0036 5.80859C5.8804 5.80859 5.75954 5.85872 5.67241 5.94585C5.58533 6.03298 5.53516 6.15384 5.53516 6.27704C5.53516 6.4007 5.58528 6.52109 5.67241 6.60823C5.75954 6.69531 5.8804 6.74548 6.0036 6.74548C6.12722 6.74548 6.24766 6.69531 6.33479 6.60823Z" fill="#5F5D5D"/>
<path d="M15.2458 1.67321C15.3695 1.67321 15.4904 1.62351 15.5774 1.53596C15.6646 1.44883 15.7147 1.32839 15.7147 1.20477C15.7147 1.08157 15.6646 0.960712 15.5774 0.873582C15.4904 0.786498 15.3695 0.736328 15.2458 0.736328C15.1226 0.736328 15.0017 0.786451 14.9146 0.873582C14.8275 0.960712 14.7773 1.08157 14.7773 1.20477C14.7773 1.32844 14.8275 1.44883 14.9146 1.53596C15.0017 1.62351 15.1226 1.67321 15.2458 1.67321Z" fill="#5F5D5D"/>
</g>
<defs>
<clipPath id="clip0_163_1024">
<rect width="24" height="24" fill="white" transform="translate(0 0.273438)"/>
</clipPath>
</defs>
</svg>
