<svg width="24" height="25" viewBox="0 0 24 25" fill="none" xmlns="http://www.w3.org/2000/svg">
<g clip-path="url(#clip0_78_1175)">
<path d="M24 12.9794C24 12.2019 23.3674 11.5693 22.5899 11.5693H22.1174V4.0368C22.1174 1.96169 20.4291 0.273438 18.354 0.273438C16.4191 0.273438 14.8213 1.74133 14.614 3.62181C13.7912 3.82239 13.1786 4.56522 13.1786 5.44886V6.3902C13.1786 6.64905 13.3884 6.85895 13.6473 6.85895H16.4713C16.7302 6.85895 16.9401 6.64905 16.9401 6.3902V5.44886C16.9401 4.58416 16.3532 3.85427 15.5571 3.63545C15.7526 2.2667 16.932 1.21094 18.354 1.21094C19.9122 1.21094 21.1799 2.47863 21.1799 4.0368V11.5694H1.41009C0.631125 11.5694 0 12.2003 0 12.9794C0 13.5926 0.393656 14.1153 0.941344 14.309V16.7447C0.941344 19.3713 2.74411 21.5846 5.1773 22.2125V23.8047C5.1773 24.0635 5.3872 24.2734 5.64605 24.2734H7.99931C8.2582 24.2734 8.46806 24.0635 8.46806 23.8047V22.3908H15.5318V23.8047C15.5318 24.0635 15.7417 24.2734 16.0006 24.2734H18.3539C18.6127 24.2734 18.8227 24.0635 18.8227 23.8047V22.2125C21.2558 21.5846 23.0586 19.3713 23.0586 16.7447V14.3098C23.6002 14.1193 24 13.6007 24 12.9794ZM16.0026 5.44881V5.92141H14.1161V5.44881C14.1161 4.92869 14.5392 4.50555 15.0593 4.50555C15.5795 4.50555 16.0026 4.92869 16.0026 5.44881ZM4.70278 16.7428H9.41325V17.2154C9.41325 17.7355 8.99011 18.1586 8.46998 18.1586H5.64605C5.12592 18.1586 4.70278 17.7355 4.70278 17.2154V16.7428ZM9.41325 15.8053H4.70278V12.5069H9.41325V15.8053ZM1.41009 12.5068H3.76528V13.452H1.41009C1.14947 13.452 0.9375 13.24 0.9375 12.9794C0.9375 12.7186 1.14923 12.5068 1.41009 12.5068ZM7.53056 23.3359H6.1148V22.3708C6.27066 22.3838 6.4282 22.3908 6.58739 22.3908H7.53056V23.3359ZM17.8852 23.3359H16.4694V22.3908H17.4126C17.5718 22.3908 17.7293 22.3838 17.8852 22.3708V23.3359ZM22.1212 16.7448C22.1212 19.3411 20.0089 21.4533 17.4126 21.4533H6.58739C3.99108 21.4533 1.87884 19.341 1.87884 16.7448V14.3895H3.76528V17.2154C3.76528 18.2524 4.60898 19.0961 5.64605 19.0961H8.46998C9.50705 19.0961 10.3507 18.2524 10.3507 17.2154V14.3895H22.1212V16.7448ZM22.5899 13.452H10.3507V12.5069H22.5899C22.8505 12.5069 23.0625 12.7189 23.0625 12.9794C23.0625 13.2403 22.8508 13.452 22.5899 13.452Z" fill="#5F5D5D"/>
<path d="M13.1758 8.74219C13.4249 8.74219 13.6445 8.53266 13.6445 8.27348C13.6445 8.02514 13.4332 7.80473 13.1758 7.80469C12.9222 7.80469 12.7071 8.02041 12.707 8.27344C12.707 8.51559 12.9244 8.74219 13.1758 8.74219Z" fill="#5F5D5D"/>
<path d="M15.3861 8.60091C15.4718 8.5155 15.5273 8.39902 15.5273 8.27344C15.5273 8.01858 15.3121 7.80469 15.0582 7.80469C14.8037 7.80469 14.5898 8.02008 14.5898 8.27344C14.5898 8.52895 14.8024 8.74219 15.0581 8.74219C15.181 8.74219 15.2991 8.68748 15.3861 8.60091Z" fill="#5F5D5D"/>
<path d="M13.1758 10.625C13.4292 10.625 13.6445 10.4088 13.6445 10.1562C13.6445 9.90036 13.4315 9.6875 13.1758 9.6875C12.9199 9.6875 12.707 9.90045 12.707 10.1562C12.707 10.4057 12.9166 10.625 13.1758 10.625Z" fill="#5F5D5D"/>
<path d="M14.7318 10.4831C14.8175 10.569 14.934 10.625 15.0586 10.625C15.3141 10.625 15.5273 10.4116 15.5273 10.1563C15.5273 9.90552 15.3084 9.6875 15.0586 9.6875C14.8028 9.6875 14.5898 9.90027 14.5898 10.1562C14.5898 10.2781 14.645 10.396 14.7318 10.4831Z" fill="#5F5D5D"/>
<path d="M16.9414 8.74219C17.1928 8.74219 17.4102 8.52436 17.4102 8.27344C17.4102 8.01802 17.1968 7.80469 16.9414 7.80469C16.6859 7.80469 16.4727 8.01806 16.4727 8.27339C16.4726 8.52811 16.6874 8.74219 16.9414 8.74219Z" fill="#5F5D5D"/>
<path d="M16.6134 10.4844C16.6993 10.5703 16.8165 10.625 16.9414 10.625C17.1866 10.625 17.4102 10.4103 17.4102 10.1563C17.4102 9.90181 17.195 9.68755 16.9414 9.6875C16.6856 9.6875 16.4727 9.90041 16.4727 10.1562C16.4727 10.2812 16.5274 10.3985 16.6134 10.4844Z" fill="#5F5D5D"/>
</g>
<defs>
<clipPath id="clip0_78_1175">
<rect width="24" height="24" fill="white" transform="translate(0 0.273438)"/>
</clipPath>
</defs>
</svg>
