<svg width="24" height="25" viewBox="0 0 24 25" fill="none" xmlns="http://www.w3.org/2000/svg">
<path d="M20.2109 6.14263C20.9736 6.0545 22.1287 5.88972 23.9995 5.62925C22.128 5.37311 20.952 5.21873 20.2092 5.12505C20.1165 4.32961 19.9569 3.20745 19.6965 1.33594C19.4407 3.20775 19.3213 4.35069 19.1918 5.12585C18.4442 5.21863 17.2739 5.37876 15.4023 5.63994C17.2748 5.89577 18.4648 6.04421 19.1926 6.14364C19.2909 6.85961 19.4461 8.06083 19.7079 9.93174C19.9631 8.06063 20.1165 6.89047 20.2109 6.14263Z" fill="#5F5D5D"/>
<path d="M4.80841 6.14263C5.57117 6.0545 6.72611 5.88972 8.59711 5.62925C6.7257 5.37311 5.54959 5.21873 4.8069 5.12505C4.71402 4.32961 4.55449 3.20745 4.29402 1.33594C4.03829 3.20775 3.91909 4.35069 3.78941 5.12585C3.04187 5.21863 1.87151 5.37876 0 5.63994C1.87242 5.89577 3.06245 6.04421 3.79022 6.14364C3.88844 6.85961 4.04353 8.06083 4.30541 9.93174C4.56074 8.06063 4.71402 6.89047 4.80841 6.14263Z" fill="#5F5D5D"/>
<path d="M4.80841 19.4219C5.57117 19.3338 6.72611 19.169 8.59711 18.9084C6.7257 18.6524 5.54959 18.498 4.8069 18.4042C4.71402 17.6089 4.55449 16.4868 4.29402 14.6152C4.03829 16.487 3.91909 17.63 3.78941 18.4051C3.04187 18.498 1.87151 18.6581 0 18.9192C1.87242 19.1751 3.06245 19.3236 3.79022 19.4229C3.88844 20.1389 4.04353 21.3401 4.30541 23.2111C4.56074 21.3398 4.71402 20.1698 4.80841 19.4219Z" fill="#5F5D5D"/>
<path d="M20.2109 19.42C20.9736 19.3318 22.1287 19.1671 23.9995 18.9065C22.128 18.6505 20.952 18.4961 20.2092 18.4023C20.1165 17.607 19.9569 16.4849 19.6965 14.6133C19.4407 16.4851 19.3213 17.628 19.1918 18.4032C18.4442 18.4961 17.2739 18.6561 15.4023 18.9173C17.2748 19.1731 18.4648 19.3217 19.1926 19.421C19.2909 20.137 19.4461 21.3382 19.7079 23.2092C19.9631 21.3379 20.1165 20.1678 20.2109 19.42Z" fill="#5F5D5D"/>
<path d="M12.9715 13.2435C14.4251 13.0757 16.626 12.7615 20.1914 12.265C16.6253 11.7772 14.3841 11.4829 12.9686 11.3043C12.7916 9.78877 12.4879 7.65033 11.9915 4.08398C11.5041 7.65094 11.2769 9.82891 11.0297 11.3059C9.60525 11.4828 7.37494 11.7876 3.80859 12.2854C7.37686 12.7731 9.64448 13.0559 11.0313 13.2453C11.2187 14.6097 11.5142 16.8987 12.0132 20.464C12.4994 16.8982 12.7916 14.6685 12.9715 13.2435Z" fill="#5F5D5D"/>
</svg>
