<svg width="100" height="46" viewBox="0 0 100 46" fill="none" xmlns="http://www.w3.org/2000/svg">
<mask id="path-1-outside-1_2001_74" maskUnits="userSpaceOnUse" x="12.1651" y="2.17892" width="76.635" height="27.9208" fill="black">
<rect fill="white" x="12.1651" y="2.17892" width="76.635" height="27.9208"/>
<path d="M16.2808 20.5127C15.5348 19.9786 14.9829 19.4628 14.6249 18.9654C14.2851 18.4664 13.9319 17.6299 13.5653 16.4559C13.1987 15.2819 12.994 13.8821 12.9512 12.2566C12.9319 11.8556 12.9698 11.5774 13.0651 11.422C13.1144 11.3624 13.1845 11.3284 13.2752 11.3199C13.4204 11.3062 13.6252 11.3419 13.8895 11.427C14.3257 11.5874 14.5741 11.8936 14.6349 12.3457C14.7008 12.8521 14.7525 13.305 14.79 13.7043C14.8257 14.0854 14.949 15.0076 15.1596 16.4709C15.2488 17.0301 15.5154 17.6276 15.9596 18.2633C16.4203 18.8792 16.8395 19.1511 17.2172 19.079C18.6207 17.6472 20.0302 16.279 21.4457 14.9743C21.9232 14.5998 22.3375 14.625 22.6886 15.0498C22.9473 15.4649 23.1141 15.7788 23.189 15.9915C23.2146 16.2637 23.1508 16.462 22.9977 16.5862C22.8611 16.6906 22.5004 16.9442 21.9157 17.347C21.3491 17.748 20.5649 18.4625 19.5628 19.4904C18.5772 20.4984 17.8358 21.4744 17.3386 22.4182C16.8595 23.3604 16.6574 24.2308 16.7324 25.0293C17.0552 25.3469 17.6845 25.5167 18.6203 25.5386C19.5726 25.5407 20.606 25.3338 21.7204 24.9179C22.8513 24.4821 23.7505 24.1139 24.418 23.8132C24.7538 24.0746 24.9237 24.3241 24.9277 24.5618C24.9317 24.7994 24.8589 24.9985 24.7092 25.159C24.5776 25.3179 24.2515 25.5499 23.7309 25.8551C23.2267 26.1405 22.3596 26.46 21.1294 26.8135C19.9191 27.1835 18.7088 27.2606 17.4984 27.0447C16.2631 26.7579 15.3903 26.0434 14.8803 24.9012C14.6641 24.3539 14.6614 23.7408 14.8723 23.0618C15.0962 22.3267 15.5657 21.477 16.2808 20.5127ZM34.8841 13.6023C34.3238 13.8747 33.8774 13.8983 33.545 13.6732C33.2307 13.4463 33.0047 13.1838 32.8668 12.8855C32.7289 12.5872 32.6696 12.3456 32.6889 12.1606C32.7246 11.9559 32.8751 11.8044 33.1406 11.7063C33.4128 11.6807 33.685 11.6551 33.9573 11.6296C35.7904 11.4574 37.2616 11.4291 38.371 11.5446C39.6472 11.6811 40.4481 11.8256 40.7736 11.9781C41.0975 12.1125 41.3647 12.3254 41.5752 12.6169C41.8021 12.8885 41.915 13.116 41.9139 13.2992C41.9292 13.4625 41.8975 13.612 41.8187 13.7475C41.7398 13.8831 41.5445 13.9472 41.2325 13.9399C40.8049 13.8702 40.274 13.7736 39.6398 13.65C39.0222 13.5067 38.2372 13.4339 37.2849 13.4318C36.3491 13.4098 35.5488 13.4667 34.8841 13.6023ZM34.6817 24.607C34.2489 24.4828 33.8958 24.2322 33.6224 23.8551C33.3654 23.4581 33.2604 23.1201 33.3074 22.841C33.3545 22.562 33.6173 22.4366 34.096 22.4648C35.3325 22.5684 36.665 22.5257 38.0937 22.3366C39.5406 22.1458 40.6539 21.913 41.4337 21.6384C42.23 21.3439 42.8144 21.1334 43.187 21.0069C43.5761 20.8605 43.8778 20.7589 44.0922 20.7021C44.3338 20.9358 44.4286 21.1649 44.3764 21.3895C44.3243 21.6141 44.2251 21.8248 44.0788 22.0217C43.9506 22.2168 43.6889 22.4519 43.2936 22.7271C42.9165 23.0005 42.1963 23.3245 41.1329 23.699C40.0876 24.0718 39.0495 24.3249 38.0184 24.4584C37.0054 24.5901 35.8932 24.6397 34.6817 24.607ZM57.6854 13.9602C58.294 13.8115 59.0523 13.7952 59.9603 13.9113C60.9047 14.024 61.618 14.4056 62.1002 15.0561C62.6005 15.7048 62.8839 16.3831 62.9504 17.091C63.0169 17.7988 62.875 18.6269 62.5246 19.5753C62.1907 20.5038 61.7099 21.4278 61.0822 22.3473C60.4726 23.2651 59.6463 24.0201 58.6034 24.6124C58.2427 24.866 57.9288 25.0328 57.6617 25.1128C57.3946 25.1928 57.1413 25.2258 56.902 25.2116C56.6626 25.1975 56.4114 25.0563 56.1481 24.7881C55.8849 24.5198 55.7405 24.2496 55.715 23.9774C55.6911 23.7233 55.7739 23.5324 55.9633 23.4048C56.1726 23.2936 56.4017 23.1988 56.6507 23.1205C57.1424 23.0926 57.6905 22.8855 58.2951 22.4992C58.8996 22.1128 59.5163 21.3683 60.1451 20.2656C60.7739 19.1629 61.1428 18.3135 61.2516 17.7174C61.3587 17.1031 61.3623 16.6542 61.2624 16.3706C61.1625 16.0871 61.006 15.8821 60.7927 15.7556C60.5249 15.6343 60.1072 15.5728 59.5395 15.5712C58.97 15.5515 58.3291 15.6483 57.6168 15.8616C56.9226 16.0733 56.2554 16.4747 55.6152 17.0658C55.4569 17.1356 55.2474 17.1461 54.9864 17.0974C54.742 17.0288 54.5023 16.914 54.2675 16.7529C54.031 16.5737 53.886 16.3951 53.8327 16.217C53.7958 16.0191 54.0248 15.6314 54.5199 15.0539C55.2764 14.1406 55.9888 13.1491 56.6574 12.0793C57.344 11.0078 57.8654 10.1258 58.2215 9.43318C58.5776 8.7406 58.7896 8.17141 58.8576 7.7256C58.6659 7.63375 58.2978 7.61339 57.7533 7.66453C57.2088 7.71566 56.2988 8.06661 55.0234 8.71737C54.8356 8.86316 54.6 8.98599 54.3164 9.08586C54.051 9.18403 53.8 9.14351 53.5635 8.96432C53.3252 8.76699 53.148 8.53646 53.0317 8.27274C52.967 8.16896 52.9616 8.01384 53.0154 7.80738C53.0857 7.58106 53.2709 7.40805 53.5709 7.28832C54.2877 6.92805 55.0287 6.6296 55.7938 6.39296C56.3116 6.25278 56.8427 6.15713 57.3872 6.10599C57.6413 6.08213 57.8962 6.06734 58.152 6.06163C58.9211 6.06263 59.5425 6.343 60.0162 6.90272C60.4882 7.4443 60.6295 8.07185 60.4402 8.78539C60.0904 9.93511 59.6527 10.9283 59.1271 11.765C58.6014 12.6016 58.1209 13.3334 57.6854 13.9602ZM78.8431 9.39152C78.5771 9.28834 78.2742 9.28017 77.9345 9.367C77.5948 9.45383 76.885 9.69443 75.8051 10.0888C74.7253 10.4832 73.9588 10.8023 73.5057 11.0463C73.0508 11.2721 72.7114 11.4596 72.4874 11.6088C72.2816 11.7563 72.0343 11.8528 71.7456 11.8982C71.4734 11.9237 71.1586 11.7885 70.8012 11.4925C70.4421 11.1784 70.2342 10.9141 70.1775 10.6997C70.1371 10.4655 70.2281 10.2647 70.4504 10.0973C71.258 9.72853 72.6141 9.2533 74.5186 8.67164C76.423 8.08997 77.8792 7.70604 78.887 7.51984C79.3374 7.44093 79.7015 7.51659 79.9794 7.74682C80.2755 7.97534 80.5396 8.25264 80.7716 8.57873C81.002 8.88667 81.0667 9.2834 80.9658 9.76892C80.654 10.3475 80.2482 10.999 79.7487 11.7233C79.2491 12.4477 78.6671 13.4636 78.0026 14.771C77.3381 16.0785 76.9091 16.9701 76.7158 17.446C76.5225 17.9219 76.531 18.3056 76.7415 18.5971C76.952 18.8886 77.3621 19.1613 77.9719 19.4153C78.5981 19.6495 78.9755 19.7697 79.1043 19.7759C79.233 19.7821 79.6851 19.7213 80.4604 19.5936C80.6271 19.6146 80.7709 19.6834 80.8917 19.8003C81.0307 19.9154 81.1186 20.0719 81.1555 20.2698C81.1907 20.4496 81.1641 20.6535 81.0757 20.8815C81.0054 21.1079 80.8483 21.2874 80.6044 21.4202C80.389 21.6601 80.0212 21.7404 79.501 21.6611C78.9826 21.5999 78.4781 21.4917 77.9875 21.3364C77.5167 21.1975 77.0201 20.9786 76.4977 20.6798C75.9753 20.381 75.5294 20.0201 75.1601 19.597C74.809 19.1723 74.5942 18.8354 74.5159 18.5864C74.4359 18.3193 74.5113 17.8545 74.742 17.192C75.5409 15.5607 76.3236 14.0499 77.0902 12.6596C77.8551 11.2512 78.4394 10.1618 78.8431 9.39152ZM83.453 7.00864C83.3288 7.44141 83.1704 7.70347 82.9775 7.79482C82.783 7.86802 82.5947 7.81246 82.4126 7.62816C82.0785 7.3849 81.7855 7.092 81.5336 6.74947C81.1836 6.14152 80.8599 5.52193 80.5626 4.89071C80.3686 4.57937 80.3785 4.29464 80.5922 4.03654C80.9115 3.73192 81.2067 3.65842 81.4778 3.81605C81.749 3.97368 81.9376 4.12991 82.0437 4.28473C82.5418 5.29989 83.0116 6.20786 83.453 7.00864ZM85.1773 5.7756C84.9043 5.01393 84.7034 4.33704 84.5746 3.74493C84.4498 3.39047 84.5067 3.11963 84.7455 2.93243C84.8147 2.88931 84.8946 2.86349 84.9854 2.85497C85.2032 2.83451 85.4856 2.91784 85.8328 3.10495C86.1011 3.42763 86.3054 3.84788 86.4455 4.36568C86.584 4.86534 86.6459 5.42712 86.6313 6.05101C86.5859 6.34822 86.4388 6.53598 86.1898 6.61429C85.959 6.69089 85.7542 6.6552 85.5756 6.50719C85.3969 6.35919 85.2641 6.11533 85.1773 5.7756Z"/>
</mask>
<path d="M16.2808 20.5127C15.5348 19.9786 14.9829 19.4628 14.6249 18.9654C14.2851 18.4664 13.9319 17.6299 13.5653 16.4559C13.1987 15.2819 12.994 13.8821 12.9512 12.2566C12.9319 11.8556 12.9698 11.5774 13.0651 11.422C13.1144 11.3624 13.1845 11.3284 13.2752 11.3199C13.4204 11.3062 13.6252 11.3419 13.8895 11.427C14.3257 11.5874 14.5741 11.8936 14.6349 12.3457C14.7008 12.8521 14.7525 13.305 14.79 13.7043C14.8257 14.0854 14.949 15.0076 15.1596 16.4709C15.2488 17.0301 15.5154 17.6276 15.9596 18.2633C16.4203 18.8792 16.8395 19.1511 17.2172 19.079C18.6207 17.6472 20.0302 16.279 21.4457 14.9743C21.9232 14.5998 22.3375 14.625 22.6886 15.0498C22.9473 15.4649 23.1141 15.7788 23.189 15.9915C23.2146 16.2637 23.1508 16.462 22.9977 16.5862C22.8611 16.6906 22.5004 16.9442 21.9157 17.347C21.3491 17.748 20.5649 18.4625 19.5628 19.4904C18.5772 20.4984 17.8358 21.4744 17.3386 22.4182C16.8595 23.3604 16.6574 24.2308 16.7324 25.0293C17.0552 25.3469 17.6845 25.5167 18.6203 25.5386C19.5726 25.5407 20.606 25.3338 21.7204 24.9179C22.8513 24.4821 23.7505 24.1139 24.418 23.8132C24.7538 24.0746 24.9237 24.3241 24.9277 24.5618C24.9317 24.7994 24.8589 24.9985 24.7092 25.159C24.5776 25.3179 24.2515 25.5499 23.7309 25.8551C23.2267 26.1405 22.3596 26.46 21.1294 26.8135C19.9191 27.1835 18.7088 27.2606 17.4984 27.0447C16.2631 26.7579 15.3903 26.0434 14.8803 24.9012C14.6641 24.3539 14.6614 23.7408 14.8723 23.0618C15.0962 22.3267 15.5657 21.477 16.2808 20.5127ZM34.8841 13.6023C34.3238 13.8747 33.8774 13.8983 33.545 13.6732C33.2307 13.4463 33.0047 13.1838 32.8668 12.8855C32.7289 12.5872 32.6696 12.3456 32.6889 12.1606C32.7246 11.9559 32.8751 11.8044 33.1406 11.7063C33.4128 11.6807 33.685 11.6551 33.9573 11.6296C35.7904 11.4574 37.2616 11.4291 38.371 11.5446C39.6472 11.6811 40.4481 11.8256 40.7736 11.9781C41.0975 12.1125 41.3647 12.3254 41.5752 12.6169C41.8021 12.8885 41.915 13.116 41.9139 13.2992C41.9292 13.4625 41.8975 13.612 41.8187 13.7475C41.7398 13.8831 41.5445 13.9472 41.2325 13.9399C40.8049 13.8702 40.274 13.7736 39.6398 13.65C39.0222 13.5067 38.2372 13.4339 37.2849 13.4318C36.3491 13.4098 35.5488 13.4667 34.8841 13.6023ZM34.6817 24.607C34.2489 24.4828 33.8958 24.2322 33.6224 23.8551C33.3654 23.4581 33.2604 23.1201 33.3074 22.841C33.3545 22.562 33.6173 22.4366 34.096 22.4648C35.3325 22.5684 36.665 22.5257 38.0937 22.3366C39.5406 22.1458 40.6539 21.913 41.4337 21.6384C42.23 21.3439 42.8144 21.1334 43.187 21.0069C43.5761 20.8605 43.8778 20.7589 44.0922 20.7021C44.3338 20.9358 44.4286 21.1649 44.3764 21.3895C44.3243 21.6141 44.2251 21.8248 44.0788 22.0217C43.9506 22.2168 43.6889 22.4519 43.2936 22.7271C42.9165 23.0005 42.1963 23.3245 41.1329 23.699C40.0876 24.0718 39.0495 24.3249 38.0184 24.4584C37.0054 24.5901 35.8932 24.6397 34.6817 24.607ZM57.6854 13.9602C58.294 13.8115 59.0523 13.7952 59.9603 13.9113C60.9047 14.024 61.618 14.4056 62.1002 15.0561C62.6005 15.7048 62.8839 16.3831 62.9504 17.091C63.0169 17.7988 62.875 18.6269 62.5246 19.5753C62.1907 20.5038 61.7099 21.4278 61.0822 22.3473C60.4726 23.2651 59.6463 24.0201 58.6034 24.6124C58.2427 24.866 57.9288 25.0328 57.6617 25.1128C57.3946 25.1928 57.1413 25.2258 56.902 25.2116C56.6626 25.1975 56.4114 25.0563 56.1481 24.7881C55.8849 24.5198 55.7405 24.2496 55.715 23.9774C55.6911 23.7233 55.7739 23.5324 55.9633 23.4048C56.1726 23.2936 56.4017 23.1988 56.6507 23.1205C57.1424 23.0926 57.6905 22.8855 58.2951 22.4992C58.8996 22.1128 59.5163 21.3683 60.1451 20.2656C60.7739 19.1629 61.1428 18.3135 61.2516 17.7174C61.3587 17.1031 61.3623 16.6542 61.2624 16.3706C61.1625 16.0871 61.006 15.8821 60.7927 15.7556C60.5249 15.6343 60.1072 15.5728 59.5395 15.5712C58.97 15.5515 58.3291 15.6483 57.6168 15.8616C56.9226 16.0733 56.2554 16.4747 55.6152 17.0658C55.4569 17.1356 55.2474 17.1461 54.9864 17.0974C54.742 17.0288 54.5023 16.914 54.2675 16.7529C54.031 16.5737 53.886 16.3951 53.8327 16.217C53.7958 16.0191 54.0248 15.6314 54.5199 15.0539C55.2764 14.1406 55.9888 13.1491 56.6574 12.0793C57.344 11.0078 57.8654 10.1258 58.2215 9.43318C58.5776 8.7406 58.7896 8.17141 58.8576 7.7256C58.6659 7.63375 58.2978 7.61339 57.7533 7.66453C57.2088 7.71566 56.2988 8.06661 55.0234 8.71737C54.8356 8.86316 54.6 8.98599 54.3164 9.08586C54.051 9.18403 53.8 9.14351 53.5635 8.96432C53.3252 8.76699 53.148 8.53646 53.0317 8.27274C52.967 8.16896 52.9616 8.01384 53.0154 7.80738C53.0857 7.58106 53.2709 7.40805 53.5709 7.28832C54.2877 6.92805 55.0287 6.6296 55.7938 6.39296C56.3116 6.25278 56.8427 6.15713 57.3872 6.10599C57.6413 6.08213 57.8962 6.06734 58.152 6.06163C58.9211 6.06263 59.5425 6.343 60.0162 6.90272C60.4882 7.4443 60.6295 8.07185 60.4402 8.78539C60.0904 9.93511 59.6527 10.9283 59.1271 11.765C58.6014 12.6016 58.1209 13.3334 57.6854 13.9602ZM78.8431 9.39152C78.5771 9.28834 78.2742 9.28017 77.9345 9.367C77.5948 9.45383 76.885 9.69443 75.8051 10.0888C74.7253 10.4832 73.9588 10.8023 73.5057 11.0463C73.0508 11.2721 72.7114 11.4596 72.4874 11.6088C72.2816 11.7563 72.0343 11.8528 71.7456 11.8982C71.4734 11.9237 71.1586 11.7885 70.8012 11.4925C70.4421 11.1784 70.2342 10.9141 70.1775 10.6997C70.1371 10.4655 70.2281 10.2647 70.4504 10.0973C71.258 9.72853 72.6141 9.2533 74.5186 8.67164C76.423 8.08997 77.8792 7.70604 78.887 7.51984C79.3374 7.44093 79.7015 7.51659 79.9794 7.74682C80.2755 7.97534 80.5396 8.25264 80.7716 8.57873C81.002 8.88667 81.0667 9.2834 80.9658 9.76892C80.654 10.3475 80.2482 10.999 79.7487 11.7233C79.2491 12.4477 78.6671 13.4636 78.0026 14.771C77.3381 16.0785 76.9091 16.9701 76.7158 17.446C76.5225 17.9219 76.531 18.3056 76.7415 18.5971C76.952 18.8886 77.3621 19.1613 77.9719 19.4153C78.5981 19.6495 78.9755 19.7697 79.1043 19.7759C79.233 19.7821 79.6851 19.7213 80.4604 19.5936C80.6271 19.6146 80.7709 19.6834 80.8917 19.8003C81.0307 19.9154 81.1186 20.0719 81.1555 20.2698C81.1907 20.4496 81.1641 20.6535 81.0757 20.8815C81.0054 21.1079 80.8483 21.2874 80.6044 21.4202C80.389 21.6601 80.0212 21.7404 79.501 21.6611C78.9826 21.5999 78.4781 21.4917 77.9875 21.3364C77.5167 21.1975 77.0201 20.9786 76.4977 20.6798C75.9753 20.381 75.5294 20.0201 75.1601 19.597C74.809 19.1723 74.5942 18.8354 74.5159 18.5864C74.4359 18.3193 74.5113 17.8545 74.742 17.192C75.5409 15.5607 76.3236 14.0499 77.0902 12.6596C77.8551 11.2512 78.4394 10.1618 78.8431 9.39152ZM83.453 7.00864C83.3288 7.44141 83.1704 7.70347 82.9775 7.79482C82.783 7.86802 82.5947 7.81246 82.4126 7.62816C82.0785 7.3849 81.7855 7.092 81.5336 6.74947C81.1836 6.14152 80.8599 5.52193 80.5626 4.89071C80.3686 4.57937 80.3785 4.29464 80.5922 4.03654C80.9115 3.73192 81.2067 3.65842 81.4778 3.81605C81.749 3.97368 81.9376 4.12991 82.0437 4.28473C82.5418 5.29989 83.0116 6.20786 83.453 7.00864ZM85.1773 5.7756C84.9043 5.01393 84.7034 4.33704 84.5746 3.74493C84.4498 3.39047 84.5067 3.11963 84.7455 2.93243C84.8147 2.88931 84.8946 2.86349 84.9854 2.85497C85.2032 2.83451 85.4856 2.91784 85.8328 3.10495C86.1011 3.42763 86.3054 3.84788 86.4455 4.36568C86.584 4.86534 86.6459 5.42712 86.6313 6.05101C86.5859 6.34822 86.4388 6.53598 86.1898 6.61429C85.959 6.69089 85.7542 6.6552 85.5756 6.50719C85.3969 6.35919 85.2641 6.11533 85.1773 5.7756Z" fill="#5F5D5D"/>
<path d="M16.2808 20.5127L16.6021 20.751L16.8443 20.4243L16.5136 20.1875L16.2808 20.5127ZM14.6249 18.9654L14.2942 19.1907L14.3003 19.1991L14.6249 18.9654ZM12.9512 12.2566L13.3512 12.2461L13.3508 12.2373L12.9512 12.2566ZM13.0651 11.422L12.757 11.1668L12.7389 11.1887L12.724 11.213L13.0651 11.422ZM13.8895 11.427L14.0276 11.0516L14.0198 11.0487L14.012 11.0462L13.8895 11.427ZM14.6349 12.3457L15.0316 12.2941L15.0313 12.2924L14.6349 12.3457ZM15.1596 16.4709L14.7637 16.5279L14.7646 16.5339L15.1596 16.4709ZM15.9596 18.2633L15.6316 18.4926L15.6393 18.5029L15.9596 18.2633ZM17.2172 19.079L17.2922 19.4719L17.4152 19.4485L17.5029 19.359L17.2172 19.079ZM21.4457 14.9743L21.1989 14.6595L21.1863 14.6693L21.1746 14.6801L21.4457 14.9743ZM22.6886 15.0498L23.0281 14.8382L23.014 14.8155L22.9969 14.7949L22.6886 15.0498ZM23.189 15.9915L23.5873 15.9541L23.5827 15.9051L23.5663 15.8586L23.189 15.9915ZM22.9977 16.5862L23.2406 16.9042L23.2498 16.8968L22.9977 16.5862ZM21.9157 17.347L21.6887 17.0175L21.6846 17.0205L21.9157 17.347ZM19.5628 19.4904L19.8488 19.77L19.8492 19.7696L19.5628 19.4904ZM17.3386 22.4182L16.9846 22.2318L16.982 22.2369L17.3386 22.4182ZM16.7324 25.0293L16.3341 25.0667L16.3478 25.2121L16.4519 25.3145L16.7324 25.0293ZM18.6203 25.5386L18.6109 25.9386L18.6194 25.9386L18.6203 25.5386ZM21.7204 24.9179L21.8603 25.2927L21.8642 25.2912L21.7204 24.9179ZM24.418 23.8132L24.6637 23.4975L24.4735 23.3495L24.2537 23.4485L24.418 23.8132ZM24.7092 25.159L24.4166 24.8862L24.4086 24.8948L24.4011 24.9039L24.7092 25.159ZM23.7309 25.8551L23.928 26.2033L23.9332 26.2002L23.7309 25.8551ZM21.1294 26.8135L21.0189 26.429L21.0125 26.431L21.1294 26.8135ZM17.4984 27.0447L17.408 27.4343L17.418 27.4366L17.4282 27.4384L17.4984 27.0447ZM14.8803 24.9012L14.5082 25.0481L14.5115 25.0563L14.515 25.0643L14.8803 24.9012ZM14.8723 23.0618L15.2543 23.1805L15.2549 23.1784L14.8723 23.0618ZM16.5136 20.1875C15.7873 19.6674 15.2728 19.1809 14.9496 18.7318L14.3003 19.1991C14.6929 19.7447 15.2824 20.2897 16.0479 20.8379L16.5136 20.1875ZM14.9555 18.7403C14.6507 18.2926 14.3115 17.5035 13.9471 16.3366L13.1835 16.5751C13.5523 17.7562 13.9195 18.6402 14.2943 19.1906L14.9555 18.7403ZM13.9471 16.3366C13.5944 15.2071 13.3932 13.8458 13.3511 12.2461L12.5514 12.2671C12.5948 13.9184 12.803 15.3567 13.1835 16.5751L13.9471 16.3366ZM13.3508 12.2373C13.3418 12.0518 13.3469 11.9082 13.3615 11.8013C13.3766 11.6904 13.3988 11.6429 13.4061 11.631L12.724 11.213C12.6361 11.3565 12.5917 11.5258 12.5688 11.6931C12.5455 11.8644 12.5413 12.0604 12.5517 12.2759L13.3508 12.2373ZM13.3731 11.6772C13.3611 11.6917 13.3454 11.7038 13.3295 11.7116C13.3147 11.7187 13.307 11.7186 13.3126 11.7181L13.2378 10.9216C13.0617 10.9382 12.886 11.0111 12.757 11.1668L13.3731 11.6772ZM13.3126 11.7181C13.3747 11.7123 13.516 11.727 13.767 11.8077L14.012 11.0462C13.7343 10.9568 13.4661 10.9002 13.2378 10.9216L13.3126 11.7181ZM13.7514 11.8024C13.9141 11.8622 14.021 11.9411 14.0924 12.029C14.1634 12.1166 14.2163 12.2342 14.2385 12.399L15.0313 12.2924C14.9927 12.0051 14.891 11.7436 14.7136 11.5249C14.5365 11.3066 14.301 11.1521 14.0276 11.0516L13.7514 11.8024ZM14.2382 12.3973C14.3037 12.9002 14.3548 13.3482 14.3917 13.7417L15.1882 13.6669C15.1502 13.2618 15.0979 12.8041 15.0316 12.2941L14.2382 12.3973ZM14.3917 13.7417C14.4286 14.1348 14.5535 15.0681 14.7637 16.5279L15.5556 16.4139C15.3444 14.9472 15.2229 14.036 15.1882 13.6669L14.3917 13.7417ZM14.7646 16.5339C14.8661 17.1707 15.165 17.8245 15.6318 18.4925L16.2875 18.0342C15.8659 17.4308 15.6314 16.8896 15.5547 16.408L14.7646 16.5339ZM15.6393 18.5029C15.8843 18.8305 16.1373 19.0931 16.4019 19.2648C16.6711 19.4394 16.9745 19.5326 17.2922 19.4719L17.1422 18.6861C17.0822 18.6976 16.9871 18.6908 16.8372 18.5936C16.6826 18.4933 16.4956 18.3121 16.28 18.0238L15.6393 18.5029ZM17.5029 19.359C18.9018 17.9319 20.3065 16.5683 21.7168 15.2684L21.1746 14.6801C19.7539 15.9896 18.3396 17.3626 16.9316 18.799L17.5029 19.359ZM21.6925 15.289C21.8891 15.1348 22.0174 15.1072 22.0903 15.1116C22.1539 15.1155 22.2512 15.1484 22.3804 15.3046L22.9969 14.7949C22.775 14.5264 22.4895 14.3344 22.1388 14.3131C21.7973 14.2923 21.4797 14.4393 21.1989 14.6595L21.6925 15.289ZM22.3492 15.2613C22.606 15.6735 22.7524 15.9559 22.8118 16.1244L23.5663 15.8586C23.4759 15.6017 23.2887 15.2563 23.0281 14.8382L22.3492 15.2613ZM22.7908 16.0289C22.8091 16.2242 22.7577 16.2659 22.7457 16.2756L23.2498 16.8968C23.544 16.658 23.6201 16.3032 23.5873 15.9541L22.7908 16.0289ZM22.7549 16.2683C22.6279 16.3654 22.2766 16.6126 21.6888 17.0176L22.1426 17.6764C22.7241 17.2758 23.0942 17.0158 23.2405 16.9041L22.7549 16.2683ZM21.6846 17.0205C21.0867 17.4437 20.2814 18.1802 19.2764 19.2112L19.8492 19.7696C20.8483 18.7448 21.6116 18.0523 22.1468 17.6734L21.6846 17.0205ZM19.2768 19.2108C18.2723 20.2381 17.5046 21.2448 16.9847 22.2318L17.6925 22.6047C18.167 21.704 18.8821 20.7588 19.8488 19.77L19.2768 19.2108ZM16.982 22.2369C16.4793 23.2256 16.2501 24.1723 16.3341 25.0667L17.1306 24.9919C17.0646 24.2892 17.2396 23.4952 17.6951 22.5996L16.982 22.2369ZM16.4519 25.3145C16.6793 25.5382 16.9885 25.6856 17.3423 25.781C17.6981 25.877 18.1236 25.9271 18.6109 25.9385L18.6297 25.1387C18.1812 25.1282 17.8242 25.0824 17.5506 25.0086C17.2751 24.9343 17.1083 24.838 17.0129 24.7442L16.4519 25.3145ZM18.6194 25.9386C19.6301 25.9409 20.7116 25.7214 21.8603 25.2927L21.5805 24.5432C20.5003 24.9463 19.5151 25.1406 18.6212 25.1386L18.6194 25.9386ZM21.8642 25.2912C22.9982 24.8542 23.9051 24.4829 24.5823 24.1779L24.2537 23.4485C23.5958 23.7448 22.7044 24.1101 21.5766 24.5447L21.8642 25.2912ZM24.1723 24.1288C24.4841 24.3716 24.5269 24.5201 24.5278 24.5685L25.3276 24.555C25.3204 24.1282 25.0235 23.7776 24.6637 23.4975L24.1723 24.1288ZM24.5278 24.5685C24.5302 24.712 24.4895 24.8081 24.4166 24.8862L25.0017 25.4318C25.2282 25.1889 25.3332 24.8868 25.3276 24.555L24.5278 24.5685ZM24.4011 24.9039C24.3696 24.9419 24.29 25.0153 24.134 25.1263C23.984 25.233 23.7833 25.3607 23.5286 25.5101L23.9332 26.2002C24.1991 26.0443 24.4217 25.9034 24.5978 25.7781C24.7679 25.6571 24.9172 25.535 25.0172 25.4142L24.4011 24.9039ZM23.5339 25.507C23.0739 25.7674 22.2462 26.0764 21.0189 26.4291L21.2399 27.1979C22.473 26.8436 23.3796 26.5136 23.9279 26.2032L23.5339 25.507ZM21.0125 26.431C19.861 26.783 18.7148 26.8553 17.5686 26.6509L17.4282 27.4384C18.7028 27.6658 19.9773 27.584 21.2464 27.196L21.0125 26.431ZM17.5889 26.655C16.4735 26.3961 15.7037 25.7641 15.2455 24.7381L14.515 25.0643C15.077 26.3227 16.0526 27.1196 17.408 27.4343L17.5889 26.655ZM15.2523 24.7542C15.0762 24.3084 15.0646 23.7911 15.2543 23.1805L14.4903 22.9432C14.2582 23.6904 14.252 24.3994 14.5082 25.0481L15.2523 24.7542ZM15.2549 23.1784C15.4602 22.5045 15.9007 21.6968 16.6021 20.751L15.9594 20.2745C15.2307 21.2572 14.7322 22.1489 14.4897 22.9453L15.2549 23.1784ZM34.8841 13.6023L34.8041 13.2104L34.7546 13.2205L34.7092 13.2426L34.8841 13.6023ZM33.545 13.6732L33.3108 13.9976L33.3207 14.0044L33.545 13.6732ZM32.6889 12.1606L32.2948 12.0919L32.2925 12.1055L32.291 12.1192L32.6889 12.1606ZM33.1406 11.7063L33.1032 11.308L33.051 11.3129L33.0018 11.3311L33.1406 11.7063ZM38.371 11.5446L38.4135 11.1469L38.4124 11.1468L38.371 11.5446ZM40.7736 11.9781L40.604 12.3403L40.6121 12.3441L40.6204 12.3476L40.7736 11.9781ZM41.5752 12.6169L41.2509 12.8511L41.2591 12.8625L41.2682 12.8733L41.5752 12.6169ZM41.9139 13.2992L41.5139 13.2967L41.5138 13.3167L41.5156 13.3366L41.9139 13.2992ZM41.2325 13.9399L41.1682 14.3347L41.1955 14.3391L41.2231 14.3398L41.2325 13.9399ZM39.6398 13.65L39.5494 14.0397L39.5563 14.0413L39.5634 14.0427L39.6398 13.65ZM37.2849 13.4318L37.2755 13.8318L37.284 13.8318L37.2849 13.4318ZM34.6817 24.607L34.5714 24.9915L34.6202 25.0055L34.6709 25.0068L34.6817 24.607ZM33.6224 23.8551L33.2866 24.0724L33.2923 24.0813L33.2985 24.0899L33.6224 23.8551ZM34.096 22.4648L34.1294 22.0661L34.1196 22.0655L34.096 22.4648ZM38.0937 22.3366L38.0414 21.94L38.0412 21.94L38.0937 22.3366ZM41.4337 21.6384L41.5666 22.0157L41.5725 22.0136L41.4337 21.6384ZM43.187 21.0069L43.3157 21.3858L43.3279 21.3812L43.187 21.0069ZM44.0922 20.7021L44.3702 20.4146L44.208 20.2577L43.9898 20.3155L44.0922 20.7021ZM44.0788 22.0217L43.7578 21.7831L43.7508 21.7924L43.7444 21.8021L44.0788 22.0217ZM43.2936 22.7271L43.0651 22.3987L43.0588 22.4032L43.2936 22.7271ZM41.1329 23.699L41 23.3217L40.9985 23.3222L41.1329 23.699ZM38.0184 24.4584L37.967 24.0617L37.9668 24.0617L38.0184 24.4584ZM34.7092 13.2426C34.2014 13.4894 33.9269 13.4487 33.7693 13.342L33.3207 14.0044C33.8279 14.3478 34.4461 14.26 35.0589 13.9621L34.7092 13.2426ZM33.7791 13.3488C33.5105 13.155 33.3342 12.9432 33.2299 12.7177L32.5037 13.0533C32.6752 13.4243 32.9509 13.7377 33.3109 13.9975L33.7791 13.3488ZM33.2299 12.7177C33.1021 12.4412 33.0787 12.2793 33.0867 12.2021L32.291 12.1192C32.2606 12.4118 32.3557 12.7331 32.5037 13.0533L33.2299 12.7177ZM33.0829 12.2294C33.0856 12.214 33.093 12.1503 33.2793 12.0814L33.0018 11.3311C32.6573 11.4585 32.3635 11.6978 32.2948 12.0919L33.0829 12.2294ZM33.178 12.1045C33.1785 12.1045 33.179 12.1044 33.1796 12.1044C33.1801 12.1043 33.1806 12.1043 33.1811 12.1042C33.1817 12.1042 33.1822 12.1041 33.1827 12.1041C33.1833 12.104 33.1838 12.104 33.1843 12.1039C33.1849 12.1039 33.1854 12.1038 33.1859 12.1038C33.1865 12.1037 33.187 12.1037 33.1875 12.1036C33.1881 12.1036 33.1886 12.1035 33.1891 12.1035C33.1897 12.1034 33.1902 12.1034 33.1907 12.1033C33.1913 12.1033 33.1918 12.1032 33.1923 12.1032C33.1928 12.1031 33.1934 12.1031 33.1939 12.103C33.1944 12.103 33.195 12.1029 33.1955 12.1029C33.196 12.1028 33.1966 12.1028 33.1971 12.1027C33.1976 12.1027 33.1982 12.1026 33.1987 12.1026C33.1992 12.1025 33.1998 12.1025 33.2003 12.1024C33.2008 12.1024 33.2014 12.1023 33.2019 12.1023C33.2024 12.1022 33.2029 12.1022 33.2035 12.1021C33.204 12.1021 33.2045 12.102 33.2051 12.102C33.2056 12.1019 33.2061 12.1019 33.2067 12.1018C33.2072 12.1018 33.2077 12.1017 33.2083 12.1017C33.2088 12.1016 33.2093 12.1016 33.2099 12.1015C33.2104 12.1015 33.2109 12.1014 33.2115 12.1014C33.212 12.1013 33.2125 12.1013 33.2131 12.1012C33.2136 12.1012 33.2141 12.1011 33.2146 12.1011C33.2152 12.101 33.2157 12.101 33.2162 12.1009C33.2168 12.1009 33.2173 12.1008 33.2178 12.1008C33.2184 12.1007 33.2189 12.1007 33.2194 12.1006C33.22 12.1006 33.2205 12.1005 33.221 12.1005C33.2216 12.1004 33.2221 12.1004 33.2226 12.1003C33.2232 12.1003 33.2237 12.1002 33.2242 12.1002C33.2247 12.1001 33.2253 12.1001 33.2258 12.1C33.2263 12.1 33.2269 12.0999 33.2274 12.0999C33.2279 12.0998 33.2285 12.0998 33.229 12.0997C33.2295 12.0997 33.2301 12.0996 33.2306 12.0996C33.2311 12.0995 33.2317 12.0995 33.2322 12.0994C33.2327 12.0994 33.2333 12.0993 33.2338 12.0993C33.2343 12.0992 33.2349 12.0992 33.2354 12.0991C33.2359 12.0991 33.2364 12.099 33.237 12.099C33.2375 12.0989 33.238 12.0989 33.2386 12.0988C33.2391 12.0988 33.2396 12.0987 33.2402 12.0987C33.2407 12.0986 33.2412 12.0986 33.2418 12.0985C33.2423 12.0985 33.2428 12.0984 33.2434 12.0984C33.2439 12.0983 33.2444 12.0983 33.245 12.0982C33.2455 12.0982 33.246 12.0981 33.2465 12.0981C33.2471 12.098 33.2476 12.098 33.2481 12.0979C33.2487 12.0979 33.2492 12.0978 33.2497 12.0978C33.2503 12.0977 33.2508 12.0977 33.2513 12.0976C33.2519 12.0976 33.2524 12.0975 33.2529 12.0975C33.2535 12.0974 33.254 12.0974 33.2545 12.0973C33.2551 12.0973 33.2556 12.0972 33.2561 12.0972C33.2567 12.0971 33.2572 12.0971 33.2577 12.097C33.2582 12.097 33.2588 12.0969 33.2593 12.0969C33.2598 12.0968 33.2604 12.0968 33.2609 12.0967C33.2614 12.0967 33.262 12.0966 33.2625 12.0966C33.263 12.0965 33.2636 12.0965 33.2641 12.0964C33.2646 12.0964 33.2652 12.0963 33.2657 12.0963C33.2662 12.0962 33.2668 12.0962 33.2673 12.0961C33.2678 12.0961 33.2683 12.096 33.2689 12.096C33.2694 12.0959 33.2699 12.0959 33.2705 12.0958C33.271 12.0958 33.2715 12.0957 33.2721 12.0957C33.2726 12.0956 33.2731 12.0956 33.2737 12.0955C33.2742 12.0955 33.2747 12.0954 33.2753 12.0954C33.2758 12.0953 33.2763 12.0953 33.2769 12.0952C33.2774 12.0952 33.2779 12.0951 33.2785 12.0951C33.279 12.095 33.2795 12.095 33.28 12.0949C33.2806 12.0949 33.2811 12.0948 33.2816 12.0948C33.2822 12.0947 33.2827 12.0947 33.2832 12.0946C33.2838 12.0946 33.2843 12.0945 33.2848 12.0945C33.2854 12.0944 33.2859 12.0944 33.2864 12.0943C33.287 12.0943 33.2875 12.0942 33.288 12.0942C33.2886 12.0941 33.2891 12.0941 33.2896 12.094C33.2902 12.094 33.2907 12.0939 33.2912 12.0939C33.2917 12.0938 33.2923 12.0938 33.2928 12.0937C33.2933 12.0937 33.2939 12.0936 33.2944 12.0936C33.2949 12.0935 33.2955 12.0935 33.296 12.0934C33.2965 12.0934 33.2971 12.0933 33.2976 12.0933C33.2981 12.0932 33.2987 12.0932 33.2992 12.0931C33.2997 12.0931 33.3003 12.093 33.3008 12.093C33.3013 12.0929 33.3018 12.0929 33.3024 12.0928C33.3029 12.0928 33.3034 12.0927 33.304 12.0927C33.3045 12.0926 33.305 12.0926 33.3056 12.0925C33.3061 12.0925 33.3066 12.0924 33.3072 12.0924C33.3077 12.0923 33.3082 12.0923 33.3088 12.0922C33.3093 12.0922 33.3098 12.0921 33.3104 12.0921C33.3109 12.092 33.3114 12.092 33.312 12.0919C33.3125 12.0919 33.313 12.0918 33.3135 12.0918C33.3141 12.0917 33.3146 12.0917 33.3151 12.0916C33.3157 12.0916 33.3162 12.0915 33.3167 12.0915C33.3173 12.0914 33.3178 12.0914 33.3183 12.0913C33.3189 12.0913 33.3194 12.0912 33.3199 12.0912C33.3205 12.0911 33.321 12.0911 33.3215 12.091C33.3221 12.091 33.3226 12.0909 33.3231 12.0909C33.3236 12.0908 33.3242 12.0908 33.3247 12.0907C33.3252 12.0907 33.3258 12.0906 33.3263 12.0906C33.3268 12.0905 33.3274 12.0905 33.3279 12.0904C33.3284 12.0904 33.329 12.0903 33.3295 12.0903C33.33 12.0902 33.3306 12.0902 33.3311 12.0901C33.3316 12.0901 33.3322 12.09 33.3327 12.09C33.3332 12.0899 33.3338 12.0899 33.3343 12.0898C33.3348 12.0898 33.3353 12.0897 33.3359 12.0897C33.3364 12.0896 33.3369 12.0896 33.3375 12.0895C33.338 12.0895 33.3385 12.0894 33.3391 12.0894C33.3396 12.0893 33.3401 12.0893 33.3407 12.0892C33.3412 12.0892 33.3417 12.0891 33.3423 12.0891C33.3428 12.089 33.3433 12.089 33.3439 12.0889C33.3444 12.0889 33.3449 12.0888 33.3454 12.0888C33.346 12.0887 33.3465 12.0887 33.347 12.0886C33.3476 12.0886 33.3481 12.0885 33.3486 12.0885C33.3492 12.0884 33.3497 12.0884 33.3502 12.0883C33.3508 12.0883 33.3513 12.0882 33.3518 12.0882C33.3524 12.0881 33.3529 12.0881 33.3534 12.088C33.354 12.088 33.3545 12.0879 33.355 12.0879C33.3556 12.0878 33.3561 12.0878 33.3566 12.0877C33.3571 12.0877 33.3577 12.0876 33.3582 12.0876C33.3587 12.0875 33.3593 12.0875 33.3598 12.0874C33.3603 12.0874 33.3609 12.0873 33.3614 12.0873C33.3619 12.0872 33.3625 12.0872 33.363 12.0871C33.3635 12.0871 33.3641 12.087 33.3646 12.087C33.3651 12.0869 33.3657 12.0869 33.3662 12.0868C33.3667 12.0868 33.3672 12.0867 33.3678 12.0867C33.3683 12.0866 33.3688 12.0866 33.3694 12.0865C33.3699 12.0865 33.3704 12.0864 33.371 12.0864C33.3715 12.0863 33.372 12.0863 33.3726 12.0862C33.3731 12.0862 33.3736 12.0861 33.3742 12.0861C33.3747 12.086 33.3752 12.086 33.3758 12.0859C33.3763 12.0859 33.3768 12.0858 33.3774 12.0858C33.3779 12.0857 33.3784 12.0857 33.3789 12.0856C33.3795 12.0856 33.38 12.0855 33.3805 12.0855C33.3811 12.0854 33.3816 12.0854 33.3821 12.0853C33.3827 12.0853 33.3832 12.0852 33.3837 12.0852C33.3843 12.0851 33.3848 12.0851 33.3853 12.085C33.3859 12.085 33.3864 12.0849 33.3869 12.0849C33.3875 12.0848 33.388 12.0848 33.3885 12.0847C33.389 12.0847 33.3896 12.0846 33.3901 12.0846C33.3906 12.0845 33.3912 12.0845 33.3917 12.0844C33.3922 12.0844 33.3928 12.0843 33.3933 12.0843C33.3938 12.0842 33.3944 12.0842 33.3949 12.0841C33.3954 12.0841 33.396 12.084 33.3965 12.084C33.397 12.0839 33.3976 12.0839 33.3981 12.0838C33.3986 12.0838 33.3992 12.0837 33.3997 12.0837C33.4002 12.0836 33.4007 12.0836 33.4013 12.0835C33.4018 12.0835 33.4023 12.0834 33.4029 12.0834C33.4034 12.0833 33.4039 12.0833 33.4045 12.0832C33.405 12.0832 33.4055 12.0831 33.4061 12.0831C33.4066 12.083 33.4071 12.083 33.4077 12.0829C33.4082 12.0829 33.4087 12.0828 33.4093 12.0828C33.4098 12.0827 33.4103 12.0827 33.4109 12.0826C33.4114 12.0826 33.4119 12.0825 33.4124 12.0825C33.413 12.0824 33.4135 12.0824 33.414 12.0823C33.4146 12.0823 33.4151 12.0822 33.4156 12.0822C33.4162 12.0821 33.4167 12.0821 33.4172 12.082C33.4178 12.082 33.4183 12.0819 33.4188 12.0819C33.4194 12.0818 33.4199 12.0818 33.4204 12.0817C33.421 12.0817 33.4215 12.0816 33.422 12.0816C33.4225 12.0815 33.4231 12.0815 33.4236 12.0814C33.4241 12.0814 33.4247 12.0813 33.4252 12.0813C33.4257 12.0812 33.4263 12.0812 33.4268 12.0811C33.4273 12.0811 33.4279 12.081 33.4284 12.081C33.4289 12.0809 33.4295 12.0809 33.43 12.0808C33.4305 12.0808 33.4311 12.0807 33.4316 12.0807C33.4321 12.0806 33.4327 12.0806 33.4332 12.0805C33.4337 12.0805 33.4342 12.0804 33.4348 12.0804C33.4353 12.0803 33.4358 12.0803 33.4364 12.0802C33.4369 12.0802 33.4374 12.0801 33.438 12.0801C33.4385 12.08 33.439 12.08 33.4396 12.0799C33.4401 12.0799 33.4406 12.0798 33.4412 12.0798C33.4417 12.0797 33.4422 12.0797 33.4428 12.0796C33.4433 12.0796 33.4438 12.0795 33.4443 12.0795C33.4449 12.0794 33.4454 12.0794 33.4459 12.0793C33.4465 12.0793 33.447 12.0792 33.4475 12.0792C33.4481 12.0791 33.4486 12.0791 33.4491 12.079C33.4497 12.079 33.4502 12.0789 33.4507 12.0789C33.4513 12.0788 33.4518 12.0788 33.4523 12.0787C33.4529 12.0787 33.4534 12.0786 33.4539 12.0786C33.4545 12.0785 33.455 12.0785 33.4555 12.0784C33.456 12.0784 33.4566 12.0783 33.4571 12.0783C33.4576 12.0782 33.4582 12.0782 33.4587 12.0781C33.4592 12.0781 33.4598 12.078 33.4603 12.078C33.4608 12.0779 33.4614 12.0779 33.4619 12.0778C33.4624 12.0778 33.463 12.0777 33.4635 12.0777C33.464 12.0777 33.4646 12.0776 33.4651 12.0776C33.4656 12.0775 33.4661 12.0775 33.4667 12.0774C33.4672 12.0774 33.4677 12.0773 33.4683 12.0773C33.4688 12.0772 33.4693 12.0772 33.4699 12.0771C33.4704 12.0771 33.4709 12.077 33.4715 12.077C33.472 12.0769 33.4725 12.0769 33.4731 12.0768C33.4736 12.0768 33.4741 12.0767 33.4747 12.0767C33.4752 12.0766 33.4757 12.0766 33.4763 12.0765C33.4768 12.0765 33.4773 12.0764 33.4778 12.0764C33.4784 12.0763 33.4789 12.0763 33.4794 12.0762C33.48 12.0762 33.4805 12.0761 33.481 12.0761C33.4816 12.076 33.4821 12.076 33.4826 12.0759C33.4832 12.0759 33.4837 12.0758 33.4842 12.0758C33.4848 12.0757 33.4853 12.0757 33.4858 12.0756C33.4864 12.0756 33.4869 12.0755 33.4874 12.0755C33.4879 12.0754 33.4885 12.0754 33.489 12.0753C33.4895 12.0753 33.4901 12.0752 33.4906 12.0752C33.4911 12.0751 33.4917 12.0751 33.4922 12.075C33.4927 12.075 33.4933 12.0749 33.4938 12.0749C33.4943 12.0748 33.4949 12.0748 33.4954 12.0747C33.4959 12.0747 33.4965 12.0746 33.497 12.0746C33.4975 12.0745 33.4981 12.0745 33.4986 12.0744C33.4991 12.0744 33.4996 12.0743 33.5002 12.0743C33.5007 12.0742 33.5012 12.0742 33.5018 12.0741C33.5023 12.0741 33.5028 12.074 33.5034 12.074C33.5039 12.0739 33.5044 12.0739 33.505 12.0738C33.5055 12.0738 33.506 12.0737 33.5066 12.0737C33.5071 12.0736 33.5076 12.0736 33.5082 12.0735C33.5087 12.0735 33.5092 12.0734 33.5097 12.0734C33.5103 12.0733 33.5108 12.0733 33.5113 12.0732C33.5119 12.0732 33.5124 12.0731 33.5129 12.0731C33.5135 12.073 33.514 12.073 33.5145 12.0729C33.5151 12.0729 33.5156 12.0728 33.5161 12.0728C33.5167 12.0727 33.5172 12.0727 33.5177 12.0726C33.5183 12.0726 33.5188 12.0725 33.5193 12.0725C33.5199 12.0724 33.5204 12.0724 33.5209 12.0723C33.5214 12.0723 33.522 12.0722 33.5225 12.0722C33.523 12.0721 33.5236 12.0721 33.5241 12.072C33.5246 12.072 33.5252 12.0719 33.5257 12.0719C33.5262 12.0718 33.5268 12.0718 33.5273 12.0717C33.5278 12.0717 33.5284 12.0716 33.5289 12.0716C33.5294 12.0715 33.53 12.0715 33.5305 12.0714C33.531 12.0714 33.5316 12.0713 33.5321 12.0713C33.5326 12.0712 33.5331 12.0712 33.5337 12.0711C33.5342 12.0711 33.5347 12.071 33.5353 12.071C33.5358 12.0709 33.5363 12.0709 33.5369 12.0708C33.5374 12.0708 33.5379 12.0707 33.5385 12.0707C33.539 12.0706 33.5395 12.0706 33.5401 12.0705C33.5406 12.0705 33.5411 12.0704 33.5417 12.0704C33.5422 12.0703 33.5427 12.0703 33.5432 12.0702C33.5438 12.0702 33.5443 12.0701 33.5448 12.0701C33.5454 12.07 33.5459 12.07 33.5464 12.0699C33.547 12.0699 33.5475 12.0698 33.548 12.0698C33.5486 12.0697 33.5491 12.0697 33.5496 12.0696C33.5502 12.0696 33.5507 12.0695 33.5512 12.0695C33.5518 12.0694 33.5523 12.0694 33.5528 12.0693C33.5534 12.0693 33.5539 12.0692 33.5544 12.0692C33.5549 12.0691 33.5555 12.0691 33.556 12.069C33.5565 12.069 33.5571 12.0689 33.5576 12.0689C33.5581 12.0688 33.5587 12.0688 33.5592 12.0687C33.5597 12.0687 33.5603 12.0686 33.5608 12.0686C33.5613 12.0685 33.5619 12.0685 33.5624 12.0684C33.5629 12.0684 33.5635 12.0683 33.564 12.0683C33.5645 12.0682 33.565 12.0682 33.5656 12.0681C33.5661 12.0681 33.5666 12.068 33.5672 12.068C33.5677 12.0679 33.5682 12.0679 33.5688 12.0678C33.5693 12.0678 33.5698 12.0677 33.5704 12.0677C33.5709 12.0676 33.5714 12.0676 33.572 12.0675C33.5725 12.0675 33.573 12.0674 33.5736 12.0674C33.5741 12.0673 33.5746 12.0673 33.5752 12.0672C33.5757 12.0672 33.5762 12.0671 33.5767 12.0671C33.5773 12.067 33.5778 12.067 33.5783 12.0669C33.5789 12.0669 33.5794 12.0668 33.5799 12.0668C33.5805 12.0667 33.581 12.0667 33.5815 12.0666C33.5821 12.0666 33.5826 12.0665 33.5831 12.0665C33.5837 12.0664 33.5842 12.0664 33.5847 12.0663C33.5853 12.0663 33.5858 12.0662 33.5863 12.0662C33.5868 12.0661 33.5874 12.0661 33.5879 12.066C33.5884 12.066 33.589 12.0659 33.5895 12.0659C33.59 12.0658 33.5906 12.0658 33.5911 12.0657C33.5916 12.0657 33.5922 12.0656 33.5927 12.0656C33.5932 12.0655 33.5938 12.0655 33.5943 12.0654C33.5948 12.0654 33.5954 12.0653 33.5959 12.0653C33.5964 12.0652 33.597 12.0652 33.5975 12.0651C33.598 12.0651 33.5985 12.065 33.5991 12.065C33.5996 12.0649 33.6001 12.0649 33.6007 12.0648C33.6012 12.0648 33.6017 12.0647 33.6023 12.0647C33.6028 12.0646 33.6033 12.0646 33.6039 12.0645C33.6044 12.0645 33.6049 12.0644 33.6055 12.0644C33.606 12.0643 33.6065 12.0643 33.6071 12.0642C33.6076 12.0642 33.6081 12.0641 33.6086 12.0641C33.6092 12.064 33.6097 12.064 33.6102 12.0639C33.6108 12.0639 33.6113 12.0638 33.6118 12.0638C33.6124 12.0637 33.6129 12.0637 33.6134 12.0636C33.614 12.0636 33.6145 12.0635 33.615 12.0635C33.6156 12.0634 33.6161 12.0634 33.6166 12.0633C33.6172 12.0633 33.6177 12.0632 33.6182 12.0632C33.6188 12.0631 33.6193 12.0631 33.6198 12.063C33.6203 12.063 33.6209 12.0629 33.6214 12.0629C33.6219 12.0628 33.6225 12.0628 33.623 12.0627C33.6235 12.0627 33.6241 12.0626 33.6246 12.0626C33.6251 12.0625 33.6257 12.0625 33.6262 12.0624C33.6267 12.0624 33.6273 12.0623 33.6278 12.0623C33.6283 12.0622 33.6289 12.0622 33.6294 12.0621C33.6299 12.0621 33.6304 12.062 33.631 12.062C33.6315 12.0619 33.632 12.0619 33.6326 12.0618C33.6331 12.0618 33.6336 12.0617 33.6342 12.0617C33.6347 12.0616 33.6352 12.0616 33.6358 12.0615C33.6363 12.0615 33.6368 12.0614 33.6374 12.0614C33.6379 12.0613 33.6384 12.0613 33.639 12.0612C33.6395 12.0612 33.64 12.0611 33.6406 12.0611C33.6411 12.061 33.6416 12.061 33.6421 12.0609C33.6427 12.0609 33.6432 12.0608 33.6437 12.0608C33.6443 12.0607 33.6448 12.0607 33.6453 12.0606C33.6459 12.0606 33.6464 12.0605 33.6469 12.0605C33.6475 12.0604 33.648 12.0604 33.6485 12.0603C33.6491 12.0603 33.6496 12.0602 33.6501 12.0602C33.6507 12.0601 33.6512 12.0601 33.6517 12.06C33.6523 12.06 33.6528 12.0599 33.6533 12.0599C33.6538 12.0598 33.6544 12.0598 33.6549 12.0597C33.6554 12.0597 33.656 12.0596 33.6565 12.0596C33.657 12.0595 33.6576 12.0595 33.6581 12.0594C33.6586 12.0594 33.6592 12.0593 33.6597 12.0593C33.6602 12.0592 33.6608 12.0592 33.6613 12.0591C33.6618 12.0591 33.6624 12.059 33.6629 12.059C33.6634 12.0589 33.6639 12.0589 33.6645 12.0588C33.665 12.0588 33.6655 12.0587 33.6661 12.0587C33.6666 12.0586 33.6671 12.0586 33.6677 12.0585C33.6682 12.0585 33.6687 12.0584 33.6693 12.0584C33.6698 12.0583 33.6703 12.0583 33.6709 12.0582C33.6714 12.0582 33.6719 12.0581 33.6725 12.0581C33.673 12.058 33.6735 12.058 33.6741 12.0579C33.6746 12.0579 33.6751 12.0578 33.6756 12.0578C33.6762 12.0577 33.6767 12.0577 33.6772 12.0576C33.6778 12.0576 33.6783 12.0575 33.6788 12.0575C33.6794 12.0574 33.6799 12.0574 33.6804 12.0573C33.681 12.0573 33.6815 12.0572 33.682 12.0572C33.6826 12.0571 33.6831 12.0571 33.6836 12.057C33.6842 12.057 33.6847 12.0569 33.6852 12.0569C33.6857 12.0568 33.6863 12.0568 33.6868 12.0567C33.6873 12.0567 33.6879 12.0566 33.6884 12.0566C33.6889 12.0565 33.6895 12.0565 33.69 12.0564C33.6905 12.0564 33.6911 12.0563 33.6916 12.0563C33.6921 12.0562 33.6927 12.0562 33.6932 12.0561C33.6937 12.0561 33.6943 12.056 33.6948 12.056C33.6953 12.0559 33.6959 12.0559 33.6964 12.0558C33.6969 12.0558 33.6974 12.0557 33.698 12.0557C33.6985 12.0556 33.699 12.0556 33.6996 12.0555C33.7001 12.0555 33.7006 12.0554 33.7012 12.0554C33.7017 12.0553 33.7022 12.0553 33.7028 12.0552C33.7033 12.0552 33.7038 12.0551 33.7044 12.0551C33.7049 12.055 33.7054 12.055 33.706 12.0549C33.7065 12.0549 33.707 12.0548 33.7075 12.0548C33.7081 12.0547 33.7086 12.0547 33.7091 12.0546C33.7097 12.0546 33.7102 12.0545 33.7107 12.0545C33.7113 12.0544 33.7118 12.0544 33.7123 12.0543C33.7129 12.0543 33.7134 12.0542 33.7139 12.0542C33.7145 12.0541 33.715 12.0541 33.7155 12.054C33.7161 12.054 33.7166 12.0539 33.7171 12.0539C33.7177 12.0538 33.7182 12.0538 33.7187 12.0537C33.7192 12.0537 33.7198 12.0536 33.7203 12.0536C33.7208 12.0535 33.7214 12.0535 33.7219 12.0534C33.7224 12.0534 33.723 12.0533 33.7235 12.0533C33.724 12.0532 33.7246 12.0532 33.7251 12.0531C33.7256 12.0531 33.7262 12.053 33.7267 12.053C33.7272 12.0529 33.7278 12.0529 33.7283 12.0528C33.7288 12.0528 33.7293 12.0527 33.7299 12.0527C33.7304 12.0526 33.7309 12.0526 33.7315 12.0525C33.732 12.0525 33.7325 12.0524 33.7331 12.0524C33.7336 12.0523 33.7341 12.0523 33.7347 12.0522C33.7352 12.0522 33.7357 12.0521 33.7363 12.0521C33.7368 12.052 33.7373 12.052 33.7379 12.0519C33.7384 12.0519 33.7389 12.0518 33.7395 12.0518C33.74 12.0517 33.7405 12.0517 33.741 12.0516C33.7416 12.0516 33.7421 12.0515 33.7426 12.0515C33.7432 12.0514 33.7437 12.0514 33.7442 12.0513C33.7448 12.0513 33.7453 12.0512 33.7458 12.0512C33.7464 12.0511 33.7469 12.0511 33.7474 12.051C33.748 12.051 33.7485 12.0509 33.749 12.0509C33.7496 12.0508 33.7501 12.0508 33.7506 12.0507C33.7511 12.0507 33.7517 12.0506 33.7522 12.0506C33.7527 12.0505 33.7533 12.0505 33.7538 12.0504C33.7543 12.0504 33.7549 12.0503 33.7554 12.0503C33.7559 12.0502 33.7565 12.0502 33.757 12.0501C33.7575 12.0501 33.7581 12.05 33.7586 12.05C33.7591 12.0499 33.7597 12.0499 33.7602 12.0498C33.7607 12.0498 33.7613 12.0497 33.7618 12.0497C33.7623 12.0496 33.7628 12.0496 33.7634 12.0495C33.7639 12.0495 33.7644 12.0494 33.765 12.0494C33.7655 12.0493 33.766 12.0493 33.7666 12.0492C33.7671 12.0492 33.7676 12.0491 33.7682 12.0491C33.7687 12.049 33.7692 12.049 33.7698 12.0489C33.7703 12.0489 33.7708 12.0488 33.7714 12.0488C33.7719 12.0487 33.7724 12.0487 33.773 12.0486C33.7735 12.0486 33.774 12.0485 33.7745 12.0485C33.7751 12.0484 33.7756 12.0484 33.7761 12.0483C33.7767 12.0483 33.7772 12.0482 33.7777 12.0482C33.7783 12.0481 33.7788 12.0481 33.7793 12.048C33.7799 12.048 33.7804 12.0479 33.7809 12.0479C33.7815 12.0478 33.782 12.0478 33.7825 12.0477C33.7831 12.0477 33.7836 12.0476 33.7841 12.0476C33.7846 12.0475 33.7852 12.0475 33.7857 12.0474C33.7862 12.0474 33.7868 12.0473 33.7873 12.0473C33.7878 12.0472 33.7884 12.0472 33.7889 12.0471C33.7894 12.0471 33.79 12.047 33.7905 12.047C33.791 12.0469 33.7916 12.0469 33.7921 12.0468C33.7926 12.0468 33.7932 12.0467 33.7937 12.0467C33.7942 12.0466 33.7948 12.0466 33.7953 12.0465C33.7958 12.0465 33.7963 12.0464 33.7969 12.0464C33.7974 12.0463 33.7979 12.0463 33.7985 12.0462C33.799 12.0462 33.7995 12.0461 33.8001 12.0461C33.8006 12.046 33.8011 12.046 33.8017 12.0459C33.8022 12.0459 33.8027 12.0458 33.8033 12.0458C33.8038 12.0457 33.8043 12.0457 33.8049 12.0456C33.8054 12.0456 33.8059 12.0455 33.8064 12.0455C33.807 12.0454 33.8075 12.0454 33.808 12.0453C33.8086 12.0453 33.8091 12.0452 33.8096 12.0452C33.8102 12.0451 33.8107 12.0451 33.8112 12.045C33.8118 12.045 33.8123 12.0449 33.8128 12.0449C33.8134 12.0448 33.8139 12.0448 33.8144 12.0447C33.815 12.0447 33.8155 12.0446 33.816 12.0446C33.8166 12.0445 33.8171 12.0445 33.8176 12.0444C33.8181 12.0444 33.8187 12.0443 33.8192 12.0443C33.8197 12.0442 33.8203 12.0442 33.8208 12.0441C33.8213 12.0441 33.8219 12.044 33.8224 12.044C33.8229 12.0439 33.8235 12.0439 33.824 12.0438C33.8245 12.0438 33.8251 12.0437 33.8256 12.0437C33.8261 12.0436 33.8267 12.0436 33.8272 12.0435C33.8277 12.0435 33.8282 12.0434 33.8288 12.0434C33.8293 12.0433 33.8298 12.0433 33.8304 12.0432C33.8309 12.0432 33.8314 12.0431 33.832 12.0431C33.8325 12.043 33.833 12.043 33.8336 12.0429C33.8341 12.0429 33.8346 12.0428 33.8352 12.0428C33.8357 12.0427 33.8362 12.0427 33.8368 12.0426C33.8373 12.0426 33.8378 12.0425 33.8384 12.0425C33.8389 12.0424 33.8394 12.0424 33.8399 12.0423C33.8405 12.0423 33.841 12.0422 33.8415 12.0422C33.8421 12.0421 33.8426 12.0421 33.8431 12.042C33.8437 12.042 33.8442 12.0419 33.8447 12.0419C33.8453 12.0418 33.8458 12.0418 33.8463 12.0417C33.8469 12.0417 33.8474 12.0416 33.8479 12.0416C33.8485 12.0415 33.849 12.0415 33.8495 12.0414C33.85 12.0414 33.8506 12.0413 33.8511 12.0413C33.8516 12.0412 33.8522 12.0412 33.8527 12.0411C33.8532 12.0411 33.8538 12.041 33.8543 12.041C33.8548 12.0409 33.8554 12.0409 33.8559 12.0408C33.8564 12.0408 33.857 12.0407 33.8575 12.0407C33.858 12.0406 33.8586 12.0406 33.8591 12.0405C33.8596 12.0405 33.8602 12.0404 33.8607 12.0404C33.8612 12.0403 33.8617 12.0403 33.8623 12.0402C33.8628 12.0402 33.8633 12.0401 33.8639 12.0401C33.8644 12.04 33.8649 12.04 33.8655 12.0399C33.866 12.0399 33.8665 12.0398 33.8671 12.0398C33.8676 12.0397 33.8681 12.0397 33.8687 12.0396C33.8692 12.0396 33.8697 12.0395 33.8703 12.0395C33.8708 12.0394 33.8713 12.0394 33.8718 12.0393C33.8724 12.0393 33.8729 12.0392 33.8734 12.0392C33.874 12.0391 33.8745 12.0391 33.875 12.039C33.8756 12.039 33.8761 12.0389 33.8766 12.0389C33.8772 12.0388 33.8777 12.0388 33.8782 12.0387C33.8788 12.0387 33.8793 12.0386 33.8798 12.0386C33.8804 12.0385 33.8809 12.0385 33.8814 12.0385C33.882 12.0384 33.8825 12.0384 33.883 12.0383C33.8835 12.0383 33.8841 12.0382 33.8846 12.0382C33.8851 12.0381 33.8857 12.0381 33.8862 12.038C33.8867 12.038 33.8873 12.0379 33.8878 12.0379C33.8883 12.0378 33.8889 12.0378 33.8894 12.0377C33.8899 12.0377 33.8905 12.0376 33.891 12.0376C33.8915 12.0375 33.8921 12.0375 33.8926 12.0374C33.8931 12.0374 33.8937 12.0373 33.8942 12.0373C33.8947 12.0372 33.8952 12.0372 33.8958 12.0371C33.8963 12.0371 33.8968 12.037 33.8974 12.037C33.8979 12.0369 33.8984 12.0369 33.899 12.0368C33.8995 12.0368 33.9 12.0367 33.9006 12.0367C33.9011 12.0366 33.9016 12.0366 33.9022 12.0365C33.9027 12.0365 33.9032 12.0364 33.9038 12.0364C33.9043 12.0363 33.9048 12.0363 33.9053 12.0362C33.9059 12.0362 33.9064 12.0361 33.9069 12.0361C33.9075 12.036 33.908 12.036 33.9085 12.0359C33.9091 12.0359 33.9096 12.0358 33.9101 12.0358C33.9107 12.0357 33.9112 12.0357 33.9117 12.0356C33.9123 12.0356 33.9128 12.0355 33.9133 12.0355C33.9139 12.0354 33.9144 12.0354 33.9149 12.0353C33.9155 12.0353 33.916 12.0352 33.9165 12.0352C33.917 12.0351 33.9176 12.0351 33.9181 12.035C33.9186 12.035 33.9192 12.0349 33.9197 12.0349C33.9202 12.0348 33.9208 12.0348 33.9213 12.0347C33.9218 12.0347 33.9224 12.0346 33.9229 12.0346C33.9234 12.0345 33.924 12.0345 33.9245 12.0344C33.925 12.0344 33.9256 12.0343 33.9261 12.0343C33.9266 12.0342 33.9271 12.0342 33.9277 12.0341C33.9282 12.0341 33.9287 12.034 33.9293 12.034C33.9298 12.0339 33.9303 12.0339 33.9309 12.0338C33.9314 12.0338 33.9319 12.0337 33.9325 12.0337C33.933 12.0336 33.9335 12.0336 33.9341 12.0335C33.9346 12.0335 33.9351 12.0334 33.9357 12.0334C33.9362 12.0333 33.9367 12.0333 33.9373 12.0332C33.9378 12.0332 33.9383 12.0331 33.9388 12.0331C33.9394 12.033 33.9399 12.033 33.9404 12.0329C33.941 12.0329 33.9415 12.0328 33.942 12.0328C33.9426 12.0327 33.9431 12.0327 33.9436 12.0326C33.9442 12.0326 33.9447 12.0325 33.9452 12.0325C33.9458 12.0324 33.9463 12.0324 33.9468 12.0323C33.9474 12.0323 33.9479 12.0322 33.9484 12.0322C33.9489 12.0321 33.9495 12.0321 33.95 12.032C33.9505 12.032 33.9511 12.0319 33.9516 12.0319C33.9521 12.0318 33.9527 12.0318 33.9532 12.0317C33.9537 12.0317 33.9543 12.0316 33.9548 12.0316C33.9553 12.0315 33.9559 12.0315 33.9564 12.0314C33.9569 12.0314 33.9575 12.0313 33.958 12.0313C33.9585 12.0312 33.9591 12.0312 33.9596 12.0311C33.9601 12.0311 33.9606 12.031 33.9612 12.031C33.9617 12.0309 33.9622 12.0309 33.9628 12.0308C33.9633 12.0308 33.9638 12.0307 33.9644 12.0307C33.9649 12.0306 33.9654 12.0306 33.966 12.0305C33.9665 12.0305 33.967 12.0304 33.9676 12.0304C33.9681 12.0303 33.9686 12.0303 33.9692 12.0302C33.9697 12.0302 33.9702 12.0301 33.9707 12.0301C33.9713 12.03 33.9718 12.03 33.9723 12.0299C33.9729 12.0299 33.9734 12.0298 33.9739 12.0298C33.9745 12.0297 33.975 12.0297 33.9755 12.0296C33.9761 12.0296 33.9766 12.0295 33.9771 12.0295C33.9777 12.0294 33.9782 12.0294 33.9787 12.0293C33.9793 12.0293 33.9798 12.0292 33.9803 12.0292C33.9809 12.0291 33.9814 12.0291 33.9819 12.029C33.9824 12.029 33.983 12.0289 33.9835 12.0289C33.984 12.0288 33.9846 12.0288 33.9851 12.0287C33.9856 12.0287 33.9862 12.0286 33.9867 12.0286C33.9872 12.0285 33.9878 12.0285 33.9883 12.0284C33.9888 12.0284 33.9894 12.0283 33.9899 12.0283C33.9904 12.0282 33.991 12.0282 33.9915 12.0281C33.992 12.0281 33.9925 12.028 33.9931 12.028C33.9936 12.0279 33.9941 12.0279 33.9947 12.0278L33.9199 11.2313C33.9193 11.2314 33.9188 11.2314 33.9183 11.2315C33.9177 11.2315 33.9172 11.2316 33.9167 11.2316C33.9162 11.2317 33.9156 11.2317 33.9151 11.2318C33.9146 11.2318 33.914 11.2319 33.9135 11.2319C33.913 11.232 33.9124 11.232 33.9119 11.2321C33.9114 11.2321 33.9108 11.2322 33.9103 11.2322C33.9098 11.2323 33.9092 11.2323 33.9087 11.2324C33.9082 11.2324 33.9076 11.2325 33.9071 11.2325C33.9066 11.2326 33.906 11.2326 33.9055 11.2327C33.905 11.2327 33.9045 11.2328 33.9039 11.2328C33.9034 11.2329 33.9029 11.2329 33.9023 11.233C33.9018 11.233 33.9013 11.2331 33.9007 11.2331C33.9002 11.2332 33.8997 11.2332 33.8991 11.2333C33.8986 11.2333 33.8981 11.2334 33.8975 11.2334C33.897 11.2335 33.8965 11.2335 33.8959 11.2336C33.8954 11.2336 33.8949 11.2337 33.8944 11.2337C33.8938 11.2338 33.8933 11.2338 33.8928 11.2339C33.8922 11.2339 33.8917 11.234 33.8912 11.234C33.8906 11.2341 33.8901 11.2341 33.8896 11.2342C33.889 11.2342 33.8885 11.2343 33.888 11.2343C33.8874 11.2344 33.8869 11.2344 33.8864 11.2345C33.8858 11.2345 33.8853 11.2346 33.8848 11.2346C33.8842 11.2347 33.8837 11.2347 33.8832 11.2348C33.8827 11.2348 33.8821 11.2349 33.8816 11.2349C33.8811 11.235 33.8805 11.235 33.88 11.2351C33.8795 11.2351 33.8789 11.2352 33.8784 11.2352C33.8779 11.2353 33.8773 11.2353 33.8768 11.2354C33.8763 11.2354 33.8757 11.2355 33.8752 11.2355C33.8747 11.2356 33.8741 11.2356 33.8736 11.2357C33.8731 11.2357 33.8726 11.2358 33.872 11.2358C33.8715 11.2359 33.871 11.2359 33.8704 11.236C33.8699 11.236 33.8694 11.2361 33.8688 11.2361C33.8683 11.2362 33.8678 11.2362 33.8672 11.2363C33.8667 11.2363 33.8662 11.2364 33.8656 11.2364C33.8651 11.2365 33.8646 11.2365 33.864 11.2366C33.8635 11.2366 33.863 11.2367 33.8624 11.2367C33.8619 11.2368 33.8614 11.2368 33.8609 11.2369C33.8603 11.2369 33.8598 11.237 33.8593 11.237C33.8587 11.2371 33.8582 11.2371 33.8577 11.2372C33.8571 11.2372 33.8566 11.2373 33.8561 11.2373C33.8555 11.2374 33.855 11.2374 33.8545 11.2375C33.8539 11.2375 33.8534 11.2376 33.8529 11.2376C33.8523 11.2377 33.8518 11.2377 33.8513 11.2378C33.8508 11.2378 33.8502 11.2379 33.8497 11.2379C33.8492 11.238 33.8486 11.238 33.8481 11.2381C33.8476 11.2381 33.847 11.2382 33.8465 11.2382C33.846 11.2383 33.8454 11.2383 33.8449 11.2384C33.8444 11.2384 33.8438 11.2385 33.8433 11.2385C33.8428 11.2386 33.8422 11.2386 33.8417 11.2387C33.8412 11.2387 33.8406 11.2388 33.8401 11.2388C33.8396 11.2389 33.8391 11.2389 33.8385 11.239C33.838 11.239 33.8375 11.2391 33.8369 11.2391C33.8364 11.2392 33.8359 11.2392 33.8353 11.2393C33.8348 11.2393 33.8343 11.2394 33.8337 11.2394C33.8332 11.2395 33.8327 11.2395 33.8321 11.2396C33.8316 11.2396 33.8311 11.2397 33.8305 11.2397C33.83 11.2398 33.8295 11.2398 33.8289 11.2399C33.8284 11.2399 33.8279 11.24 33.8274 11.24C33.8268 11.2401 33.8263 11.2401 33.8258 11.2402C33.8252 11.2402 33.8247 11.2403 33.8242 11.2403C33.8236 11.2404 33.8231 11.2404 33.8226 11.2405C33.822 11.2405 33.8215 11.2406 33.821 11.2406C33.8204 11.2407 33.8199 11.2407 33.8194 11.2408C33.8188 11.2408 33.8183 11.2409 33.8178 11.2409C33.8173 11.241 33.8167 11.241 33.8162 11.2411C33.8157 11.2411 33.8151 11.2412 33.8146 11.2412C33.8141 11.2413 33.8135 11.2413 33.813 11.2414C33.8125 11.2414 33.8119 11.2415 33.8114 11.2415C33.8109 11.2416 33.8103 11.2416 33.8098 11.2417C33.8093 11.2417 33.8087 11.2418 33.8082 11.2418C33.8077 11.2419 33.8071 11.2419 33.8066 11.242C33.8061 11.242 33.8056 11.2421 33.805 11.2421C33.8045 11.2422 33.804 11.2422 33.8034 11.2423C33.8029 11.2423 33.8024 11.2424 33.8018 11.2424C33.8013 11.2425 33.8008 11.2425 33.8002 11.2426C33.7997 11.2426 33.7992 11.2427 33.7986 11.2427C33.7981 11.2428 33.7976 11.2428 33.797 11.2429C33.7965 11.2429 33.796 11.243 33.7955 11.243C33.7949 11.2431 33.7944 11.2431 33.7939 11.2432C33.7933 11.2432 33.7928 11.2433 33.7923 11.2433C33.7917 11.2434 33.7912 11.2434 33.7907 11.2435C33.7901 11.2435 33.7896 11.2436 33.7891 11.2436C33.7885 11.2437 33.788 11.2437 33.7875 11.2438C33.7869 11.2438 33.7864 11.2439 33.7859 11.2439C33.7853 11.244 33.7848 11.244 33.7843 11.2441C33.7838 11.2441 33.7832 11.2442 33.7827 11.2442C33.7822 11.2443 33.7816 11.2443 33.7811 11.2444C33.7806 11.2444 33.78 11.2445 33.7795 11.2445C33.779 11.2446 33.7784 11.2446 33.7779 11.2447C33.7774 11.2447 33.7768 11.2448 33.7763 11.2448C33.7758 11.2449 33.7752 11.2449 33.7747 11.245C33.7742 11.245 33.7737 11.2451 33.7731 11.2451C33.7726 11.2452 33.7721 11.2452 33.7715 11.2453C33.771 11.2453 33.7705 11.2454 33.7699 11.2454C33.7694 11.2455 33.7689 11.2455 33.7683 11.2456C33.7678 11.2456 33.7673 11.2457 33.7667 11.2457C33.7662 11.2457 33.7657 11.2458 33.7651 11.2458C33.7646 11.2459 33.7641 11.2459 33.7635 11.246C33.763 11.246 33.7625 11.2461 33.762 11.2461C33.7614 11.2462 33.7609 11.2462 33.7604 11.2463C33.7598 11.2463 33.7593 11.2464 33.7588 11.2464C33.7582 11.2465 33.7577 11.2465 33.7572 11.2466C33.7566 11.2466 33.7561 11.2467 33.7556 11.2467C33.755 11.2468 33.7545 11.2468 33.754 11.2469C33.7534 11.2469 33.7529 11.247 33.7524 11.247C33.7519 11.2471 33.7513 11.2471 33.7508 11.2472C33.7503 11.2472 33.7497 11.2473 33.7492 11.2473C33.7487 11.2474 33.7481 11.2474 33.7476 11.2475C33.7471 11.2475 33.7465 11.2476 33.746 11.2476C33.7455 11.2477 33.7449 11.2477 33.7444 11.2478C33.7439 11.2478 33.7433 11.2479 33.7428 11.2479C33.7423 11.248 33.7417 11.248 33.7412 11.2481C33.7407 11.2481 33.7402 11.2482 33.7396 11.2482C33.7391 11.2483 33.7386 11.2483 33.738 11.2484C33.7375 11.2484 33.737 11.2485 33.7364 11.2485C33.7359 11.2486 33.7354 11.2486 33.7348 11.2487C33.7343 11.2487 33.7338 11.2488 33.7332 11.2488C33.7327 11.2489 33.7322 11.2489 33.7316 11.249C33.7311 11.249 33.7306 11.2491 33.7301 11.2491C33.7295 11.2492 33.729 11.2492 33.7285 11.2493C33.7279 11.2493 33.7274 11.2494 33.7269 11.2494C33.7263 11.2495 33.7258 11.2495 33.7253 11.2496C33.7247 11.2496 33.7242 11.2497 33.7237 11.2497C33.7231 11.2498 33.7226 11.2498 33.7221 11.2499C33.7215 11.2499 33.721 11.25 33.7205 11.25C33.7199 11.2501 33.7194 11.2501 33.7189 11.2502C33.7184 11.2502 33.7178 11.2503 33.7173 11.2503C33.7168 11.2504 33.7162 11.2504 33.7157 11.2505C33.7152 11.2505 33.7146 11.2506 33.7141 11.2506C33.7136 11.2507 33.713 11.2507 33.7125 11.2508C33.712 11.2508 33.7114 11.2509 33.7109 11.2509C33.7104 11.251 33.7098 11.251 33.7093 11.2511C33.7088 11.2511 33.7082 11.2512 33.7077 11.2512C33.7072 11.2513 33.7067 11.2513 33.7061 11.2514C33.7056 11.2514 33.7051 11.2515 33.7045 11.2515C33.704 11.2516 33.7035 11.2516 33.7029 11.2517C33.7024 11.2517 33.7019 11.2518 33.7013 11.2518C33.7008 11.2519 33.7003 11.2519 33.6997 11.252C33.6992 11.252 33.6987 11.2521 33.6981 11.2521C33.6976 11.2522 33.6971 11.2522 33.6966 11.2523C33.696 11.2523 33.6955 11.2524 33.695 11.2524C33.6944 11.2525 33.6939 11.2525 33.6934 11.2526C33.6928 11.2526 33.6923 11.2527 33.6918 11.2527C33.6912 11.2528 33.6907 11.2528 33.6902 11.2529C33.6896 11.2529 33.6891 11.253 33.6886 11.253C33.688 11.2531 33.6875 11.2531 33.687 11.2532C33.6864 11.2532 33.6859 11.2533 33.6854 11.2533C33.6849 11.2534 33.6843 11.2534 33.6838 11.2535C33.6833 11.2535 33.6827 11.2536 33.6822 11.2536C33.6817 11.2537 33.6811 11.2537 33.6806 11.2538C33.6801 11.2538 33.6795 11.2539 33.679 11.2539C33.6785 11.254 33.6779 11.254 33.6774 11.2541C33.6769 11.2541 33.6763 11.2542 33.6758 11.2542C33.6753 11.2543 33.6748 11.2543 33.6742 11.2544C33.6737 11.2544 33.6732 11.2545 33.6726 11.2545C33.6721 11.2546 33.6716 11.2546 33.671 11.2547C33.6705 11.2547 33.67 11.2548 33.6694 11.2548C33.6689 11.2549 33.6684 11.2549 33.6678 11.255C33.6673 11.255 33.6668 11.2551 33.6662 11.2551C33.6657 11.2552 33.6652 11.2552 33.6646 11.2553C33.6641 11.2553 33.6636 11.2554 33.6631 11.2554C33.6625 11.2555 33.662 11.2555 33.6615 11.2556C33.6609 11.2556 33.6604 11.2557 33.6599 11.2557C33.6593 11.2558 33.6588 11.2558 33.6583 11.2559C33.6577 11.2559 33.6572 11.256 33.6567 11.256C33.6561 11.2561 33.6556 11.2561 33.6551 11.2562C33.6545 11.2562 33.654 11.2563 33.6535 11.2563C33.653 11.2564 33.6524 11.2564 33.6519 11.2565C33.6514 11.2565 33.6508 11.2566 33.6503 11.2566C33.6498 11.2567 33.6492 11.2567 33.6487 11.2568C33.6482 11.2568 33.6476 11.2569 33.6471 11.2569C33.6466 11.257 33.646 11.257 33.6455 11.2571C33.645 11.2571 33.6444 11.2572 33.6439 11.2572C33.6434 11.2573 33.6428 11.2573 33.6423 11.2574C33.6418 11.2574 33.6413 11.2575 33.6407 11.2575C33.6402 11.2576 33.6397 11.2576 33.6391 11.2577C33.6386 11.2577 33.6381 11.2578 33.6375 11.2578C33.637 11.2579 33.6365 11.2579 33.6359 11.258C33.6354 11.258 33.6349 11.2581 33.6343 11.2581C33.6338 11.2582 33.6333 11.2582 33.6327 11.2583C33.6322 11.2583 33.6317 11.2584 33.6312 11.2584C33.6306 11.2585 33.6301 11.2585 33.6296 11.2586C33.629 11.2586 33.6285 11.2587 33.628 11.2587C33.6274 11.2588 33.6269 11.2588 33.6264 11.2589C33.6258 11.2589 33.6253 11.259 33.6248 11.259C33.6242 11.2591 33.6237 11.2591 33.6232 11.2592C33.6226 11.2592 33.6221 11.2593 33.6216 11.2593C33.621 11.2594 33.6205 11.2594 33.62 11.2595C33.6195 11.2595 33.6189 11.2596 33.6184 11.2596C33.6179 11.2597 33.6173 11.2597 33.6168 11.2598C33.6163 11.2598 33.6157 11.2599 33.6152 11.2599C33.6147 11.26 33.6141 11.26 33.6136 11.2601C33.6131 11.2601 33.6125 11.2602 33.612 11.2602C33.6115 11.2603 33.6109 11.2603 33.6104 11.2604C33.6099 11.2604 33.6094 11.2605 33.6088 11.2605C33.6083 11.2606 33.6078 11.2606 33.6072 11.2607C33.6067 11.2607 33.6062 11.2608 33.6056 11.2608C33.6051 11.2609 33.6046 11.2609 33.604 11.261C33.6035 11.261 33.603 11.2611 33.6024 11.2611C33.6019 11.2612 33.6014 11.2612 33.6008 11.2613C33.6003 11.2613 33.5998 11.2614 33.5992 11.2614C33.5987 11.2615 33.5982 11.2615 33.5977 11.2616C33.5971 11.2616 33.5966 11.2617 33.5961 11.2617C33.5955 11.2618 33.595 11.2618 33.5945 11.2619C33.5939 11.2619 33.5934 11.262 33.5929 11.262C33.5923 11.2621 33.5918 11.2621 33.5913 11.2622C33.5907 11.2622 33.5902 11.2623 33.5897 11.2623C33.5891 11.2624 33.5886 11.2624 33.5881 11.2625C33.5875 11.2625 33.587 11.2626 33.5865 11.2626C33.586 11.2627 33.5854 11.2627 33.5849 11.2628C33.5844 11.2628 33.5838 11.2629 33.5833 11.2629C33.5828 11.263 33.5822 11.263 33.5817 11.2631C33.5812 11.2631 33.5806 11.2632 33.5801 11.2632C33.5796 11.2633 33.579 11.2633 33.5785 11.2634C33.578 11.2634 33.5774 11.2635 33.5769 11.2635C33.5764 11.2636 33.5759 11.2636 33.5753 11.2637C33.5748 11.2637 33.5743 11.2638 33.5737 11.2638C33.5732 11.2639 33.5727 11.2639 33.5721 11.264C33.5716 11.264 33.5711 11.2641 33.5705 11.2641C33.57 11.2642 33.5695 11.2642 33.5689 11.2643C33.5684 11.2643 33.5679 11.2644 33.5673 11.2644C33.5668 11.2645 33.5663 11.2645 33.5657 11.2646C33.5652 11.2646 33.5647 11.2647 33.5642 11.2647C33.5636 11.2648 33.5631 11.2648 33.5626 11.2649C33.562 11.2649 33.5615 11.265 33.561 11.265C33.5604 11.2651 33.5599 11.2651 33.5594 11.2652C33.5588 11.2652 33.5583 11.2653 33.5578 11.2653C33.5572 11.2654 33.5567 11.2654 33.5562 11.2655C33.5556 11.2655 33.5551 11.2656 33.5546 11.2656C33.5541 11.2657 33.5535 11.2657 33.553 11.2658C33.5525 11.2658 33.5519 11.2659 33.5514 11.2659C33.5509 11.266 33.5503 11.266 33.5498 11.2661C33.5493 11.2661 33.5487 11.2662 33.5482 11.2662C33.5477 11.2663 33.5471 11.2663 33.5466 11.2664C33.5461 11.2664 33.5455 11.2665 33.545 11.2665C33.5445 11.2666 33.5439 11.2666 33.5434 11.2667C33.5429 11.2667 33.5424 11.2668 33.5418 11.2668C33.5413 11.2669 33.5408 11.2669 33.5402 11.267C33.5397 11.267 33.5392 11.2671 33.5386 11.2671C33.5381 11.2672 33.5376 11.2672 33.537 11.2673C33.5365 11.2673 33.536 11.2674 33.5354 11.2674C33.5349 11.2675 33.5344 11.2675 33.5338 11.2676C33.5333 11.2676 33.5328 11.2677 33.5323 11.2677C33.5317 11.2678 33.5312 11.2678 33.5307 11.2679C33.5301 11.2679 33.5296 11.268 33.5291 11.268C33.5285 11.2681 33.528 11.2681 33.5275 11.2682C33.5269 11.2682 33.5264 11.2683 33.5259 11.2683C33.5253 11.2684 33.5248 11.2684 33.5243 11.2685C33.5237 11.2685 33.5232 11.2686 33.5227 11.2686C33.5221 11.2687 33.5216 11.2687 33.5211 11.2688C33.5206 11.2688 33.52 11.2689 33.5195 11.2689C33.519 11.269 33.5184 11.269 33.5179 11.2691C33.5174 11.2691 33.5168 11.2692 33.5163 11.2692C33.5158 11.2693 33.5152 11.2693 33.5147 11.2694C33.5142 11.2694 33.5136 11.2695 33.5131 11.2695C33.5126 11.2696 33.512 11.2696 33.5115 11.2697C33.511 11.2697 33.5105 11.2698 33.5099 11.2698C33.5094 11.2699 33.5089 11.2699 33.5083 11.27C33.5078 11.27 33.5073 11.2701 33.5067 11.2701C33.5062 11.2702 33.5057 11.2702 33.5051 11.2703C33.5046 11.2703 33.5041 11.2704 33.5035 11.2704C33.503 11.2705 33.5025 11.2705 33.5019 11.2706C33.5014 11.2706 33.5009 11.2707 33.5003 11.2707C33.4998 11.2708 33.4993 11.2708 33.4988 11.2709C33.4982 11.2709 33.4977 11.271 33.4972 11.271C33.4966 11.2711 33.4961 11.2711 33.4956 11.2712C33.495 11.2712 33.4945 11.2713 33.494 11.2713C33.4934 11.2714 33.4929 11.2714 33.4924 11.2715C33.4918 11.2715 33.4913 11.2716 33.4908 11.2716C33.4902 11.2717 33.4897 11.2717 33.4892 11.2718C33.4887 11.2718 33.4881 11.2719 33.4876 11.2719C33.4871 11.272 33.4865 11.272 33.486 11.2721C33.4855 11.2721 33.4849 11.2722 33.4844 11.2722C33.4839 11.2723 33.4833 11.2723 33.4828 11.2724C33.4823 11.2724 33.4817 11.2725 33.4812 11.2725C33.4807 11.2726 33.4801 11.2726 33.4796 11.2727C33.4791 11.2727 33.4785 11.2728 33.478 11.2728C33.4775 11.2729 33.477 11.2729 33.4764 11.273C33.4759 11.273 33.4754 11.2731 33.4748 11.2731C33.4743 11.2732 33.4738 11.2732 33.4732 11.2733C33.4727 11.2733 33.4722 11.2734 33.4716 11.2734C33.4711 11.2735 33.4706 11.2735 33.47 11.2736C33.4695 11.2736 33.469 11.2737 33.4684 11.2737C33.4679 11.2738 33.4674 11.2738 33.4668 11.2739C33.4663 11.2739 33.4658 11.274 33.4653 11.274C33.4647 11.2741 33.4642 11.2741 33.4637 11.2742C33.4631 11.2742 33.4626 11.2743 33.4621 11.2743C33.4615 11.2744 33.461 11.2744 33.4605 11.2745C33.4599 11.2745 33.4594 11.2746 33.4589 11.2746C33.4583 11.2747 33.4578 11.2747 33.4573 11.2748C33.4567 11.2748 33.4562 11.2749 33.4557 11.2749C33.4552 11.275 33.4546 11.275 33.4541 11.2751C33.4536 11.2751 33.453 11.2752 33.4525 11.2752C33.452 11.2753 33.4514 11.2753 33.4509 11.2754C33.4504 11.2754 33.4498 11.2755 33.4493 11.2755C33.4488 11.2756 33.4482 11.2756 33.4477 11.2757C33.4472 11.2757 33.4466 11.2758 33.4461 11.2758C33.4456 11.2759 33.445 11.2759 33.4445 11.276C33.444 11.276 33.4435 11.2761 33.4429 11.2761C33.4424 11.2762 33.4419 11.2762 33.4413 11.2763C33.4408 11.2763 33.4403 11.2764 33.4397 11.2764C33.4392 11.2765 33.4387 11.2765 33.4381 11.2766C33.4376 11.2766 33.4371 11.2767 33.4365 11.2767C33.436 11.2768 33.4355 11.2768 33.4349 11.2769C33.4344 11.2769 33.4339 11.277 33.4334 11.277C33.4328 11.2771 33.4323 11.2771 33.4318 11.2772C33.4312 11.2772 33.4307 11.2773 33.4302 11.2773C33.4296 11.2774 33.4291 11.2774 33.4286 11.2775C33.428 11.2775 33.4275 11.2776 33.427 11.2776C33.4264 11.2777 33.4259 11.2777 33.4254 11.2778C33.4248 11.2778 33.4243 11.2779 33.4238 11.2779C33.4232 11.278 33.4227 11.278 33.4222 11.2781C33.4217 11.2781 33.4211 11.2782 33.4206 11.2782C33.4201 11.2783 33.4195 11.2783 33.419 11.2784C33.4185 11.2784 33.4179 11.2785 33.4174 11.2785C33.4169 11.2786 33.4163 11.2786 33.4158 11.2787C33.4153 11.2787 33.4147 11.2788 33.4142 11.2788C33.4137 11.2789 33.4131 11.2789 33.4126 11.279C33.4121 11.279 33.4116 11.2791 33.411 11.2791C33.4105 11.2792 33.41 11.2792 33.4094 11.2793C33.4089 11.2793 33.4084 11.2794 33.4078 11.2794C33.4073 11.2795 33.4068 11.2795 33.4062 11.2796C33.4057 11.2796 33.4052 11.2797 33.4046 11.2797C33.4041 11.2798 33.4036 11.2798 33.403 11.2799C33.4025 11.2799 33.402 11.28 33.4014 11.28C33.4009 11.2801 33.4004 11.2801 33.3999 11.2802C33.3993 11.2802 33.3988 11.2803 33.3983 11.2803C33.3977 11.2804 33.3972 11.2804 33.3967 11.2805C33.3961 11.2805 33.3956 11.2806 33.3951 11.2806C33.3945 11.2807 33.394 11.2807 33.3935 11.2808C33.3929 11.2808 33.3924 11.2809 33.3919 11.2809C33.3913 11.281 33.3908 11.281 33.3903 11.2811C33.3898 11.2811 33.3892 11.2812 33.3887 11.2812C33.3882 11.2813 33.3876 11.2813 33.3871 11.2814C33.3866 11.2814 33.386 11.2815 33.3855 11.2815C33.385 11.2816 33.3844 11.2816 33.3839 11.2817C33.3834 11.2817 33.3828 11.2818 33.3823 11.2818C33.3818 11.2819 33.3812 11.2819 33.3807 11.282C33.3802 11.282 33.3796 11.2821 33.3791 11.2821C33.3786 11.2822 33.3781 11.2822 33.3775 11.2823C33.377 11.2823 33.3765 11.2824 33.3759 11.2824C33.3754 11.2825 33.3749 11.2825 33.3743 11.2826C33.3738 11.2826 33.3733 11.2827 33.3727 11.2827C33.3722 11.2828 33.3717 11.2828 33.3711 11.2829C33.3706 11.2829 33.3701 11.283 33.3695 11.283C33.369 11.2831 33.3685 11.2831 33.368 11.2832C33.3674 11.2832 33.3669 11.2833 33.3664 11.2833C33.3658 11.2834 33.3653 11.2834 33.3648 11.2835C33.3642 11.2835 33.3637 11.2836 33.3632 11.2836C33.3626 11.2837 33.3621 11.2837 33.3616 11.2838C33.361 11.2838 33.3605 11.2839 33.36 11.2839C33.3594 11.284 33.3589 11.284 33.3584 11.2841C33.3578 11.2841 33.3573 11.2842 33.3568 11.2842C33.3563 11.2843 33.3557 11.2843 33.3552 11.2844C33.3547 11.2844 33.3541 11.2845 33.3536 11.2845C33.3531 11.2846 33.3525 11.2846 33.352 11.2847C33.3515 11.2847 33.3509 11.2848 33.3504 11.2848C33.3499 11.2849 33.3493 11.2849 33.3488 11.2849C33.3483 11.285 33.3477 11.285 33.3472 11.2851C33.3467 11.2851 33.3461 11.2852 33.3456 11.2852C33.3451 11.2853 33.3446 11.2853 33.344 11.2854C33.3435 11.2854 33.343 11.2855 33.3424 11.2855C33.3419 11.2856 33.3414 11.2856 33.3408 11.2857C33.3403 11.2857 33.3398 11.2858 33.3392 11.2858C33.3387 11.2859 33.3382 11.2859 33.3376 11.286C33.3371 11.286 33.3366 11.2861 33.336 11.2861C33.3355 11.2862 33.335 11.2862 33.3345 11.2863C33.3339 11.2863 33.3334 11.2864 33.3329 11.2864C33.3323 11.2865 33.3318 11.2865 33.3313 11.2866C33.3307 11.2866 33.3302 11.2867 33.3297 11.2867C33.3291 11.2868 33.3286 11.2868 33.3281 11.2869C33.3275 11.2869 33.327 11.287 33.3265 11.287C33.3259 11.2871 33.3254 11.2871 33.3249 11.2872C33.3243 11.2872 33.3238 11.2873 33.3233 11.2873C33.3228 11.2874 33.3222 11.2874 33.3217 11.2875C33.3212 11.2875 33.3206 11.2876 33.3201 11.2876C33.3196 11.2877 33.319 11.2877 33.3185 11.2878C33.318 11.2878 33.3174 11.2879 33.3169 11.2879C33.3164 11.288 33.3158 11.288 33.3153 11.2881C33.3148 11.2881 33.3142 11.2882 33.3137 11.2882C33.3132 11.2883 33.3127 11.2883 33.3121 11.2884C33.3116 11.2884 33.3111 11.2885 33.3105 11.2885C33.31 11.2886 33.3095 11.2886 33.3089 11.2887C33.3084 11.2887 33.3079 11.2888 33.3073 11.2888C33.3068 11.2889 33.3063 11.2889 33.3057 11.289C33.3052 11.289 33.3047 11.2891 33.3041 11.2891C33.3036 11.2892 33.3031 11.2892 33.3025 11.2893C33.302 11.2893 33.3015 11.2894 33.301 11.2894C33.3004 11.2895 33.2999 11.2895 33.2994 11.2896C33.2988 11.2896 33.2983 11.2897 33.2978 11.2897C33.2972 11.2898 33.2967 11.2898 33.2962 11.2899C33.2956 11.2899 33.2951 11.29 33.2946 11.29C33.294 11.2901 33.2935 11.2901 33.293 11.2902C33.2924 11.2902 33.2919 11.2903 33.2914 11.2903C33.2909 11.2904 33.2903 11.2904 33.2898 11.2905C33.2893 11.2905 33.2887 11.2906 33.2882 11.2906C33.2877 11.2907 33.2871 11.2907 33.2866 11.2908C33.2861 11.2908 33.2855 11.2909 33.285 11.2909C33.2845 11.291 33.2839 11.291 33.2834 11.2911C33.2829 11.2911 33.2823 11.2912 33.2818 11.2912C33.2813 11.2913 33.2807 11.2913 33.2802 11.2914C33.2797 11.2914 33.2792 11.2915 33.2786 11.2915C33.2781 11.2916 33.2776 11.2916 33.277 11.2917C33.2765 11.2917 33.276 11.2918 33.2754 11.2918C33.2749 11.2919 33.2744 11.2919 33.2738 11.292C33.2733 11.292 33.2728 11.2921 33.2722 11.2921C33.2717 11.2922 33.2712 11.2922 33.2706 11.2923C33.2701 11.2923 33.2696 11.2924 33.2691 11.2924C33.2685 11.2925 33.268 11.2925 33.2675 11.2926C33.2669 11.2926 33.2664 11.2927 33.2659 11.2927C33.2653 11.2928 33.2648 11.2928 33.2643 11.2929C33.2637 11.2929 33.2632 11.293 33.2627 11.293C33.2621 11.2931 33.2616 11.2931 33.2611 11.2932C33.2605 11.2932 33.26 11.2933 33.2595 11.2933C33.2589 11.2934 33.2584 11.2934 33.2579 11.2935C33.2574 11.2935 33.2568 11.2936 33.2563 11.2936C33.2558 11.2937 33.2552 11.2937 33.2547 11.2938C33.2542 11.2938 33.2536 11.2939 33.2531 11.2939C33.2526 11.294 33.252 11.294 33.2515 11.2941C33.251 11.2941 33.2504 11.2942 33.2499 11.2942C33.2494 11.2943 33.2488 11.2943 33.2483 11.2944C33.2478 11.2944 33.2473 11.2945 33.2467 11.2945C33.2462 11.2946 33.2457 11.2946 33.2451 11.2947C33.2446 11.2947 33.2441 11.2948 33.2435 11.2948C33.243 11.2949 33.2425 11.2949 33.2419 11.295C33.2414 11.295 33.2409 11.2951 33.2403 11.2951C33.2398 11.2952 33.2393 11.2952 33.2387 11.2953C33.2382 11.2953 33.2377 11.2954 33.2371 11.2954C33.2366 11.2955 33.2361 11.2955 33.2356 11.2956C33.235 11.2956 33.2345 11.2957 33.234 11.2957C33.2334 11.2958 33.2329 11.2958 33.2324 11.2959C33.2318 11.2959 33.2313 11.296 33.2308 11.296C33.2302 11.2961 33.2297 11.2961 33.2292 11.2962C33.2286 11.2962 33.2281 11.2963 33.2276 11.2963C33.227 11.2964 33.2265 11.2964 33.226 11.2965C33.2255 11.2965 33.2249 11.2966 33.2244 11.2966C33.2239 11.2967 33.2233 11.2967 33.2228 11.2968C33.2223 11.2968 33.2217 11.2969 33.2212 11.2969C33.2207 11.297 33.2201 11.297 33.2196 11.2971C33.2191 11.2971 33.2185 11.2972 33.218 11.2972C33.2175 11.2973 33.2169 11.2973 33.2164 11.2974C33.2159 11.2974 33.2153 11.2975 33.2148 11.2975C33.2143 11.2976 33.2138 11.2976 33.2132 11.2977C33.2127 11.2977 33.2122 11.2978 33.2116 11.2978C33.2111 11.2979 33.2106 11.2979 33.21 11.298C33.2095 11.298 33.209 11.2981 33.2084 11.2981C33.2079 11.2982 33.2074 11.2982 33.2068 11.2983C33.2063 11.2983 33.2058 11.2984 33.2052 11.2984C33.2047 11.2985 33.2042 11.2985 33.2036 11.2986C33.2031 11.2986 33.2026 11.2987 33.2021 11.2987C33.2015 11.2988 33.201 11.2988 33.2005 11.2989C33.1999 11.2989 33.1994 11.299 33.1989 11.299C33.1983 11.2991 33.1978 11.2991 33.1973 11.2992C33.1967 11.2992 33.1962 11.2993 33.1957 11.2993C33.1951 11.2994 33.1946 11.2994 33.1941 11.2995C33.1935 11.2995 33.193 11.2996 33.1925 11.2996C33.192 11.2997 33.1914 11.2997 33.1909 11.2998C33.1904 11.2998 33.1898 11.2999 33.1893 11.2999C33.1888 11.3 33.1882 11.3 33.1877 11.3001C33.1872 11.3001 33.1866 11.3002 33.1861 11.3002C33.1856 11.3003 33.185 11.3003 33.1845 11.3004C33.184 11.3004 33.1834 11.3005 33.1829 11.3005C33.1824 11.3006 33.1818 11.3006 33.1813 11.3007C33.1808 11.3007 33.1803 11.3008 33.1797 11.3008C33.1792 11.3009 33.1787 11.3009 33.1781 11.301C33.1776 11.301 33.1771 11.3011 33.1765 11.3011C33.176 11.3012 33.1755 11.3012 33.1749 11.3013C33.1744 11.3013 33.1739 11.3014 33.1733 11.3014C33.1728 11.3015 33.1723 11.3015 33.1717 11.3016C33.1712 11.3016 33.1707 11.3017 33.1702 11.3017C33.1696 11.3018 33.1691 11.3018 33.1686 11.3019C33.168 11.3019 33.1675 11.302 33.167 11.302C33.1664 11.3021 33.1659 11.3021 33.1654 11.3022C33.1648 11.3022 33.1643 11.3023 33.1638 11.3023C33.1632 11.3024 33.1627 11.3024 33.1622 11.3025C33.1616 11.3025 33.1611 11.3026 33.1606 11.3026C33.16 11.3027 33.1595 11.3027 33.159 11.3028C33.1585 11.3028 33.1579 11.3029 33.1574 11.3029C33.1569 11.303 33.1563 11.303 33.1558 11.3031C33.1553 11.3031 33.1547 11.3032 33.1542 11.3032C33.1537 11.3033 33.1531 11.3033 33.1526 11.3034C33.1521 11.3034 33.1515 11.3035 33.151 11.3035C33.1505 11.3036 33.1499 11.3036 33.1494 11.3037C33.1489 11.3037 33.1484 11.3038 33.1478 11.3038C33.1473 11.3039 33.1468 11.3039 33.1462 11.304C33.1457 11.304 33.1452 11.3041 33.1446 11.3041C33.1441 11.3042 33.1436 11.3042 33.143 11.3043C33.1425 11.3043 33.142 11.3044 33.1414 11.3044C33.1409 11.3045 33.1404 11.3045 33.1398 11.3046C33.1393 11.3046 33.1388 11.3047 33.1382 11.3047C33.1377 11.3048 33.1372 11.3048 33.1367 11.3049C33.1361 11.3049 33.1356 11.305 33.1351 11.305C33.1345 11.3051 33.134 11.3051 33.1335 11.3052C33.1329 11.3052 33.1324 11.3053 33.1319 11.3053C33.1313 11.3054 33.1308 11.3054 33.1303 11.3055C33.1297 11.3055 33.1292 11.3056 33.1287 11.3056C33.1281 11.3057 33.1276 11.3057 33.1271 11.3058C33.1266 11.3058 33.126 11.3059 33.1255 11.3059C33.125 11.306 33.1244 11.306 33.1239 11.3061C33.1234 11.3061 33.1228 11.3062 33.1223 11.3062C33.1218 11.3063 33.1212 11.3063 33.1207 11.3064C33.1202 11.3064 33.1196 11.3065 33.1191 11.3065C33.1186 11.3066 33.118 11.3066 33.1175 11.3067C33.117 11.3067 33.1164 11.3068 33.1159 11.3068C33.1154 11.3069 33.1149 11.3069 33.1143 11.307C33.1138 11.307 33.1133 11.3071 33.1127 11.3071C33.1122 11.3072 33.1117 11.3072 33.1111 11.3073C33.1106 11.3073 33.1101 11.3074 33.1095 11.3074C33.109 11.3075 33.1085 11.3075 33.1079 11.3076C33.1074 11.3076 33.1069 11.3077 33.1063 11.3077C33.1058 11.3078 33.1053 11.3078 33.1048 11.3079C33.1042 11.3079 33.1037 11.308 33.1032 11.308L33.178 12.1045ZM33.9947 12.0278C35.8161 11.8568 37.2577 11.8309 38.3296 11.9425L38.4124 11.1468C37.2655 11.0273 35.7646 11.0581 33.9199 11.2313L33.9947 12.0278ZM38.3285 11.9424C38.9618 12.0101 39.4705 12.0791 39.8578 12.149C40.256 12.2208 40.4924 12.2881 40.604 12.3403L40.9433 11.6159C40.7293 11.5156 40.4025 11.4344 39.9998 11.3617C39.5862 11.2871 39.0564 11.2156 38.4135 11.1469L38.3285 11.9424ZM40.6204 12.3476C40.874 12.4528 41.0826 12.618 41.2509 12.8511L41.8995 12.3827C41.6468 12.0328 41.321 11.7722 40.9269 11.6086L40.6204 12.3476ZM41.2682 12.8733C41.4832 13.1308 41.5141 13.2634 41.5139 13.2967L42.3139 13.3016C42.3159 12.9686 42.1209 12.6463 41.8821 12.3605L41.2682 12.8733ZM41.5156 13.3366C41.5236 13.421 41.5078 13.4865 41.4729 13.5465L42.1645 13.9486C42.2872 13.7375 42.3349 13.504 42.3121 13.2618L41.5156 13.3366ZM41.4729 13.5465C41.4964 13.506 41.5224 13.506 41.4883 13.5172C41.4501 13.5298 41.3734 13.5431 41.2419 13.54L41.2231 14.3398C41.4035 14.344 41.5805 14.329 41.7377 14.2773C41.899 14.2244 42.0621 14.1246 42.1645 13.9486L41.4729 13.5465ZM41.2969 13.5451C40.8747 13.4763 40.3482 13.3805 39.7163 13.2574L39.5634 14.0427C40.1998 14.1667 40.735 14.2641 41.1682 14.3347L41.2969 13.5451ZM39.7303 13.2604C39.0726 13.1077 38.2548 13.0339 37.2858 13.0318L37.284 13.8318C38.2196 13.8339 38.9718 13.9056 39.5494 14.0397L39.7303 13.2604ZM37.2943 13.0319C36.3389 13.0095 35.5069 13.067 34.8041 13.2104L34.9641 13.9943C35.5907 13.8664 36.3592 13.8102 37.2755 13.8317L37.2943 13.0319ZM34.792 24.2225C34.4483 24.1239 34.1691 23.9277 33.9462 23.6203L33.2985 24.0899C33.6225 24.5366 34.0496 24.8418 34.5714 24.9915L34.792 24.2225ZM33.9582 23.6377C33.7215 23.2721 33.6795 23.0399 33.7019 22.9075L32.913 22.7745C32.8413 23.2002 33.0093 23.644 33.2866 24.0724L33.9582 23.6377ZM33.7019 22.9075C33.704 22.8948 33.7059 22.8971 33.7007 22.9038C33.6958 22.9102 33.6952 22.9068 33.7121 22.8987C33.7551 22.8782 33.8618 22.8517 34.0724 22.8641L34.1196 22.0655C33.8515 22.0497 33.5875 22.0718 33.3676 22.1766C33.1226 22.2935 32.9589 22.5021 32.913 22.7745L33.7019 22.9075ZM34.0626 22.8634C35.3319 22.9698 36.6935 22.9254 38.1462 22.7331L38.0412 21.94C36.6366 22.126 35.3331 22.1671 34.1294 22.0662L34.0626 22.8634ZM38.146 22.7331C39.6029 22.541 40.7481 22.3039 41.5666 22.0157L41.3008 21.2611C40.5597 21.5221 39.4782 21.7505 38.0414 21.94L38.146 22.7331ZM41.5725 22.0136C42.3683 21.7192 42.9485 21.5103 43.3156 21.3856L43.0584 20.6281C42.6804 20.7565 42.0917 20.9686 41.295 21.2632L41.5725 22.0136ZM43.3279 21.3812C43.7132 21.2362 43.9999 21.1403 44.1945 21.0888L43.9898 20.3155C43.7557 20.3774 43.439 20.4847 43.0462 20.6325L43.3279 21.3812ZM43.8141 20.9897C44.0053 21.1745 43.994 21.2681 43.9868 21.299L44.7661 21.48C44.8632 21.0617 44.6624 20.697 44.3702 20.4146L43.8141 20.9897ZM43.9868 21.299C43.9479 21.4667 43.8734 21.6275 43.7578 21.7831L44.3998 22.2603C44.5768 22.0222 44.7007 21.7615 44.7661 21.48L43.9868 21.299ZM43.7444 21.8021C43.6608 21.9295 43.4535 22.1284 43.0651 22.3988L43.5222 23.0554C43.9243 22.7754 44.2405 22.5041 44.4131 22.2412L43.7444 21.8021ZM43.0588 22.4032C42.7338 22.6389 42.064 22.947 41 23.3217L41.2657 24.0763C42.3285 23.702 43.0993 23.3621 43.5284 23.0509L43.0588 22.4032ZM40.9985 23.3222C39.9783 23.6861 38.968 23.9321 37.967 24.0617L38.0697 24.8551C39.1309 24.7177 40.1969 24.4575 41.2672 24.0758L40.9985 23.3222ZM37.9668 24.0617C36.9779 24.1903 35.8869 24.2393 34.6925 24.2071L34.6709 25.0068C35.8995 25.04 37.0329 24.9899 38.0699 24.855L37.9668 24.0617ZM57.6854 13.9602L57.3569 13.7319L56.7541 14.5995L57.7803 14.3487L57.6854 13.9602ZM59.9603 13.9113L59.9096 14.3081L59.9129 14.3085L59.9603 13.9113ZM62.1002 15.0561L61.7788 15.2943L61.7834 15.3004L62.1002 15.0561ZM62.5246 19.5753L62.1494 19.4366L62.1482 19.4399L62.5246 19.5753ZM61.0822 22.3473L60.7518 22.1217L60.749 22.126L61.0822 22.3473ZM58.6034 24.6124L58.4059 24.2646L58.3891 24.2741L58.3734 24.2852L58.6034 24.6124ZM56.1481 24.7881L55.8626 25.0682L56.1481 24.7881ZM55.9633 23.4048L55.7756 23.0515L55.7571 23.0614L55.7398 23.0731L55.9633 23.4048ZM56.6507 23.1205L56.628 22.7211L56.5782 22.724L56.5307 22.7389L56.6507 23.1205ZM61.2516 17.7174L61.6451 17.7892L61.6456 17.7861L61.2516 17.7174ZM60.7927 15.7556L60.9967 15.4115L60.9778 15.4004L60.9578 15.3913L60.7927 15.7556ZM59.5395 15.5712L59.5256 15.9712L59.5383 15.9712L59.5395 15.5712ZM57.6168 15.8616L57.502 15.4785L57.5001 15.479L57.6168 15.8616ZM55.6152 17.0658L55.7766 17.4318L55.8375 17.4049L55.8865 17.3597L55.6152 17.0658ZM54.9864 17.0974L54.8784 17.4825L54.8955 17.4873L54.913 17.4906L54.9864 17.0974ZM54.2675 16.7529L54.026 17.0718L54.0335 17.0775L54.0413 17.0828L54.2675 16.7529ZM53.8327 16.217L53.4394 16.2903L53.4434 16.3113L53.4495 16.3318L53.8327 16.217ZM54.5199 15.0539L54.8236 15.3143L54.8279 15.3091L54.5199 15.0539ZM56.6574 12.0793L56.3206 11.8635L56.3182 11.8673L56.6574 12.0793ZM58.8576 7.7256L59.253 7.7859L59.2977 7.49292L59.0304 7.36486L58.8576 7.7256ZM55.0234 8.71737L54.8416 8.36106L54.8079 8.37825L54.778 8.40146L55.0234 8.71737ZM54.3164 9.08586L54.1835 8.70853L54.1777 8.7107L54.3164 9.08586ZM53.5635 8.96432L53.3083 9.27238L53.315 9.27792L53.322 9.28317L53.5635 8.96432ZM53.0317 8.27274L53.3976 8.11132L53.3862 8.08531L53.3711 8.06119L53.0317 8.27274ZM53.0154 7.80738L52.6334 7.68873L52.6307 7.69752L52.6284 7.70643L53.0154 7.80738ZM53.5709 7.28832L53.7191 7.65983L53.7351 7.65345L53.7505 7.64572L53.5709 7.28832ZM55.7938 6.39296L55.6892 6.00686L55.6824 6.00872L55.6756 6.01082L55.7938 6.39296ZM58.152 6.06163L58.1525 5.66151L58.1431 5.66173L58.152 6.06163ZM60.0162 6.90272L59.7108 7.16115L59.7146 7.16553L60.0162 6.90272ZM60.4402 8.78539L60.8229 8.90181L60.8249 8.89493L60.8268 8.88797L60.4402 8.78539ZM57.7803 14.3487C58.3247 14.2157 59.0297 14.1956 59.9096 14.3081L60.0111 13.5145C59.0748 13.3948 58.2632 13.4072 57.5905 13.5716L57.7803 14.3487ZM59.9129 14.3085C60.7687 14.4106 61.3737 14.7477 61.7788 15.2943L62.4215 14.8179C61.8623 14.0635 61.0406 13.6374 60.0077 13.5141L59.9129 14.3085ZM61.7834 15.3004C62.2448 15.8986 62.4938 16.5067 62.5522 17.1284L63.3487 17.0536C63.2741 16.2595 62.9563 15.5111 62.4169 14.8118L61.7834 15.3004ZM62.5522 17.1284C62.6112 17.7568 62.4871 18.5224 62.1494 19.4366L62.8998 19.7139C63.2628 18.7314 63.4226 17.8407 63.3487 17.0536L62.5522 17.1284ZM62.1482 19.4399C61.8271 20.3328 61.3628 21.2267 60.7518 22.1218L61.4125 22.5728C62.0569 21.6288 62.5543 20.6748 62.901 19.7106L62.1482 19.4399ZM60.749 22.126C60.1771 22.987 59.3992 23.7005 58.4059 24.2646L58.8009 24.9602C59.8935 24.3398 60.7681 23.5431 61.4154 22.5686L60.749 22.126ZM58.3734 24.2852C58.0299 24.5267 57.7561 24.667 57.5469 24.7296L57.7765 25.496C58.1016 25.3986 58.4556 25.2053 58.8335 24.9396L58.3734 24.2852ZM57.5469 24.7296C57.3174 24.7984 57.1113 24.8233 56.9256 24.8123L56.8784 25.6109C57.1714 25.6282 57.4717 25.5873 57.7765 25.496L57.5469 24.7296ZM56.9256 24.8123C56.8284 24.8066 56.6651 24.7438 56.4336 24.5079L55.8626 25.0682C56.1576 25.3688 56.4969 25.5884 56.8784 25.6109L56.9256 24.8123ZM56.4336 24.5079C56.2109 24.2809 56.1275 24.0917 56.1132 23.94L55.3167 24.0148C55.3536 24.4075 55.559 24.7588 55.8626 25.0682L56.4336 24.5079ZM56.1132 23.94C56.1011 23.8107 56.1353 23.7712 56.1868 23.7365L55.7398 23.0731C55.4125 23.2936 55.2811 23.6358 55.3167 24.0148L56.1132 23.94ZM56.151 23.758C56.3366 23.6594 56.5428 23.5738 56.7707 23.5021L56.5307 22.7389C56.2606 22.8239 56.0086 22.9277 55.7756 23.0515L56.151 23.758ZM56.6733 23.5199C57.2578 23.4867 57.8728 23.2438 58.5105 22.8362L58.0797 22.1621C57.5083 22.5273 57.027 22.6985 56.628 22.7211L56.6733 23.5199ZM58.5105 22.8362C59.1969 22.3975 59.8529 21.5856 60.4926 20.4638L59.7977 20.0675C59.1798 21.151 58.6023 21.8281 58.0797 22.1621L58.5105 22.8362ZM60.4926 20.4638C61.1248 19.3552 61.5233 18.4561 61.6451 17.7892L60.8581 17.6456C60.7622 18.1709 60.4231 18.9707 59.7977 20.0675L60.4926 20.4638ZM61.6456 17.7861C61.7544 17.1623 61.7761 16.625 61.6397 16.2378L60.8851 16.5035C60.9485 16.6834 60.9629 17.044 60.8575 17.6487L61.6456 17.7861ZM61.6397 16.2378C61.5155 15.8852 61.3069 15.5955 60.9967 15.4115L60.5887 16.0997C60.705 16.1687 60.8095 16.2889 60.8851 16.5035L61.6397 16.2378ZM60.9578 15.3913C60.6101 15.2337 60.1219 15.1729 59.5406 15.1712L59.5383 15.9712C60.0925 15.9728 60.4398 16.0349 60.6276 16.12L60.9578 15.3913ZM59.5533 15.1715C58.9294 15.1498 58.244 15.2562 57.502 15.4785L57.7316 16.2448C58.4142 16.0403 59.0106 15.9531 59.5256 15.971L59.5533 15.1715ZM57.5001 15.479C56.738 15.7114 56.0195 16.1481 55.3438 16.7719L55.8865 17.3597C56.4913 16.8013 57.1073 16.4352 57.7335 16.2442L57.5001 15.479ZM55.4537 16.6998C55.399 16.7239 55.2811 16.7455 55.0599 16.7042L54.913 17.4906C55.2136 17.5467 55.5148 17.5472 55.7766 17.4318L55.4537 16.6998ZM55.0945 16.7122C54.897 16.6568 54.6968 16.5623 54.4937 16.423L54.0413 17.0828C54.3079 17.2656 54.587 17.4007 54.8784 17.4825L55.0945 16.7122ZM54.509 16.4341C54.3029 16.2779 54.2342 16.1634 54.2158 16.1022L53.4495 16.3318C53.5379 16.6268 53.759 16.8696 54.026 17.0718L54.509 16.4341ZM54.2259 16.1437C54.2338 16.1863 54.2217 16.198 54.2349 16.1577C54.2468 16.1214 54.2725 16.0636 54.3212 15.9813C54.4185 15.8166 54.5824 15.5956 54.8236 15.3143L54.2162 14.7936C53.9623 15.0897 53.7642 15.3513 53.6324 15.5743C53.5665 15.6858 53.5109 15.7982 53.4748 15.9083C53.44 16.0143 53.4131 16.1488 53.4394 16.2903L54.2259 16.1437ZM54.8279 15.3091C55.5964 14.3813 56.3192 13.3752 56.9966 12.2913L56.3182 11.8673C55.6585 12.923 54.9563 13.9 54.2118 14.7988L54.8279 15.3091ZM56.9942 12.2951C57.684 11.2187 58.2129 10.3247 58.5772 9.61608L57.8658 9.25029C57.5179 9.92681 57.0041 10.7969 56.3206 11.8635L56.9942 12.2951ZM58.5772 9.61608C58.9409 8.90872 59.1754 8.29458 59.253 7.7859L58.4622 7.6653C58.4037 8.04824 58.2142 8.57249 57.8658 9.25029L58.5772 9.61608ZM59.0304 7.36486C58.8647 7.28549 58.6634 7.25331 58.4598 7.24205C58.2489 7.23039 57.9994 7.23965 57.7159 7.26628L57.7907 8.06277C58.0516 8.03827 58.2584 8.03214 58.4156 8.04083C58.5801 8.04993 58.6587 8.07386 58.6848 8.08634L59.0304 7.36486ZM57.7159 7.26628C57.0852 7.3255 56.1116 7.71306 54.8416 8.36106L55.2051 9.07367C56.486 8.42015 57.3324 8.10582 57.7907 8.06277L57.7159 7.26628ZM54.778 8.40146C54.6319 8.51496 54.4368 8.61938 54.1836 8.70857L54.4493 9.46315C54.7632 9.3526 55.0394 9.21136 55.2687 9.03327L54.778 8.40146ZM54.1777 8.7107C54.0477 8.75879 53.9391 8.74705 53.805 8.64548L53.322 9.28317C53.661 9.53998 54.0544 9.60926 54.4552 9.46102L54.1777 8.7107ZM53.8187 8.65627C53.6246 8.49558 53.4871 8.31411 53.3976 8.11132L52.6657 8.43416C52.8089 8.75881 53.0259 9.03839 53.3083 9.27238L53.8187 8.65627ZM53.3711 8.06119C53.3845 8.08272 53.3798 8.09069 53.3788 8.06461C53.3779 8.03719 53.3819 7.98704 53.4025 7.90833L52.6284 7.70643C52.5661 7.94524 52.5386 8.2379 52.6922 8.4843L53.3711 8.06119ZM53.3974 7.92603C53.4201 7.85301 53.488 7.75207 53.7191 7.65983L53.4226 6.91681C53.0537 7.06402 52.7513 7.30912 52.6334 7.68873L53.3974 7.92603ZM53.7505 7.64572C54.4476 7.29536 55.168 7.00519 55.912 6.7751L55.6756 6.01082C54.8893 6.254 54.1278 6.56074 53.3913 6.93092L53.7505 7.64572ZM55.8983 6.77906C56.3937 6.64495 56.9024 6.55328 57.4246 6.50424L57.3498 5.70774C56.7831 5.76097 56.2295 5.86061 55.6892 6.00686L55.8983 6.77906ZM57.4246 6.50424C57.6692 6.48127 57.9146 6.46703 58.161 6.46153L58.1431 5.66173C57.8778 5.66765 57.6134 5.68299 57.3498 5.70774L57.4246 6.50424ZM58.1515 6.46163C58.8097 6.46249 59.3172 6.69596 59.7108 7.16112L60.3215 6.64433C59.7678 5.99004 59.0325 5.66278 58.1525 5.66163L58.1515 6.46163ZM59.7146 7.16553C60.0965 7.60371 60.2099 8.09339 60.0535 8.68281L60.8268 8.88797C61.049 8.05032 60.8798 7.28489 60.3177 6.63992L59.7146 7.16553ZM60.0575 8.66897C59.7159 9.7918 59.2916 10.7512 58.7884 11.5522L59.4658 11.9778C60.0138 11.1054 60.4649 10.0784 60.8229 8.90181L60.0575 8.66897ZM58.7884 11.5522C58.2651 12.3851 57.788 13.1114 57.3569 13.7319L58.0139 14.1884C58.4538 13.5553 58.9378 12.8182 59.4658 11.9778L58.7884 11.5522ZM78.8431 9.39152L79.1974 9.57721L79.4053 9.18054L78.9877 9.01859L78.8431 9.39152ZM73.5057 11.0463L73.6837 11.4048L73.6953 11.3985L73.5057 11.0463ZM72.4874 11.6088L72.2655 11.2757L72.2544 11.2836L72.4874 11.6088ZM71.7456 11.8982L71.783 12.2964L71.7954 12.2953L71.8078 12.2933L71.7456 11.8982ZM70.8012 11.4925L70.5377 11.7937L70.546 11.8006L70.8012 11.4925ZM70.1775 10.6997L69.7832 10.7675L69.7862 10.785L69.7908 10.8021L70.1775 10.6997ZM70.4504 10.0973L70.2843 9.73347L70.2447 9.75156L70.2099 9.77776L70.4504 10.0973ZM78.887 7.51984L78.818 7.12583L78.8144 7.1265L78.887 7.51984ZM79.9794 7.74682L79.7241 8.05505L79.7351 8.06348L79.9794 7.74682ZM80.7716 8.57873L80.4456 8.8107L80.4513 8.81831L80.7716 8.57873ZM80.9658 9.76892L81.3179 9.9587L81.3456 9.90738L81.3574 9.85029L80.9658 9.76892ZM78.0026 14.771L77.646 14.5898L78.0026 14.771ZM76.7158 17.446L76.3452 17.2955L76.7158 17.446ZM77.9719 19.4153L77.818 19.7846L77.8249 19.7874L77.8318 19.79L77.9719 19.4153ZM80.4604 19.5936L80.5102 19.1967L80.4526 19.1895L80.3953 19.1989L80.4604 19.5936ZM80.8917 19.8003L80.6137 20.0878L80.6247 20.0985L80.6366 20.1083L80.8917 19.8003ZM81.1555 20.2698L80.7623 20.3431L80.763 20.3467L81.1555 20.2698ZM81.0757 20.8815L80.7027 20.7369L80.6978 20.7497L80.6937 20.7629L81.0757 20.8815ZM80.6044 21.4202L80.4132 21.0688L80.3528 21.1017L80.3068 21.1529L80.6044 21.4202ZM79.501 21.6611L79.5614 21.2654L79.5479 21.2639L79.501 21.6611ZM77.9875 21.3364L78.1082 20.9549L78.1007 20.9527L77.9875 21.3364ZM75.1601 19.597L74.8517 19.852L74.8588 19.8601L75.1601 19.597ZM74.5159 18.5864L74.1327 18.7012L74.1344 18.7064L74.5159 18.5864ZM74.742 17.192L74.3828 17.0161L74.3722 17.0377L74.3642 17.0604L74.742 17.192ZM77.0902 12.6596L77.4405 12.8527L77.4417 12.8505L77.0902 12.6596ZM83.453 7.00864L83.8375 7.11893L83.883 6.96018L83.8033 6.81555L83.453 7.00864ZM82.9775 7.79482L83.1184 8.16919L83.1339 8.16338L83.1488 8.15631L82.9775 7.79482ZM82.4126 7.62816L82.6971 7.34703L82.6743 7.32392L82.648 7.3048L82.4126 7.62816ZM81.5336 6.74947L81.187 6.94906L81.1981 6.96843L81.2114 6.98644L81.5336 6.74947ZM80.5626 4.89071L80.9245 4.72027L80.9145 4.69906L80.9021 4.67916L80.5626 4.89071ZM80.5922 4.03654L80.3161 3.74714L80.2991 3.76333L80.2842 3.78139L80.5922 4.03654ZM82.0437 4.28473L82.4028 4.10852L82.39 4.08252L82.3736 4.05863L82.0437 4.28473ZM85.1773 5.7756L85.5648 5.67655L85.5602 5.65835L85.5538 5.64067L85.1773 5.7756ZM84.5746 3.74493L84.9655 3.65988L84.9602 3.63555L84.9519 3.61206L84.5746 3.74493ZM84.7455 2.93243L84.5339 2.59295L84.5156 2.60435L84.4987 2.61765L84.7455 2.93243ZM85.8328 3.10495L86.1403 2.8492L86.0908 2.78962L86.0226 2.75285L85.8328 3.10495ZM86.4455 4.36568L86.0594 4.47021L86.0601 4.47251L86.4455 4.36568ZM86.6313 6.05101L87.0267 6.11132L87.0306 6.086L87.0312 6.0604L86.6313 6.05101ZM86.1898 6.61429L86.0698 6.23267L86.0638 6.23465L86.1898 6.61429ZM78.9877 9.01859C78.6277 8.87894 78.2372 8.87678 77.8354 8.97946L78.0335 9.75454C78.3112 9.68356 78.5264 9.69774 78.6984 9.76445L78.9877 9.01859ZM77.8354 8.97946C77.4727 9.07218 76.7434 9.32031 75.6679 9.71307L75.9424 10.4645C77.0266 10.0686 77.7168 9.83549 78.0335 9.75454L77.8354 8.97946ZM75.6679 9.71307C74.5865 10.108 73.7965 10.4354 73.3161 10.6941L73.6953 11.3985C74.1211 11.1692 74.8641 10.8583 75.9424 10.4645L75.6679 9.71307ZM73.3278 10.688C72.8686 10.916 72.5111 11.1124 72.2657 11.2759L72.7092 11.9417C72.9118 11.8068 73.2331 11.6282 73.6836 11.4046L73.3278 10.688ZM72.2544 11.2836C72.1066 11.3896 71.92 11.4658 71.6834 11.503L71.8078 12.2933C72.1486 12.2397 72.4565 12.123 72.7204 11.934L72.2544 11.2836ZM71.7082 11.4999C71.5949 11.5106 71.3854 11.4571 71.0563 11.1845L70.546 11.8006C70.9317 12.12 71.3518 12.3369 71.783 12.2964L71.7082 11.4999ZM71.0646 11.1915C70.7104 10.8816 70.5875 10.6858 70.5641 10.5973L69.7908 10.8021C69.8809 11.1424 70.1738 11.4751 70.5378 11.7936L71.0646 11.1915ZM70.5717 10.6319C70.564 10.5872 70.57 10.5603 70.5798 10.5386C70.5913 10.5132 70.6196 10.4706 70.691 10.4169L70.2099 9.77776C70.0589 9.89138 69.9306 10.0329 69.8511 10.2083C69.77 10.3874 69.7506 10.578 69.7832 10.7675L70.5717 10.6319ZM70.6166 10.4612C71.3982 10.1042 72.7323 9.63543 74.6354 9.05419L74.4017 8.28908C72.4958 8.87118 71.1178 9.35282 70.2843 9.73347L70.6166 10.4612ZM74.6354 9.05419C76.5362 8.47366 77.9748 8.09514 78.9597 7.91319L78.8144 7.1265C77.7836 7.31694 76.3099 7.70629 74.4017 8.28908L74.6354 9.05419ZM78.9561 7.91384C79.3242 7.84933 79.5597 7.91854 79.7243 8.05487L80.2346 7.43877C79.8433 7.11464 79.3505 7.03253 78.818 7.12585L78.9561 7.91384ZM79.7351 8.06348C79.9978 8.26629 80.235 8.51442 80.4457 8.81064L81.0976 8.34683C80.8443 7.99087 80.5532 7.68439 80.2238 7.43016L79.7351 8.06348ZM80.4513 8.81831C80.5943 9.00945 80.6589 9.27963 80.5742 9.68754L81.3574 9.85029C81.4744 9.28717 81.4096 8.76389 81.092 8.33915L80.4513 8.81831ZM80.6137 9.57913C80.3106 10.1414 79.9133 10.7801 79.4194 11.4962L80.078 11.9504C80.5832 11.2178 80.9973 10.5536 81.3179 9.9587L80.6137 9.57913ZM79.4194 11.4962C78.9053 12.2417 78.314 13.2754 77.646 14.5898L78.3592 14.9523C79.0202 13.6517 79.593 12.6537 80.078 11.9504L79.4194 11.4962ZM77.646 14.5898C76.9825 15.8953 76.5459 16.8015 76.3452 17.2955L77.0864 17.5966C77.2724 17.1387 77.6936 16.2617 78.3592 14.9523L77.646 14.5898ZM76.3452 17.2955C76.1243 17.8393 76.0944 18.3842 76.4172 18.8313L77.0658 18.363C76.9677 18.227 76.9206 18.0046 77.0864 17.5966L76.3452 17.2955ZM76.4172 18.8313C76.6939 19.2145 77.1888 19.5225 77.818 19.7846L78.1257 19.0461C77.5354 18.8002 77.21 18.5627 77.0658 18.363L76.4172 18.8313ZM77.8318 19.79C78.1475 19.9081 78.4054 19.9992 78.6033 20.0622C78.7824 20.1193 78.9593 20.1693 79.085 20.1754L79.1236 19.3763C79.1324 19.3768 79.1161 19.3763 79.058 19.3618C79.006 19.3488 78.9359 19.3286 78.846 19.2999C78.6663 19.2427 78.4224 19.1568 78.1119 19.0407L77.8318 19.79ZM79.085 20.1754C79.1932 20.1806 79.3777 20.1604 79.5931 20.1314C79.8249 20.1003 80.1362 20.0524 80.5254 19.9883L80.3953 19.1989C80.0092 19.2625 79.7069 19.3089 79.4866 19.3385C79.3763 19.3534 79.2893 19.3636 79.2241 19.3697C79.1915 19.3728 79.1663 19.3746 79.1476 19.3756C79.1275 19.3766 79.121 19.3762 79.1236 19.3763L79.085 20.1754ZM80.4105 19.9905C80.4914 20.0006 80.5551 20.0312 80.6137 20.0878L81.1698 19.5127C80.9867 19.3357 80.7629 19.2285 80.5102 19.1967L80.4105 19.9905ZM80.6366 20.1083C80.6951 20.1568 80.7405 20.2258 80.7623 20.3431L81.5488 20.1965C81.4968 19.9179 81.3663 19.674 81.1469 19.4922L80.6366 20.1083ZM80.763 20.3467C80.7796 20.4313 80.7728 20.5564 80.7027 20.7369L81.4486 21.0262C81.5555 20.7507 81.6019 20.468 81.5481 20.193L80.763 20.3467ZM80.6937 20.7629C80.6595 20.8729 80.5825 20.9767 80.4132 21.0688L80.7957 21.7715C81.1141 21.5981 81.3512 21.3429 81.4577 21.0002L80.6937 20.7629ZM80.3068 21.1529C80.2273 21.2415 80.0344 21.3378 79.5613 21.2657L79.4407 22.0565C80.0079 22.143 80.5506 22.0787 80.902 21.6874L80.3068 21.1529ZM79.5479 21.2639C79.0542 21.2056 78.5744 21.1026 78.1082 20.955L77.8668 21.7177C78.3818 21.8808 78.9111 21.9943 79.4542 22.0583L79.5479 21.2639ZM78.1007 20.9527C77.6655 20.8243 77.1976 20.6193 76.6963 20.3326L76.2991 21.027C76.8427 21.3379 77.3679 21.5706 77.8743 21.72L78.1007 20.9527ZM76.6963 20.3326C76.2098 20.0543 75.7994 19.7211 75.4615 19.334L74.8588 19.8601C75.2594 20.319 75.7408 20.7077 76.2991 21.027L76.6963 20.3326ZM75.4684 19.3421C75.1217 18.9228 74.951 18.6364 74.8975 18.4664L74.1344 18.7064C74.2375 19.0343 74.4962 19.4217 74.8518 19.8519L75.4684 19.3421ZM74.8991 18.4716C74.8845 18.4229 74.8735 18.31 74.9073 18.1015C74.9399 17.9002 75.0087 17.6424 75.1197 17.3235L74.3642 17.0604C74.2446 17.4041 74.1603 17.7099 74.1176 17.9734C74.076 18.2298 74.0673 18.4828 74.1327 18.7012L74.8991 18.4716ZM75.1012 17.3679C75.8977 15.7416 76.6774 14.2366 77.4405 12.8527L76.7399 12.4664C75.9698 13.8631 75.1841 15.3797 74.3828 17.0161L75.1012 17.3679ZM77.4417 12.8505C78.2069 11.4415 78.7923 10.3501 79.1974 9.57721L78.4888 9.20584C78.0865 9.9735 77.5033 11.0608 76.7387 12.4687L77.4417 12.8505ZM83.0685 6.89835C83.012 7.09511 82.9533 7.23251 82.8987 7.32277C82.8433 7.41452 82.8072 7.43292 82.8063 7.43333L83.1488 8.15631C83.3407 8.06537 83.4803 7.90707 83.5833 7.73676C83.6872 7.56495 83.7698 7.35494 83.8375 7.11893L83.0685 6.89835ZM82.8367 7.42045C82.824 7.42522 82.817 7.42588 82.8144 7.426C82.8121 7.42611 82.809 7.42601 82.8036 7.4244C82.7918 7.42091 82.7553 7.40593 82.6971 7.34703L82.1281 7.9093C82.252 8.03469 82.4007 8.13964 82.5772 8.19171C82.7599 8.2456 82.9448 8.23451 83.1184 8.16919L82.8367 7.42045ZM82.648 7.3048C82.3481 7.0864 82.0841 6.82291 81.8559 6.5125L81.2114 6.98644C81.4869 7.36109 81.8089 7.6834 82.1772 7.95153L82.648 7.3048ZM81.8803 6.54988C81.5357 5.95138 81.2171 5.34151 80.9245 4.72027L80.2007 5.06115C80.5027 5.70235 80.8315 6.33165 81.187 6.94906L81.8803 6.54988ZM80.9021 4.67916C80.8351 4.57169 80.8228 4.50042 80.8243 4.45753C80.8256 4.41844 80.8395 4.36514 80.9003 4.2917L80.2842 3.78139C80.1312 3.96605 80.0333 4.18416 80.0247 4.42979C80.0163 4.67163 80.0961 4.89839 80.2231 5.10227L80.9021 4.67916ZM80.8684 4.32595C80.999 4.20134 81.0932 4.15519 81.1497 4.1411C81.1929 4.13034 81.2281 4.13353 81.2768 4.16186L81.6789 3.47025C81.4565 3.34094 81.2084 3.30207 80.9565 3.3648C80.7178 3.42422 80.5048 3.56712 80.3161 3.74714L80.8684 4.32595ZM81.2768 4.16186C81.5267 4.30714 81.6565 4.42729 81.7137 4.51083L82.3736 4.05863C82.2187 3.83253 81.9713 3.64023 81.6789 3.47025L81.2768 4.16186ZM81.6846 4.46094C82.1849 5.48053 82.6576 6.39428 83.1027 7.20173L83.8033 6.81555C83.3656 6.02144 82.8987 5.11925 82.4028 4.10852L81.6846 4.46094ZM85.5538 5.64067C85.2849 4.89027 85.0896 4.23055 84.9655 3.65988L84.1837 3.82998C84.3173 4.44353 84.5237 5.1376 84.8007 5.91054L85.5538 5.64067ZM84.9519 3.61206C84.9054 3.48005 84.9062 3.40076 84.9151 3.35828C84.9223 3.32402 84.9393 3.28873 84.9923 3.2472L84.4987 2.61765C84.3129 2.76333 84.182 2.95707 84.1323 3.19364C84.0842 3.42199 84.119 3.65535 84.1973 3.87781L84.9519 3.61206ZM84.957 3.2719C84.9676 3.26534 84.9865 3.25663 85.0228 3.25322L84.948 2.45672C84.8028 2.47036 84.6618 2.51328 84.5339 2.59295L84.957 3.2719ZM85.0228 3.25322C85.1209 3.244 85.3169 3.28131 85.643 3.45706L86.0226 2.75285C85.6543 2.55437 85.2855 2.42502 84.948 2.45672L85.0228 3.25322ZM85.5252 3.36071C85.7481 3.62871 85.9302 3.99298 86.0594 4.4702L86.8316 4.26116C86.6805 3.70277 86.4541 3.22655 86.1403 2.8492L85.5252 3.36071ZM86.0601 4.47251C86.1862 4.92757 86.2453 5.44926 86.2314 6.04162L87.0312 6.0604C87.0465 5.40498 86.9818 4.80311 86.831 4.25886L86.0601 4.47251ZM86.2358 5.99071C86.2209 6.08868 86.1935 6.14065 86.1721 6.16799C86.153 6.1923 86.1248 6.21541 86.0698 6.23272L86.3098 6.99586C86.5038 6.93485 86.6736 6.82493 86.8017 6.66148C86.9275 6.50106 86.9963 6.31055 87.0267 6.11132L86.2358 5.99071ZM86.0638 6.23465C85.9563 6.27035 85.8971 6.25415 85.8307 6.19914L85.3204 6.81524C85.6113 7.05624 85.9617 7.11144 86.3158 6.99393L86.0638 6.23465ZM85.8307 6.19914C85.7428 6.12629 85.6408 5.97391 85.5648 5.67655L84.7897 5.87466C84.8874 6.25674 85.051 6.59208 85.3204 6.81524L85.8307 6.19914Z" fill="#5F5D5D" mask="url(#path-1-outside-1_2001_74)"/>
<path d="M58.7826 39.8067C60.0324 32.7343 77.7743 29.7812 84.4566 27.2125C90.5362 25.4925 96.6044 21.5926 97.6044 15.6921C97.7428 14.7409 99.1565 15.3615 98.8803 15.9689C98.279 17.1333 98.2007 18.478 97.2355 19.5211C96.8779 19.9078 96.6677 20.3992 96.3775 20.8363C93.5364 24.7376 88.7123 27.1979 83.7189 28.3724C78.8548 30.273 55.3506 34.8967 60.8399 41.8346C61.3925 42.2569 62.0837 44.4045 60.6995 43.8334C53.9869 33.7826 48.6962 34.0375 36.3823 35.7346C28.4479 37.2928 20.322 38.1185 12.2027 37.7514C9.70078 37.726 7.63725 36.254 5.65768 35.0759C2.56413 33.0508 1.35574 29.4955 1.03249 26.2274C0.993628 25.8889 1.33723 25.6691 1.68554 25.6413C2.14228 25.6712 2.18089 26.1975 2.20194 26.507C2.29225 29.5316 3.54296 32.7962 6.4674 34.5581C7.25347 35.0034 8.00522 35.4944 8.78158 35.9525C11.1185 37.3628 15.9567 36.9387 18.8552 37.0016C25.1479 36.6438 31.3807 35.9383 37.5306 34.6689C40.5967 34.1317 43.7429 34.2013 46.8495 34.0287C48.5416 33.9057 50.143 34.3064 51.697 34.8622C54.7935 35.458 56.9693 37.6756 58.7826 39.8067Z" fill="#5F5D5D"/>
</svg>
