<svg width="24" height="25" viewBox="0 0 24 25" fill="none" xmlns="http://www.w3.org/2000/svg">
<path d="M5.09074 11.4219H2.42383V14.0888H5.09074V11.4219Z" fill="#5F5D5D"/>
<path d="M21.1062 3.48205V1.42969H16.0153V3.48132H14.5455V1.42969H9.45455V3.48132H7.98473V1.42969H2.89382V3.48132H0V23.1177H24V3.48132L21.1062 3.48205ZM16.7425 2.15696H20.3789V5.06605H16.7425V2.15696ZM10.1818 2.15696H13.8182V5.06605H10.1818V2.15696ZM3.62109 2.15696H7.25745V5.06605H3.62109V2.15696ZM22.5455 21.3002H1.45455V8.20932H22.5455V21.3002Z" fill="#5F5D5D"/>
<path d="M9.21183 11.4219H6.54492V14.0888H9.21183V11.4219Z" fill="#5F5D5D"/>
<path d="M13.3329 11.4219H10.666V14.0888H13.3329V11.4219Z" fill="#5F5D5D"/>
<path d="M17.454 11.4219H14.7871V14.0888H17.454V11.4219Z" fill="#5F5D5D"/>
<path d="M21.5751 11.4219H18.9082V14.0888H21.5751V11.4219Z" fill="#5F5D5D"/>
<path d="M5.09074 15.543H2.42383V18.2099H5.09074V15.543Z" fill="#5F5D5D"/>
<path d="M9.21183 15.543H6.54492V18.2099H9.21183V15.543Z" fill="#5F5D5D"/>
<path d="M13.3329 15.543H10.666V18.2099H13.3329V15.543Z" fill="#5F5D5D"/>
<path d="M17.454 15.543H14.7871V18.2099H17.454V15.543Z" fill="#5F5D5D"/>
<path d="M21.5751 15.543H18.9082V18.2099H21.5751V15.543Z" fill="#5F5D5D"/>
</svg>
