<svg width="24" height="25" viewBox="0 0 24 25" fill="none" xmlns="http://www.w3.org/2000/svg">
<path d="M23.897 22.0221L12.7279 1.72323C12.5819 1.45786 12.3029 1.29297 12 1.29297C11.6971 1.29297 11.4182 1.45786 11.2721 1.72323L0.102913 22.0221C-0.0387138 22.2795 -0.0338622 22.5925 0.115607 22.8454C0.265077 23.0983 0.536967 23.2534 0.830722 23.2534H23.1692C23.463 23.2534 23.7349 23.0983 23.8844 22.8454C24.0339 22.5925 24.0386 22.2795 23.897 22.0221ZM2.23609 21.5919L12 3.84698L21.7639 21.5919H2.23609Z" fill="#5F5D5D"/>
<path d="M10.959 9.78329V15.7881C10.959 16.3629 11.4251 16.8292 12.0001 16.8292C12.575 16.8292 13.0412 16.3629 13.0412 15.7881V9.78329C13.0412 9.20834 12.575 8.74219 12.0001 8.74219C11.4251 8.74219 10.959 9.20841 10.959 9.78329Z" fill="#5F5D5D"/>
<path d="M12.0009 17.9102C11.3963 17.9102 10.9043 18.4019 10.9043 19.0068C10.9043 19.6114 11.3963 20.1034 12.0009 20.1034C12.6055 20.1034 13.0975 19.6114 13.0975 19.0068C13.0975 18.402 12.6054 17.9102 12.0009 17.9102Z" fill="#5F5D5D"/>
</svg>
