<svg width="24" height="25" viewBox="0 0 24 25" fill="none" xmlns="http://www.w3.org/2000/svg">
<path d="M5.60986 15.6055C7.32675 16.7533 9.59616 17.3854 12 17.3854C14.4038 17.3854 16.6733 16.7533 18.3901 15.6055C20.1941 14.3996 21.1875 12.7677 21.1875 11.0104V10.8308L21.1014 10.6733C21.0147 10.5146 18.9417 6.77714 15.7449 5.928C14.478 5.59139 13.2201 5.74908 12 6.39596C10.78 5.74899 9.52205 5.59139 8.25506 5.928C5.05828 6.77714 2.98523 10.5146 2.89856 10.6733L2.8125 10.8308V11.0104C2.8125 12.7677 3.80597 14.3996 5.60986 15.6055ZM17.6086 14.4365C16.1205 15.4313 14.1286 15.9791 12 15.9791C9.87136 15.9791 7.8795 15.4313 6.39141 14.4365C5.25108 13.6741 4.52817 12.7261 4.29844 11.7135H9.36061C10.1618 12.1741 11.0699 12.4166 12 12.4166C12.9302 12.4166 13.8382 12.1741 14.6395 11.7135H19.7016C19.4718 12.7261 18.749 13.6741 17.6086 14.4365ZM8.62008 7.28602C9.64064 7.01607 10.6257 7.18571 11.6316 7.8046L12 8.03128L12.3684 7.8046C13.3743 7.18575 14.3595 7.01611 15.3799 7.28602C17.0524 7.72842 18.4159 9.25674 19.1849 10.3073H14.2418L14.0702 10.4152C13.4509 10.8046 12.7351 11.0104 12 11.0104C11.2649 11.0104 10.549 10.8046 9.92977 10.4152L9.75816 10.3073H4.81505C5.58413 9.25674 6.94758 7.72842 8.62008 7.28602Z" fill="#5F5D5D"/>
<path d="M15.5625 18.6484H16.9688V20.0547H15.5625V18.6484Z" fill="#5F5D5D"/>
<path d="M18.375 17.2422H19.7812V18.6484H18.375V17.2422Z" fill="#5F5D5D"/>
<path d="M19.7812 20.0547H21.1875V21.4609H19.7812V20.0547Z" fill="#5F5D5D"/>
</svg>
