<svg width="24" height="25" viewBox="0 0 24 25" fill="none" xmlns="http://www.w3.org/2000/svg">
<g clip-path="url(#clip0_78_1077)">
<path d="M23.8805 3.97608L22.0888 2.18435L21.1886 1.28421L20.2975 0.393042C20.138 0.233569 19.8802 0.233569 19.7208 0.393042C19.5613 0.552514 19.5613 0.810281 19.7208 0.969753L20.3174 1.56645L17.1386 4.61315L16.287 3.76154L16.2866 3.76113L15.351 2.82551C15.1915 2.66603 14.9337 2.66603 14.7742 2.82551C14.6148 2.98498 14.6148 3.24275 14.7742 3.40222L15.4223 4.05031L5.36374 14.1081C5.20427 14.2676 5.20427 14.5253 5.36374 14.6848L6.13826 15.4593L5.33601 16.2616C5.25933 16.3383 5.2165 16.4418 5.2165 16.5499C5.2165 16.658 5.25933 16.762 5.33601 16.8383L6.04201 17.5439L5.23975 18.3461L5.9274 19.0338L6.72966 18.2315L7.43525 18.9371C7.51478 19.0167 7.6192 19.0566 7.72361 19.0566C7.82802 19.0566 7.93243 19.0167 8.01196 18.9371L8.81422 18.1349L9.58874 18.9094C9.66827 18.9889 9.77269 19.0289 9.8771 19.0289C9.98151 19.0289 10.0859 18.9889 10.1655 18.9094L20.2236 8.8512L20.8717 9.49929C20.9513 9.57882 21.0557 9.61879 21.1601 9.61879C21.2645 9.61879 21.3689 9.57882 21.4484 9.49929C21.6079 9.33982 21.6079 9.08205 21.4484 8.92258L20.512 7.98614L19.516 6.99055L22.6949 3.94385L23.3038 4.55279C23.3833 4.63232 23.4877 4.67229 23.5921 4.67229C23.6966 4.67229 23.801 4.63232 23.8805 4.55279C24.04 4.39331 24.04 4.13514 23.8805 3.97608ZM7.7232 18.0725L6.20107 16.5503L6.71497 16.0364L8.2371 17.5586L7.7232 18.0725ZM9.87669 18.0443L9.10298 17.2706L9.10258 17.2702L7.00333 15.171L7.00292 15.1706L6.22881 14.3964L7.22888 13.3964L8.12983 14.2973C8.18938 14.3569 8.26769 14.3871 8.346 14.3871C8.42431 14.3871 8.50262 14.3573 8.56216 14.2973C8.68167 14.1778 8.68167 13.9841 8.56216 13.8646L7.66121 12.9636L8.79627 11.8286L10.6202 13.6529C10.6798 13.7125 10.7581 13.7426 10.8364 13.7426C10.9143 13.7426 10.993 13.7129 11.0525 13.6529C11.172 13.5334 11.172 13.3397 11.0525 13.2202L9.2286 11.3958L10.1132 10.5112L11.0142 11.4126C11.0738 11.4721 11.1521 11.5023 11.2304 11.5023C11.3087 11.5023 11.387 11.4725 11.4465 11.4126C11.566 11.293 11.566 11.0993 11.4465 10.9798L10.5456 10.0784L11.6806 8.94338L13.5046 10.7673C13.5641 10.8269 13.6424 10.857 13.7208 10.857C13.7991 10.857 13.8774 10.8273 13.9369 10.7673C14.0564 10.6478 14.0564 10.4541 13.9369 10.3346L12.113 8.51064L12.9976 7.626L13.899 8.52736C13.9585 8.58691 14.0368 8.61709 14.1152 8.61709C14.1935 8.61709 14.2718 8.58732 14.3313 8.52736C14.4508 8.40786 14.4508 8.21413 14.3313 8.09463L13.4299 7.19326L14.565 6.05819L16.3894 7.88213C16.4489 7.94168 16.5272 7.97186 16.6055 7.97186C16.6838 7.97186 16.7621 7.94209 16.8217 7.88213C16.9412 7.76263 16.9412 7.5689 16.8217 7.44939L14.9973 5.62545L15.9974 4.62539L19.6457 8.27367L9.87669 18.0443ZM22.1177 3.36673L18.9389 6.41303L17.7157 5.18986L20.8946 2.14316L21.136 2.38461L22.1177 3.36673ZM5.27116 18.7487L5.52444 19.002L0.486575 24.0398L0 24.2731L0.223098 23.7972L5.27116 18.7487Z" fill="#5F5D5D"/>
</g>
<defs>
<clipPath id="clip0_78_1077">
<rect width="24" height="24" fill="white" transform="translate(0 0.273438)"/>
</clipPath>
</defs>
</svg>
