<svg width="24" height="25" viewBox="0 0 24 25" fill="none" xmlns="http://www.w3.org/2000/svg">
<g clip-path="url(#clip0_78_1110)">
<path d="M16.9219 0.273438H0.984375C0.790172 0.273438 0.632812 0.430844 0.632812 0.625V23.9219C0.632812 24.116 0.790172 24.2734 0.984375 24.2734H16.9219C17.1161 24.2734 17.2734 24.116 17.2734 23.9219V0.625C17.2734 0.430844 17.1161 0.273438 16.9219 0.273438ZM16.5703 23.5703H1.33594V0.976562H16.5703V23.5703Z" fill="#5F5D5D"/>
<path d="M21.6094 0.273438H20.2031C19.2338 0.273438 18.4453 1.06197 18.4453 2.03125V5.78125C18.4453 5.80441 18.4476 5.82752 18.4522 5.8502L19.3828 10.5036V22.75C19.3828 23.59 20.0662 24.2734 20.9062 24.2734C21.7463 24.2734 22.4297 23.59 22.4297 22.75V10.5036L23.3603 5.8502C23.3649 5.82752 23.3672 5.80441 23.3672 5.78125V2.03125C23.3672 1.06197 22.5787 0.273438 21.6094 0.273438ZM21.7266 22.75C21.7266 23.2023 21.3585 23.5703 20.9062 23.5703C20.454 23.5703 20.0859 23.2023 20.0859 22.75V10.8203H21.7266V22.75ZM22.6641 5.74642L21.7899 10.1172H20.0226L19.1484 5.74642V4.72656H22.6641V5.74642ZM22.6641 4.02344H19.1484V2.03125C19.1484 1.57295 19.4424 1.18216 19.8516 1.03703V2.96875C19.8516 3.16291 20.0089 3.32031 20.2031 3.32031C20.3973 3.32031 20.5547 3.16291 20.5547 2.96875V0.976562H21.2578V2.96875C21.2578 3.16291 21.4152 3.32031 21.6094 3.32031C21.8036 3.32031 21.9609 3.16291 21.9609 2.96875V1.03703C22.3701 1.18216 22.6641 1.57291 22.6641 2.03125V4.02344Z" fill="#5F5D5D"/>
<path d="M21.6094 5.42969H20.2031C20.0089 5.42969 19.8516 5.58709 19.8516 5.78125C19.8516 5.97541 20.0089 6.13281 20.2031 6.13281H21.6094C21.8036 6.13281 21.9609 5.97541 21.9609 5.78125C21.9609 5.58709 21.8036 5.42969 21.6094 5.42969Z" fill="#5F5D5D"/>
<path d="M12.5859 1.72656C10.7767 1.72656 9.30469 3.19853 9.30469 5.00781C9.30469 6.81709 10.7767 8.28906 12.5859 8.28906C14.3952 8.28906 15.8672 6.81709 15.8672 5.00781C15.8672 3.19853 14.3952 1.72656 12.5859 1.72656ZM12.5859 7.58594C11.1644 7.58594 10.0078 6.42939 10.0078 5.00781C10.0078 3.58623 11.1644 2.42969 12.5859 2.42969C14.0075 2.42969 15.1641 3.58623 15.1641 5.00781C15.1641 6.42939 14.0075 7.58594 12.5859 7.58594Z" fill="#5F5D5D"/>
<path d="M12.5859 16.2578C10.7767 16.2578 9.30469 17.7298 9.30469 19.5391C9.30469 21.3483 10.7767 22.8203 12.5859 22.8203C14.3952 22.8203 15.8672 21.3483 15.8672 19.5391C15.8672 17.7298 14.3952 16.2578 12.5859 16.2578ZM12.5859 22.1172C11.1644 22.1172 10.0078 20.9606 10.0078 19.5391C10.0078 18.1175 11.1644 16.9609 12.5859 16.9609C14.0075 16.9609 15.1641 18.1175 15.1641 19.5391C15.1641 20.9606 14.0075 22.1172 12.5859 22.1172Z" fill="#5F5D5D"/>
<path d="M5.32031 1.72656C3.51103 1.72656 2.03906 3.19853 2.03906 5.00781C2.03906 6.81709 3.51103 8.28906 5.32031 8.28906C7.12959 8.28906 8.60156 6.81709 8.60156 5.00781C8.60156 3.19853 7.12959 1.72656 5.32031 1.72656ZM5.32031 7.58594C3.89873 7.58594 2.74219 6.42939 2.74219 5.00781C2.74219 3.58623 3.89873 2.42969 5.32031 2.42969C6.74189 2.42969 7.89844 3.58623 7.89844 5.00781C7.89844 6.42939 6.74189 7.58594 5.32031 7.58594Z" fill="#5F5D5D"/>
<path d="M5.32031 8.99219C3.51103 8.99219 2.03906 10.4642 2.03906 12.2734C2.03906 14.0827 3.51103 15.5547 5.32031 15.5547C7.12959 15.5547 8.60156 14.0827 8.60156 12.2734C8.60156 10.4642 7.12959 8.99219 5.32031 8.99219ZM5.32031 14.8516C3.89873 14.8516 2.74219 13.695 2.74219 12.2734C2.74219 10.8519 3.89873 9.69531 5.32031 9.69531C6.74189 9.69531 7.89844 10.8519 7.89844 12.2734C7.89844 13.695 6.74189 14.8516 5.32031 14.8516Z" fill="#5F5D5D"/>
<path d="M5.32031 16.2578C3.51103 16.2578 2.03906 17.7298 2.03906 19.5391C2.03906 20.1382 2.20223 20.7246 2.51105 21.2351C2.6115 21.4013 2.82764 21.4544 2.99381 21.354C3.15994 21.2535 3.21319 21.0373 3.11264 20.8712C2.8703 20.4705 2.74219 20.0099 2.74219 19.5391C2.74219 18.1175 3.89873 16.9609 5.32031 16.9609C6.74189 16.9609 7.89844 18.1175 7.89844 19.5391C7.89844 20.9606 6.74189 22.1172 5.32031 22.1172C4.8495 22.1172 4.38886 21.9891 3.98817 21.7467C3.82205 21.6462 3.60591 21.6994 3.50541 21.8656C3.40486 22.0317 3.45811 22.2478 3.62423 22.3483C4.1347 22.6571 4.7212 22.8203 5.32031 22.8203C7.12959 22.8203 8.60156 21.3483 8.60156 19.5391C8.60156 17.7298 7.12959 16.2578 5.32031 16.2578Z" fill="#5F5D5D"/>
<path d="M12.5859 8.99219C10.7767 8.99219 9.30469 10.4642 9.30469 12.2734C9.30469 12.8725 9.46786 13.459 9.77667 13.9695C9.87713 14.1356 10.0933 14.1887 10.2594 14.0883C10.4256 13.9878 10.4788 13.7717 10.3783 13.6056C10.1359 13.2049 10.0078 12.7443 10.0078 12.2734C10.0078 10.8519 11.1644 9.69531 12.5859 9.69531C14.0075 9.69531 15.1641 10.8519 15.1641 12.2734C15.1641 13.695 14.0075 14.8516 12.5859 14.8516C12.1151 14.8516 11.6545 14.7235 11.2538 14.4811C11.0877 14.3806 10.8715 14.4338 10.771 14.5999C10.6705 14.7661 10.7237 14.9822 10.8899 15.0827C11.4003 15.3915 11.9868 15.5547 12.5859 15.5547C14.3952 15.5547 15.8672 14.0827 15.8672 12.2734C15.8672 10.4642 14.3952 8.99219 12.5859 8.99219Z" fill="#5F5D5D"/>
</g>
<defs>
<clipPath id="clip0_78_1110">
<rect width="24" height="24" fill="white" transform="translate(0 0.273438)"/>
</clipPath>
</defs>
</svg>
