<svg width="24" height="25" viewBox="0 0 24 25" fill="none" xmlns="http://www.w3.org/2000/svg">
<path d="M22.2156 5.08689C22.2814 5.17399 22.3457 5.26464 22.4065 5.35633C22.4742 5.45829 22.5859 5.5135 22.6998 5.5135C22.7665 5.5135 22.8341 5.49452 22.8939 5.45477C23.0557 5.34738 23.0997 5.12918 22.9923 4.96746C22.9236 4.86391 22.851 4.76144 22.7766 4.66305C22.6596 4.50818 22.4392 4.47747 22.2842 4.59452C22.1292 4.71152 22.0986 4.93197 22.2156 5.08689Z" fill="#5F5D5D"/>
<path d="M21.142 4.02065C21.2939 4.13334 21.4411 4.25541 21.5797 4.38342C21.6473 4.44591 21.7329 4.47675 21.8182 4.47675C21.9128 4.47675 22.0072 4.43873 22.0765 4.36378C22.2083 4.22119 22.1995 3.99876 22.0569 3.86695C21.8999 3.72187 21.7331 3.58364 21.5611 3.456C21.4052 3.34026 21.185 3.37289 21.0693 3.5288C20.9536 3.6847 20.9861 3.90497 21.142 4.02065Z" fill="#5F5D5D"/>
<path d="M20.0338 3.39066C20.1345 3.43298 20.2353 3.47911 20.3336 3.52772C20.3837 3.55247 20.4369 3.56423 20.4892 3.56423C20.6187 3.56423 20.7433 3.49242 20.8046 3.36848C20.8907 3.19444 20.8194 2.98355 20.6455 2.89744C20.5343 2.84245 20.4202 2.79033 20.3062 2.74242C20.1272 2.66714 19.9211 2.75128 19.846 2.93034C19.7707 3.10936 19.8547 3.31542 20.0338 3.39066Z" fill="#5F5D5D"/>
<path d="M8.88096 12.0505C8.91204 11.8588 8.78192 11.6782 8.59024 11.6471C8.39796 11.6162 8.21801 11.7462 8.18693 11.9379C8.09834 12.484 7.63179 12.8803 7.07754 12.8803C6.52329 12.8803 6.05674 12.484 5.96815 11.9379C5.93707 11.7463 5.75698 11.6165 5.56484 11.6471C5.37317 11.6782 5.24304 11.8588 5.27412 12.0505C5.41821 12.9387 6.1767 13.5835 7.07759 13.5835C7.97848 13.5835 8.73682 12.9388 8.88096 12.0505Z" fill="#5F5D5D"/>
<path d="M14.8578 11.6471C14.6655 11.6162 14.4856 11.7462 14.4545 11.9379C14.3659 12.484 13.8994 12.8803 13.3451 12.8803C12.7909 12.8803 12.3243 12.484 12.2357 11.9379C12.2046 11.7463 12.0246 11.6165 11.8324 11.6471C11.6407 11.6782 11.5106 11.8588 11.5417 12.0505C11.6858 12.9387 12.4443 13.5835 13.3452 13.5835C14.2461 13.5835 15.0045 12.9387 15.1486 12.0505C15.1796 11.8588 15.0495 11.6782 14.8578 11.6471Z" fill="#5F5D5D"/>
<path d="M11.3119 17.5414C11.2233 18.0876 10.7568 18.4839 10.2025 18.4839C9.64829 18.4839 9.18174 18.0876 9.09315 17.5414C9.06207 17.3498 8.88226 17.2199 8.68984 17.2507C8.49817 17.2818 8.36804 17.4624 8.39912 17.654C8.54321 18.5423 9.3017 19.1871 10.2026 19.1871C11.1035 19.1871 11.8619 18.5423 12.0061 17.654C12.0371 17.4624 11.907 17.2818 11.7153 17.2507C11.5231 17.2195 11.343 17.3498 11.3119 17.5414Z" fill="#5F5D5D"/>
<path d="M8.85156 15.0556C8.87022 15.1568 8.93237 15.2447 9.02148 15.2962L10.026 15.8761C10.0814 15.9081 10.1418 15.9233 10.2015 15.9233C10.323 15.9233 10.4411 15.8602 10.5062 15.7475C10.6033 15.5793 10.5457 15.3643 10.3776 15.2672L9.72995 14.8933L10.4748 13.9755C10.5971 13.8247 10.5741 13.6033 10.4233 13.481C10.2725 13.3586 10.0511 13.3816 9.92884 13.5324L8.92431 14.7702C8.85944 14.8501 8.83286 14.9544 8.85156 15.0556Z" fill="#5F5D5D"/>
<path d="M4.77923 14.6276L4.31048 15.7057C4.23309 15.8838 4.31465 16.0909 4.49273 16.1683C4.53839 16.1881 4.58592 16.1975 4.6327 16.1975C4.76845 16.1975 4.89773 16.1184 4.95529 15.986L5.42404 14.9079C5.50144 14.7298 5.41987 14.5227 5.24179 14.4453C5.06367 14.3678 4.85653 14.4494 4.77923 14.6276Z" fill="#5F5D5D"/>
<path d="M6.18548 14.6276L5.71673 15.7057C5.63934 15.8838 5.7209 16.0909 5.89898 16.1683C5.94464 16.1881 5.99217 16.1975 6.03895 16.1975C6.1747 16.1975 6.30398 16.1184 6.36154 15.986L6.83029 14.9079C6.90769 14.7298 6.82612 14.5227 6.64804 14.4453C6.46992 14.3678 6.26283 14.4494 6.18548 14.6276Z" fill="#5F5D5D"/>
<path d="M7.59173 14.6276L7.12298 15.7057C7.04559 15.8838 7.12715 16.0909 7.30523 16.1683C7.35089 16.1881 7.39842 16.1975 7.4452 16.1975C7.58095 16.1975 7.71023 16.1184 7.76779 15.986L8.23654 14.9079C8.31394 14.7298 8.23237 14.5227 8.05429 14.4453C7.87622 14.3678 7.66908 14.4494 7.59173 14.6276Z" fill="#5F5D5D"/>
<path d="M12.6542 14.6276L12.1855 15.7057C12.1081 15.8838 12.1897 16.0909 12.3677 16.1683C12.4134 16.1881 12.4609 16.1975 12.5077 16.1975C12.6435 16.1975 12.7727 16.1184 12.8303 15.986L13.299 14.9079C13.3764 14.7298 13.2949 14.5227 13.1168 14.4453C12.9387 14.3678 12.7316 14.4494 12.6542 14.6276Z" fill="#5F5D5D"/>
<path d="M14.523 14.4453C14.3449 14.3678 14.1378 14.4494 14.0605 14.6276L13.5917 15.7057C13.5143 15.8838 13.5959 16.0909 13.774 16.1683C13.8196 16.1881 13.8672 16.1975 13.914 16.1975C14.0497 16.1975 14.179 16.1184 14.2365 15.986L14.7053 14.9079C14.7827 14.7298 14.7011 14.5227 14.523 14.4453Z" fill="#5F5D5D"/>
<path d="M15.1803 16.1683C15.2259 16.1881 15.2734 16.1975 15.3202 16.1975C15.456 16.1975 15.5853 16.1184 15.6428 15.986L16.1116 14.9079C16.189 14.7298 16.1074 14.5227 15.9293 14.4453C15.7511 14.3678 15.5441 14.4494 15.4668 14.6276L14.998 15.7057C14.9206 15.8837 15.0022 16.0908 15.1803 16.1683Z" fill="#5F5D5D"/>
<path d="M2.30592 18.7779H1.68033V18.1523C1.68033 17.9581 1.52297 17.8008 1.32877 17.8008C1.13456 17.8008 0.977203 17.9581 0.977203 18.1523V18.7779H0.351562C0.157359 18.7779 0 18.9353 0 19.1295C0 19.3237 0.157359 19.4811 0.351562 19.4811H0.977203V20.1067C0.977203 20.3009 1.13456 20.4583 1.32877 20.4583C1.52297 20.4583 1.68033 20.3009 1.68033 20.1067V19.4811H2.30597C2.50017 19.4811 2.65753 19.3237 2.65753 19.1295C2.65753 18.9353 2.50012 18.7779 2.30592 18.7779Z" fill="#5F5D5D"/>
<path d="M6.5625 3.40294H7.18814V4.02858C7.18814 4.22278 7.3455 4.38014 7.5397 4.38014C7.73391 4.38014 7.89127 4.22278 7.89127 4.02858V3.40294H8.51691C8.71111 3.40294 8.86847 3.24558 8.86847 3.05138C8.86847 2.85717 8.71111 2.69981 8.51691 2.69981H7.89127V2.07422C7.89127 1.88002 7.73391 1.72266 7.5397 1.72266C7.3455 1.72266 7.18814 1.88002 7.18814 2.07422V2.69981H6.5625C6.3683 2.69981 6.21094 2.85717 6.21094 3.05138C6.21094 3.24558 6.3683 3.40294 6.5625 3.40294Z" fill="#5F5D5D"/>
<path d="M18.0293 5.95508C17.8351 5.95508 17.6777 6.11244 17.6777 6.30664V8.31322C17.6777 8.50742 17.8351 8.66478 18.0293 8.66478H19.6041C19.7983 8.66478 19.9556 8.50742 19.9556 8.31322C19.9556 8.11902 19.7983 7.96166 19.6041 7.96166H18.3809V6.30664C18.3809 6.11244 18.2235 5.95508 18.0293 5.95508Z" fill="#5F5D5D"/>
<path d="M23.5536 6.02922C23.4802 5.84951 23.2752 5.76321 23.0953 5.83666C22.9155 5.91002 22.8293 6.11524 22.9027 6.29501C23.2997 7.26743 23.3991 8.32807 23.1902 9.36232C22.9231 10.6849 22.1732 11.8471 21.0787 12.6347C20.0748 13.3571 18.8654 13.7053 17.6433 13.6306V12.1758C17.7704 12.1884 17.8992 12.1951 18.0296 12.1951C20.1702 12.1951 21.9117 10.4537 21.9117 8.31307C21.9117 6.17248 20.1702 4.43102 18.0296 4.43102C17.8028 4.43102 17.5716 4.45183 17.3422 4.49285C17.1511 4.52702 17.0239 4.70974 17.0581 4.90085C17.0923 5.09196 17.2748 5.21913 17.4661 5.18501C17.6546 5.15126 17.8442 5.13415 18.0296 5.13415C19.7825 5.13415 21.2085 6.56023 21.2085 8.31307C21.2085 10.0659 19.7824 11.492 18.0296 11.492C16.2767 11.492 14.8506 10.0659 14.8506 8.31307C14.8506 7.30938 15.3104 6.38533 16.112 5.77793C16.2668 5.66069 16.2972 5.44019 16.1799 5.28541C16.0626 5.13058 15.842 5.10026 15.6874 5.21754C15.3039 5.50812 14.9848 5.85827 14.7381 6.25024C14.3358 5.93918 13.9072 5.67115 13.4567 5.45074C13.9902 4.61201 14.7621 3.9243 15.664 3.49277C16.4706 3.10676 17.3422 2.9336 18.2218 2.97851L18.0337 3.12832C17.8819 3.2493 17.8569 3.47051 17.9779 3.62233C18.0473 3.70943 18.1497 3.7548 18.2531 3.7548C18.3299 3.7548 18.4072 3.72977 18.4719 3.67816L19.3072 3.01258C19.4591 2.8916 19.4841 2.6704 19.3631 2.51857L18.6975 1.68326C18.5765 1.53143 18.3553 1.5064 18.2035 1.62743C18.0516 1.74841 18.0266 1.96962 18.1476 2.12144L18.2717 2.27716C17.2708 2.22349 16.2786 2.41924 15.3605 2.85855C14.306 3.36312 13.4086 4.17766 12.8034 5.17066C12.2486 4.96287 11.6686 4.82083 11.0722 4.75122C10.8801 4.72821 10.7048 4.86677 10.6823 5.05966C10.6598 5.25251 10.7979 5.42712 10.9908 5.44957C12.2467 5.59615 13.4252 6.09251 14.4148 6.88929C14.2399 7.33502 14.1475 7.81605 14.1475 8.31312C14.1475 10.075 15.3277 11.5655 16.9388 12.0381C16.9393 12.0699 16.9401 12.1017 16.9401 12.1331V15.5616C16.9401 16.8064 16.6003 18.0048 15.9526 19.059L15.5562 18.3341C15.4677 18.1723 15.2981 18.0716 15.1136 18.0716C15.1136 18.0716 15.1136 18.0716 15.1135 18.0716C14.929 18.0716 14.7594 18.1722 14.6709 18.3341L14.0571 19.4563L12.9348 20.0702C12.7729 20.1587 12.6723 20.3283 12.6723 20.5128C12.6723 20.6974 12.7729 20.867 12.9348 20.9554L13.643 21.3429C12.6048 21.9643 11.4292 22.2904 10.2112 22.2904C8.42169 22.2904 6.73409 21.5883 5.45928 20.3135C4.18447 19.0387 3.48242 17.3509 3.48242 15.5614V14.6838C3.48242 14.4896 3.32506 14.3323 3.13086 14.3323C2.93666 14.3323 2.7793 14.4896 2.7793 14.6838V15.5614C2.7793 17.5388 3.55452 19.4029 4.96213 20.8106C6.36973 22.2182 8.23395 22.9934 10.2112 22.9934C11.6337 22.9934 13.0037 22.5908 14.1975 21.826L14.6708 22.6915C14.7594 22.8533 14.929 22.9539 15.1135 22.9539H15.1136C15.2981 22.9539 15.4677 22.8533 15.5561 22.6914L16.1699 21.5691L17.2922 20.9553C17.4541 20.8668 17.5547 20.6972 17.5547 20.5127C17.5547 20.3282 17.4541 20.1585 17.2922 20.0701L16.4393 19.6036C17.228 18.3968 17.6432 17.0076 17.6432 15.5614V14.3347C17.7518 14.3406 17.8603 14.3439 17.9686 14.3439C19.2255 14.3439 20.4541 13.9502 21.4893 13.2053C22.7282 12.3138 23.5769 10.9984 23.8793 9.50144C24.1159 8.33102 24.0032 7.13037 23.5536 6.02922ZM16.6363 20.5128L15.7819 20.9801C15.6968 21.0265 15.6272 21.096 15.581 21.1808L15.1135 22.0355L14.6459 21.1807C14.5995 21.0957 14.53 21.0264 14.4454 20.9802L13.5907 20.5128L14.4455 20.0452C14.5302 19.9989 14.5994 19.9296 14.646 19.8447L15.1135 18.9899L15.581 19.8446C15.6273 19.9294 15.6966 19.9988 15.7815 20.0452L16.6363 20.5128Z" fill="#5F5D5D"/>
<path d="M3.13081 13.3951C3.32502 13.3951 3.48238 13.2377 3.48238 13.0435V12.1333C3.48238 10.8134 3.86248 9.55088 4.58539 8.45452L5.06145 9.32503C5.15005 9.48689 5.31964 9.58748 5.50409 9.58748H5.50419C5.68873 9.58744 5.85833 9.48684 5.94673 9.32498L6.56056 8.2027L7.68294 7.58888C7.8448 7.50028 7.9453 7.33064 7.9453 7.14619C7.94525 6.96169 7.8447 6.79209 7.68284 6.70364L6.90669 6.27914C7.68453 5.83795 8.54755 5.55309 9.43166 5.44992C9.6245 5.42742 9.76264 5.25286 9.74009 5.06002C9.71764 4.86712 9.54219 4.7288 9.35019 4.75158C8.30633 4.87345 7.28923 5.22398 6.38544 5.76961L5.94678 4.96753C5.85828 4.80572 5.68869 4.70513 5.50423 4.70508C5.50419 4.70508 5.50419 4.70508 5.50414 4.70508C5.31969 4.70508 5.15005 4.80562 5.0615 4.96753L4.44772 6.08977L3.32548 6.70359C3.16363 6.79209 3.06298 6.96169 3.06294 7.14619C3.06294 7.33073 3.16348 7.50038 3.32544 7.58892L4.05252 7.98656C3.21842 9.21652 2.7793 10.6417 2.7793 12.1333V13.0435C2.77925 13.2377 2.93661 13.3951 3.13081 13.3951ZM3.98131 7.14628L4.83575 6.67894C4.92069 6.63262 4.99016 6.5632 5.03666 6.47822L5.50414 5.62345L5.97148 6.47794C6.01789 6.56302 6.08745 6.63258 6.1722 6.6788L7.02697 7.14633L6.17211 7.61386C6.08727 7.66027 6.01794 7.72969 5.97167 7.81434L5.50414 8.66911L5.03647 7.81402C4.99011 7.72936 4.92078 7.66017 4.83608 7.61381L3.98131 7.14628Z" fill="#5F5D5D"/>
</svg>
