<svg width="24" height="25" viewBox="0 0 24 25" fill="none" xmlns="http://www.w3.org/2000/svg">
<g clip-path="url(#clip0_78_1155)">
<path d="M0.366405 18.3913C0.172224 18.3913 0.014883 18.2339 0.014883 18.0398V3.9529C0.014883 2.44055 0.883003 1.14137 2.28052 0.562392C3.67854 -0.0168232 5.2117 0.288017 6.28173 1.35768L8.51728 3.59261C8.52389 3.59922 8.52993 3.60625 8.53593 3.61323C11.3231 1.58106 15.2304 1.75827 17.8226 4.14436C18.3664 3.83113 19.0759 3.95126 19.4876 4.42403C19.9395 4.94311 19.9106 5.74693 19.424 6.23334L18.7112 6.9459C18.3915 7.26565 17.8935 6.76921 18.2141 6.44866L18.927 5.73615C19.4991 5.16429 18.6193 4.29472 18.0437 4.85298L8.16519 14.7287C7.5932 15.3005 8.4811 16.1792 9.04827 15.612L17.0485 7.61398C17.3682 7.29429 17.8663 7.79045 17.5456 8.11108L9.54541 16.1092C9.08534 16.5692 8.33327 16.6236 7.81231 16.2341C7.28133 15.8371 7.12352 15.0831 7.4562 14.5076C6.20492 13.1503 5.51902 11.3991 5.51902 9.54234C5.51902 7.87945 6.06909 6.30121 7.08269 5.01473L4.89355 2.8262C4.28785 2.2206 3.51764 2.23452 2.9987 2.44951C2.4799 2.66445 1.92548 3.19933 1.92548 4.05587V23.3182C1.92548 23.8381 1.49001 24.2735 0.970181 24.2735C0.450348 24.2735 0.014883 23.8382 0.014883 23.3182V19.6334C0.014883 19.1808 0.717928 19.18 0.717928 19.6334V23.3182C0.717928 23.6434 1.22243 23.6434 1.22243 23.3182V4.05582C1.22243 3.04953 1.79996 2.18511 2.72962 1.79994C3.65933 1.41481 4.67888 1.61748 5.3906 2.32896L7.54455 4.48224C7.6859 4.33414 7.8335 4.19217 7.98657 4.0562L5.78464 1.85487C4.91947 0.989938 3.67986 0.743591 2.54959 1.21187C1.4198 1.67995 0.717928 2.73026 0.717928 3.95285V18.0397C0.717928 18.2339 0.560587 18.3913 0.366405 18.3913ZM6.22207 9.5423C6.22207 11.196 6.8235 12.7575 7.92292 13.9767L12.4924 9.40853L17.2915 4.6109C14.6903 2.26976 10.6682 2.35056 8.16505 4.85303C6.91213 6.10558 6.22207 7.7709 6.22207 9.5423Z" fill="#5F5D5D"/>
<path d="M14.5588 17.459L15.637 18.5369C15.9568 18.8565 15.4605 19.3547 15.1399 19.034L14.0618 17.9561C13.742 17.6365 14.2383 17.1382 14.5588 17.459Z" fill="#5F5D5D"/>
<path d="M16.9417 15.0761L18.0198 16.1541C18.3396 16.4737 17.8433 16.9719 17.5228 16.6512L16.4446 15.5733C16.1248 15.2536 16.6211 14.7554 16.9417 15.0761Z" fill="#5F5D5D"/>
<path d="M10.9104 16.4199L11.9886 17.4978C12.3084 17.8174 11.812 18.3156 11.4915 17.9949L10.4134 16.917C10.0935 16.5973 10.5898 16.0992 10.9104 16.4199Z" fill="#5F5D5D"/>
<path d="M13.3167 14.0136L14.3948 15.0915C14.7146 15.4112 14.2183 15.9094 13.8978 15.5887L12.8196 14.5108C12.4998 14.1911 12.9961 13.6929 13.3167 14.0136Z" fill="#5F5D5D"/>
<path d="M15.2258 11.6108C15.363 11.4735 15.5856 11.4735 15.7229 11.6107L16.8011 12.6887C17.1208 13.0084 16.6247 13.5064 16.304 13.1859L15.2258 12.1079C15.0885 11.9707 15.0885 11.7481 15.2258 11.6108Z" fill="#5F5D5D"/>
<path d="M18.7102 10.7801L17.6321 9.70218C17.3122 9.38252 17.8085 8.88435 18.1291 9.20503L19.2073 10.2829C19.5272 10.6026 19.0308 11.1008 18.7102 10.7801Z" fill="#5F5D5D"/>
<path d="M21.3657 8.47678C21.2758 8.47678 21.1858 8.44247 21.1172 8.37385L20.039 7.29594C19.7192 6.97629 20.2156 6.47807 20.5361 6.7988L21.6142 7.87671C21.8315 8.09381 21.6731 8.47678 21.3657 8.47678Z" fill="#5F5D5D"/>
<path d="M20.4026 13.7732C20.7225 14.0928 20.2261 14.5911 19.9056 14.2703L18.8274 13.1924C18.5076 12.8728 19.0039 12.3746 19.3245 12.6953L20.4026 13.7732Z" fill="#5F5D5D"/>
<path d="M22.5357 11.9904C22.4457 11.9904 22.3558 11.9561 22.2871 11.8875L21.2089 10.8096C20.8891 10.4899 21.3852 9.99185 21.706 10.3124L22.7842 11.3903C23.0015 11.6074 22.843 11.9904 22.5357 11.9904Z" fill="#5F5D5D"/>
<path d="M20.444 16.3046L21.5042 17.3645C21.8239 17.6842 21.3279 18.1822 21.0071 17.8617L19.947 16.8018C19.6272 16.4821 20.1232 15.9841 20.444 16.3046Z" fill="#5F5D5D"/>
<path d="M22.8235 13.9277L23.8831 14.987C24.2029 15.3066 23.7066 15.8049 23.386 15.4841L22.3265 14.4248C22.0066 14.1052 22.5029 13.607 22.8235 13.9277Z" fill="#5F5D5D"/>
<path d="M18.0631 18.6855L19.1233 19.7454C19.4431 20.0651 18.947 20.5631 18.6263 20.2426L17.5661 19.1827C17.2463 18.863 17.7425 18.3649 18.0631 18.6855Z" fill="#5F5D5D"/>
</g>
<defs>
<clipPath id="clip0_78_1155">
<rect width="24" height="24" fill="white" transform="matrix(-1 0 0 1 24 0.273438)"/>
</clipPath>
</defs>
</svg>
