<svg width="24" height="25" viewBox="0 0 24 25" fill="none" xmlns="http://www.w3.org/2000/svg">
<g clip-path="url(#clip0_78_1070)">
<path d="M9.44517 24.2734C9.3518 24.2734 9.2573 24.2548 9.16701 24.2158C8.85103 24.0796 8.68013 23.7346 8.76309 23.4007L11.1408 13.8299H4.73439C4.5025 13.8299 4.28552 13.7155 4.15441 13.5242C4.0233 13.3329 3.99494 13.0893 4.07861 12.8731L8.77838 0.72292C8.88314 0.452031 9.14367 0.273438 9.43411 0.273438H15.901C16.1386 0.273438 16.3601 0.393437 16.49 0.592468C16.6197 0.791498 16.6403 1.04261 16.5445 1.26006L13.7615 7.57691H19.2656C19.5227 7.57691 19.7594 7.7173 19.8826 7.943C20.0059 8.16866 19.9962 8.44362 19.8572 8.66L10.0371 23.9502C9.90431 24.157 9.67847 24.2734 9.44517 24.2734ZM5.76025 12.4237H12.0399C12.2563 12.4237 12.4605 12.5233 12.5938 12.6937C12.7271 12.8641 12.7745 13.0864 12.7223 13.2963L11.1541 19.6087L17.9784 8.98311H12.6834C12.4458 8.98311 12.2243 8.86311 12.0945 8.66408C11.9647 8.46505 11.9442 8.21394 12.04 7.99653L14.8229 1.67968H9.91603L5.76025 12.4237Z" fill="#5F5D5D"/>
</g>
<defs>
<clipPath id="clip0_78_1070">
<rect width="24" height="24" fill="white" transform="translate(0 0.273438)"/>
</clipPath>
</defs>
</svg>
