<svg width="24" height="25" viewBox="0 0 24 25" fill="none" xmlns="http://www.w3.org/2000/svg">
<g clip-path="url(#clip0_78_1143)">
<path d="M21.2307 20.4997C22.2685 19.7935 22.7223 18.4944 22.3362 17.2864L21.6325 15.0851C21.6041 14.9962 21.5417 14.9223 21.4587 14.8796C21.3917 14.8451 21.3159 14.8336 21.2424 14.8453C20.94 14.3387 20.4747 13.9591 19.916 13.7637C20.0759 13.6955 20.223 13.5968 20.3496 13.4702C20.6097 13.21 20.753 12.8639 20.753 12.496C20.753 11.8788 20.3448 11.3552 19.7841 11.1807V10.9399C20.2795 10.7941 20.645 10.3475 20.6672 9.80471C20.7005 8.99008 20.6167 7.62283 19.8856 6.37887C20.3975 6.33504 20.9088 6.50881 21.2927 6.87513C21.4753 7.04923 21.6169 7.2544 21.7137 7.48483C21.7688 7.61594 21.8969 7.70027 22.0377 7.70027C22.0449 7.70027 22.0521 7.70003 22.0593 7.69961C22.2084 7.69052 22.3355 7.58815 22.3762 7.44438C22.6315 6.54162 22.3688 5.57872 21.6903 4.93147C21.3557 4.61235 20.9439 4.39452 20.4991 4.29562C20.5896 4.00256 20.6374 3.69426 20.6374 3.37945C20.6374 1.66684 19.2441 0.273438 17.5314 0.273438C16.6738 0.273438 15.8692 0.622514 15.284 1.23798C14.4866 0.930387 13.6345 0.771716 12.7561 0.771716H11.2439C8.49829 0.771716 6.00188 2.37652 4.85645 4.86716C4.50888 5.13505 4.18863 5.44559 3.90588 5.80541C3.53501 6.27739 3.39176 7.16909 3.33691 7.834C3.27354 8.60233 3.29674 9.43515 3.39752 10.0074C3.4766 10.4566 3.79976 10.8077 4.21596 10.9365V11.1807C3.65529 11.3551 3.24706 11.8788 3.24706 12.496C3.24706 12.864 3.39035 13.21 3.65051 13.4702C3.78021 13.5999 3.93124 13.7005 4.09568 13.7688C3.54218 13.966 3.08178 14.3451 2.78211 14.8499C2.70115 14.831 2.61575 14.8412 2.54126 14.8796C2.45839 14.9223 2.39586 14.9961 2.36745 15.085L1.66377 17.2863C1.27761 18.4943 1.73145 19.7934 2.76926 20.4997L2.12253 22.5229C2.06342 22.7078 2.16542 22.9057 2.35034 22.9648C2.53531 23.0241 2.73317 22.9219 2.79228 22.737L3.52216 20.4537C3.57166 20.2989 3.50857 20.1304 3.36954 20.0461L3.26215 19.9809C2.41306 19.4663 2.03117 18.4463 2.33351 17.5004L2.92596 15.6471C3.03949 15.7109 3.13203 15.8065 3.19306 15.9249C3.27541 16.0847 3.2906 16.2669 3.2359 16.4381L3.0596 16.9896C2.93412 17.3822 3.15143 17.8038 3.54415 17.9294C3.93672 18.0549 4.35846 17.8376 4.48399 17.4449L5.58756 13.9926C5.63064 13.8578 5.77543 13.7834 5.91029 13.8262C6.04482 13.8693 6.11944 14.0135 6.07702 14.148L6.07679 14.1487C6.07679 14.1487 6.07674 14.1489 6.07669 14.149L5.05661 17.34C4.9975 17.5249 5.0995 17.7228 5.28442 17.7819C5.32 17.7933 5.35609 17.7987 5.39157 17.7987C5.5404 17.7987 5.67859 17.7034 5.72635 17.554L6.74644 14.363C6.74649 14.363 6.74649 14.3629 6.74649 14.3629L7.05619 13.3939C7.09931 13.259 7.2442 13.1845 7.37892 13.2275C7.51383 13.2706 7.58845 13.4154 7.54533 13.5503L7.32844 14.2288C7.32834 14.2291 7.32825 14.2294 7.32816 14.2297V14.2297L6.21568 17.7105C6.15657 17.8954 6.25857 18.0933 6.44349 18.1524C6.47911 18.1638 6.51516 18.1692 6.55065 18.1692C6.69947 18.1692 6.83771 18.0739 6.88542 17.9245L7.998 14.4441C7.99804 14.444 7.99809 14.4439 7.99809 14.4439C8.01895 14.3785 8.06404 14.3253 8.12498 14.2938C8.18601 14.2625 8.25553 14.2566 8.32082 14.2774C8.45568 14.3206 8.53031 14.4654 8.48723 14.6002L8.07656 15.8848C8.07637 15.8854 8.07623 15.8859 8.07604 15.8865L7.37456 18.081C7.31545 18.2659 7.41745 18.4637 7.60237 18.5228C7.638 18.5342 7.67404 18.5396 7.70953 18.5396C7.85836 18.5396 7.99659 18.4444 8.04431 18.295L8.7457 16.1008C8.74574 16.1007 8.74574 16.1006 8.74574 16.1006L8.74588 16.1001C8.76754 16.0328 8.81446 15.9787 8.87816 15.9477C8.94187 15.9168 9.01377 15.9134 9.08066 15.9383C9.20685 15.9853 9.27369 16.1356 9.22963 16.2733L7.95895 20.2485C7.91137 20.3973 7.80131 20.5169 7.65708 20.5767C7.32131 20.7158 7.06528 20.9941 6.95457 21.3404L6.1636 23.8147C6.10449 23.9996 6.20649 24.1975 6.39141 24.2566C6.42704 24.268 6.46308 24.2734 6.49857 24.2734C6.64739 24.2734 6.78558 24.1781 6.83335 24.0288L7.62426 21.5545C7.67184 21.4056 7.7819 21.2861 7.92618 21.2263C8.26195 21.0871 8.51793 20.8088 8.62865 20.4626L9.89938 16.4874C10.0587 15.989 9.8068 15.4585 9.326 15.2794C9.2285 15.2431 9.12805 15.223 9.02755 15.2189L9.15693 14.8142C9.31808 14.3101 9.03899 13.7688 8.53485 13.6077C8.44349 13.5785 8.34998 13.5633 8.2567 13.5618C8.26579 13.4649 8.25904 13.369 8.23959 13.2763C8.27423 13.265 8.30864 13.2546 8.34229 13.2464C8.69563 13.1611 9.06097 13.2183 9.37119 13.4077C9.68141 13.5971 9.89928 13.896 9.98469 14.2493C10.032 14.4451 10.0357 14.6439 9.99556 14.8404C9.95844 15.0221 10.0688 15.2014 10.2478 15.25C10.5204 15.3241 10.7309 15.5403 10.7972 15.8144C10.8953 16.2201 10.6467 16.6367 10.243 16.743C10.1087 16.7784 10.0078 16.8895 9.98548 17.0265C9.96322 17.1636 10.0236 17.3009 10.1398 17.3771C10.51 17.6197 10.7712 17.99 10.8751 18.4197C11.0999 19.3496 10.5263 20.2889 9.59647 20.5138C9.539 20.5276 9.48041 20.5387 9.42219 20.5468C9.22982 20.5732 9.09538 20.7506 9.12182 20.9429C9.14605 21.1191 9.29675 21.2466 9.46968 21.2466C9.48561 21.2466 9.50178 21.2456 9.51805 21.2433C9.59947 21.2322 9.68141 21.2166 9.7617 21.1972C10.6235 20.9888 11.2674 20.3435 11.5153 19.5534C11.6101 19.5577 11.705 19.5601 11.7993 19.5601H12.2006C12.3044 19.5601 12.4086 19.5574 12.5125 19.5522C12.5713 19.7416 12.6535 19.9239 12.7574 20.095C12.5366 20.3165 12.4 20.6218 12.4 20.9585C12.4 21.6333 12.949 22.1824 13.6239 22.1824C14.1929 22.1824 14.6724 21.7921 14.8089 21.2652C14.8185 21.2653 14.828 21.2658 14.8376 21.2658C15.167 21.2658 15.4943 21.1977 15.7981 21.0674C15.882 21.1313 15.9743 21.1851 16.0739 21.2263C16.2182 21.2861 16.3282 21.4057 16.3758 21.5545L17.1667 24.0288C17.2145 24.1781 17.3527 24.2734 17.5015 24.2734C17.537 24.2734 17.573 24.268 17.6087 24.2567C17.7936 24.1975 17.8956 23.9997 17.8365 23.8148L17.0455 21.3404C16.9349 20.9942 16.6788 20.7158 16.3431 20.5768C16.1988 20.517 16.0888 20.3973 16.0412 20.2486L14.7705 16.2733C14.7264 16.1356 14.7932 15.9854 14.9194 15.9384C14.9863 15.9135 15.0582 15.9168 15.1219 15.9478C15.1856 15.9787 15.2326 16.0328 15.2542 16.1002L15.2543 16.1006C15.2543 16.1006 15.2543 16.1008 15.2544 16.1008L15.9558 18.295C16.0035 18.4444 16.1417 18.5397 16.2906 18.5397C16.326 18.5397 16.3621 18.5343 16.3977 18.5229C16.5826 18.4638 16.6847 18.266 16.6255 18.081L15.924 15.8865C15.9239 15.886 15.9237 15.8854 15.9235 15.8849L15.5129 14.6003C15.4698 14.4654 15.5444 14.3206 15.6793 14.2775C15.7446 14.2567 15.8142 14.2625 15.8751 14.2939C15.936 14.3253 15.9811 14.3786 16.002 14.4439C16.002 14.444 16.002 14.4441 16.0021 14.4441L17.1147 17.9246C17.1624 18.0739 17.3006 18.1692 17.4494 18.1692C17.4849 18.1692 17.521 18.1638 17.5566 18.1524C17.7415 18.0933 17.8436 17.8955 17.7844 17.7106L16.6717 14.2298V14.2297C16.6716 14.2295 16.6716 14.2291 16.6715 14.2288L16.4546 13.5503C16.4114 13.4154 16.4861 13.2706 16.6209 13.2275C16.7558 13.1843 16.9006 13.259 16.9437 13.3939L17.2534 14.3629C17.2534 14.3629 17.2535 14.363 17.2535 14.3631L18.2735 17.5541C18.3213 17.7034 18.4595 17.7987 18.6083 17.7987C18.6438 17.7987 18.6799 17.7933 18.7155 17.7819C18.9004 17.7228 19.0024 17.525 18.9433 17.3401L17.9232 14.149C17.9232 14.1489 17.9232 14.1489 17.9232 14.1489L17.9229 14.1481C17.8805 14.0135 17.9551 13.8693 18.0896 13.8263C18.2245 13.7831 18.3693 13.8579 18.4124 13.9927L19.516 17.4449C19.6414 17.8376 20.063 18.055 20.4558 17.9295C20.8485 17.8039 21.0658 17.3822 20.9403 16.9896L20.764 16.4381C20.7093 16.267 20.7245 16.0847 20.8069 15.925C20.8679 15.8066 20.9605 15.711 21.074 15.6472L21.6664 17.5005C21.9688 18.4463 21.5869 19.4663 20.7377 19.981L20.6304 20.0461C20.4914 20.1304 20.4283 20.299 20.4777 20.4538L21.2076 22.737C21.2667 22.9219 21.4646 23.0241 21.6496 22.9648C21.8345 22.9057 21.9365 22.7079 21.8774 22.5229L21.2307 20.4997ZM19.9647 9.77602C19.956 9.98879 19.825 10.1674 19.6409 10.2454C18.6608 8.1618 16.9208 6.70287 15.4903 5.78769C15.5667 5.67809 15.6276 5.55913 15.6737 5.43411C15.676 5.42783 15.6782 5.4215 15.6804 5.41517C15.6922 5.38189 15.7029 5.34824 15.7125 5.31416C15.7167 5.29925 15.7209 5.28435 15.7247 5.26925C15.7287 5.25322 15.7324 5.2371 15.7359 5.22088C15.7411 5.19711 15.7456 5.17316 15.7497 5.14902C15.7516 5.13763 15.7537 5.12624 15.7553 5.11475C15.7598 5.084 15.7633 5.05293 15.766 5.02161C15.7668 5.01163 15.7676 5.00169 15.7683 4.99166C15.7707 4.95604 15.7724 4.92022 15.7724 4.88399V4.8839C15.7724 4.85268 15.7712 4.82165 15.7694 4.79085C15.7688 4.7811 15.7679 4.7714 15.7672 4.76169C15.7656 4.74046 15.7636 4.71937 15.7612 4.69837C15.7598 4.68712 15.7584 4.67591 15.7569 4.66476C15.7541 4.64474 15.7509 4.62491 15.7474 4.60518C15.7455 4.59435 15.7437 4.58352 15.7416 4.57274C15.7364 4.54663 15.7305 4.52076 15.724 4.49516C15.7231 4.4916 15.7225 4.48794 15.7216 4.48443C17.3649 4.8021 18.5493 5.54056 19.2476 6.68496C19.9009 7.75563 19.9982 8.95684 19.9647 9.77602ZM19.081 10.7138V11.1188H18.3342V9.38551C18.6178 9.79557 18.8712 10.2382 19.081 10.7138ZM21.205 5.4403C21.457 5.68072 21.6295 5.98161 21.7123 6.30589C21.1258 5.78384 20.344 5.57005 19.5843 5.71011C19.8324 5.49158 20.0416 5.23677 20.2067 4.95674C20.5804 5.00971 20.9291 5.17719 21.205 5.4403ZM17.5314 0.976558C18.8563 0.976558 19.9343 2.05449 19.9343 3.3795C19.9343 4.02028 19.6791 4.62693 19.2356 5.07327C18.7618 3.94814 18.0031 2.97052 17.0453 2.2321C17.0421 2.22966 17.0391 2.22713 17.0359 2.22464C17.0351 2.22404 17.0343 2.22347 17.0335 2.22286C17.0043 2.20046 16.9747 2.17838 16.9452 2.1564C16.9333 2.14758 16.9215 2.13868 16.9096 2.12996C16.8878 2.11397 16.8659 2.09827 16.8439 2.08252C16.8223 2.06701 16.8006 2.05154 16.7789 2.0363C16.7661 2.02735 16.7531 2.01844 16.7402 2.00958C16.7071 1.98671 16.6739 1.96412 16.6404 1.94185C16.6381 1.9403 16.6357 1.93876 16.6334 1.93716C16.4198 1.79527 16.2 1.6659 15.9747 1.54927C16.4057 1.18126 16.9532 0.976558 17.5314 0.976558ZM11.244 1.47484H12.7562C15.076 1.47484 17.1803 2.75522 18.2799 4.71791C17.5219 4.2306 16.5299 3.86067 15.2351 3.6959C14.9555 3.44897 14.5886 3.29864 14.1871 3.29864H13.4813C13.2384 3.29864 13.0081 3.35372 12.802 3.45187C11.3231 3.25542 8.42104 3.06839 6.09296 4.12987C7.26586 2.48644 9.17629 1.47484 11.244 1.47484ZM15.0691 4.88375C15.0692 4.91221 15.0676 4.94015 15.065 4.96775C15.0647 4.97085 15.0645 4.97399 15.0642 4.97713C15.0613 5.00432 15.0571 5.03118 15.0518 5.05757C15.0514 5.06 15.0509 5.06239 15.0504 5.06479C15.009 5.26241 14.9013 5.43585 14.7516 5.56086C14.7488 5.5632 14.7459 5.56555 14.743 5.56784C14.5912 5.6915 14.3978 5.76589 14.1871 5.76589H13.4813C13.1802 5.76589 12.9141 5.61402 12.7548 5.38306C12.7505 5.37678 12.7465 5.37036 12.7423 5.36399C12.7319 5.34795 12.7218 5.33155 12.7124 5.31481C12.7086 5.30811 12.7049 5.30141 12.7013 5.29461C12.6913 5.27572 12.682 5.25641 12.6734 5.23677C12.6714 5.23232 12.6693 5.22796 12.6674 5.2235C12.6569 5.19857 12.6475 5.17307 12.6393 5.147C12.6387 5.1448 12.6382 5.14255 12.6375 5.14035C12.6305 5.11733 12.6245 5.09389 12.6194 5.07013C12.6179 5.06286 12.6165 5.05555 12.6152 5.04824C12.6114 5.0285 12.6084 5.00853 12.606 4.98843C12.6051 4.98078 12.604 4.97319 12.6033 4.96555C12.6009 4.9386 12.5992 4.91141 12.5992 4.8838C12.5992 4.88375 12.5992 4.88371 12.5992 4.88371C12.5992 4.85722 12.6009 4.83116 12.6032 4.80529C12.6039 4.79769 12.6046 4.7901 12.6055 4.78251C12.6081 4.75986 12.6115 4.73746 12.6158 4.71533C12.6177 4.70554 12.6201 4.69593 12.6223 4.68627C12.6258 4.67085 12.6297 4.65562 12.6341 4.64052C12.6374 4.62899 12.6409 4.61746 12.6447 4.60612C12.649 4.59304 12.6539 4.58024 12.6588 4.56744C12.6658 4.54935 12.6734 4.53149 12.6816 4.51391C12.6864 4.5036 12.6912 4.49333 12.6964 4.48326C12.7022 4.47173 12.7083 4.46034 12.7147 4.44909C12.722 4.43619 12.7298 4.42363 12.7378 4.41116C12.7461 4.39809 12.7548 4.38534 12.7638 4.37268C12.7727 4.36021 12.7817 4.34788 12.7913 4.33588C12.7973 4.32824 12.8035 4.32065 12.8098 4.31324C12.8243 4.29623 12.8391 4.27954 12.8548 4.2637C12.8577 4.26079 12.8606 4.25802 12.8635 4.25516C12.8794 4.23951 12.896 4.22456 12.913 4.21016C12.9182 4.20581 12.9234 4.20149 12.9287 4.19727C12.9469 4.1826 12.9655 4.16845 12.9849 4.15518C12.9864 4.15415 12.9879 4.15302 12.9894 4.15199C13.13 4.05717 13.2993 4.00171 13.4813 4.00171H14.1871C14.4501 4.00171 14.686 4.11806 14.8478 4.30129C14.8561 4.31066 14.8646 4.3199 14.8724 4.32955C14.8829 4.34244 14.8925 4.35595 14.9022 4.3694C14.9089 4.37868 14.9159 4.38777 14.9222 4.39724C14.9319 4.41187 14.9408 4.42705 14.9496 4.44229C14.9549 4.45138 14.9605 4.46033 14.9654 4.46962C14.9739 4.48551 14.9814 4.50196 14.9889 4.51837C14.9932 4.52769 14.9978 4.53688 15.0018 4.54635C15.0087 4.56304 15.0146 4.58024 15.0205 4.5974C15.0239 4.60724 15.0277 4.6169 15.0307 4.62679C15.036 4.64408 15.0401 4.66185 15.0443 4.67957C15.0467 4.68983 15.0497 4.69996 15.0518 4.71032C15.0556 4.72916 15.058 4.74843 15.0606 4.76765C15.0618 4.77716 15.0638 4.78654 15.0647 4.7961C15.0675 4.82493 15.0691 4.85418 15.0691 4.88375ZM4.09 9.88548C4.00038 9.37618 3.97985 8.59361 4.03774 7.89185C4.10219 7.11101 4.2596 6.49343 4.45886 6.23984C5.34718 5.10927 6.77119 4.39757 8.69137 4.12457C9.31827 4.03542 9.94213 4.00265 10.5205 4.00265C11.1158 4.00265 11.6629 4.03734 12.1153 4.08093C12.0113 4.25718 11.9405 4.45508 11.9114 4.66616C11.9108 4.67076 11.9103 4.67544 11.9096 4.68004C11.9061 4.70737 11.9033 4.73497 11.9012 4.76272C11.9006 4.77036 11.8999 4.77796 11.8995 4.7856C11.8975 4.81808 11.8961 4.8508 11.8961 4.8838C11.8961 4.90911 11.8969 4.93433 11.8981 4.95946C11.8984 4.967 11.8991 4.9745 11.8995 4.982C11.9006 4.99991 11.9019 5.01772 11.9036 5.03553C11.9043 5.0435 11.9052 5.05147 11.9061 5.05944C11.9081 5.07735 11.9103 5.09516 11.9129 5.11293C11.9139 5.11977 11.9148 5.12657 11.9159 5.13341C11.9192 5.15394 11.9229 5.17438 11.9269 5.19477C11.9276 5.19842 11.9283 5.20213 11.929 5.20574C11.9434 5.27535 11.9622 5.34383 11.9858 5.41067C10.1623 6.12978 7.55278 7.36479 5.83567 8.71548C5.80988 8.73109 5.78621 8.74975 5.76531 8.77126C5.15983 9.25567 4.6713 9.75413 4.37716 10.2484C4.23021 10.1856 4.1193 10.0519 4.09 9.88548ZM5.66588 9.78521V11.1188H4.91917V10.7206C5.07409 10.4176 5.33167 10.1032 5.66588 9.78521ZM3.81438 17.2308C3.80688 17.2542 3.78185 17.2671 3.75841 17.2597C3.73497 17.2522 3.72199 17.2271 3.72949 17.2037L3.90579 16.6522C4.01768 16.3021 3.9866 15.9294 3.81818 15.6027C3.72307 15.4183 3.5906 15.261 3.43024 15.1388C3.68149 14.7566 4.06539 14.4842 4.51895 14.3745C4.5918 14.3571 4.66586 14.3442 4.73987 14.3356L3.81438 17.2308ZM4.61298 12.2851C4.45858 12.5381 4.36258 12.8152 4.32644 13.1006C4.26124 13.0684 4.20072 13.026 4.14785 12.9731C4.02044 12.8457 3.95032 12.6762 3.95032 12.496C3.95027 12.1244 4.25289 11.822 4.6248 11.822H4.99764C4.84937 11.955 4.71967 12.1103 4.61298 12.2851ZM13.6239 21.4792C13.3368 21.4792 13.1032 21.2456 13.1032 20.9585C13.1032 20.6713 13.3368 20.4377 13.6239 20.4377C13.9111 20.4377 14.1447 20.6713 14.1447 20.9585C14.1447 21.2456 13.9111 21.4792 13.6239 21.4792ZM15.8596 12.3379C15.7635 12.5066 15.8224 12.7213 15.9911 12.8174C15.9925 12.8182 15.9939 12.8188 15.9953 12.8196C15.8131 13.0169 15.7175 13.2866 15.7433 13.5618C15.6501 13.5633 15.5565 13.5785 15.4652 13.6077C14.961 13.7689 14.682 14.3101 14.8432 14.8143L14.9725 15.2189C14.872 15.223 14.7715 15.2431 14.6741 15.2794C14.1933 15.4584 13.9414 15.989 14.1007 16.4873L15.3714 20.4626C15.3729 20.4673 15.3748 20.4719 15.3763 20.4765C15.1846 20.5392 14.983 20.5683 14.7815 20.5616C14.6162 20.081 14.16 19.7345 13.6239 19.7345C13.5392 19.7345 13.4563 19.7431 13.3763 19.7597C13.1254 19.365 13.0412 18.8794 13.1522 18.4197C13.2562 17.99 13.5174 17.6198 13.8876 17.3773C14.0038 17.3012 14.0643 17.1639 14.042 17.0267C14.0198 16.8897 13.9189 16.7786 13.7846 16.7432C13.3809 16.6367 13.1321 16.2201 13.23 15.8144C13.2962 15.5405 13.5069 15.3244 13.7797 15.2502C13.9589 15.2015 14.0693 15.0219 14.0319 14.84C13.9915 14.644 13.9951 14.4454 14.0428 14.2491C14.1529 13.7932 14.4842 13.4309 14.9292 13.2799C15.1131 13.2174 15.2115 13.0178 15.1491 12.8339C15.0867 12.6501 14.8872 12.5518 14.7032 12.614C14.0287 12.843 13.5263 13.3925 13.3594 14.0836C13.3111 14.2827 13.2926 14.484 13.3041 14.6849C12.928 14.8793 12.6482 15.2286 12.5465 15.6493C12.4085 16.2212 12.631 16.8045 13.067 17.1524C12.7767 17.4585 12.5699 17.8364 12.4687 18.2545C12.421 18.4521 12.3995 18.653 12.4019 18.8528C12.3348 18.8552 12.2676 18.8569 12.2005 18.8569H11.7993C11.7419 18.8569 11.6843 18.8556 11.6266 18.8538C11.6288 18.6562 11.607 18.4552 11.5585 18.2545C11.4574 17.8365 11.2506 17.4586 10.9604 17.1524C11.3964 16.8045 11.6188 16.2213 11.4805 15.6492C11.3787 15.2284 11.0991 14.8789 10.723 14.6847C10.7344 14.4839 10.7161 14.2829 10.668 14.084C10.5385 13.5482 10.208 13.0949 9.73752 12.8076C9.26699 12.5203 8.71279 12.4335 8.17687 12.563C8.12601 12.5753 8.07454 12.59 8.02307 12.6069C8.00118 12.6079 7.97906 12.611 7.95693 12.6162C7.91062 12.6273 7.86872 12.6471 7.83239 12.6734C7.75992 12.6251 7.68 12.5856 7.593 12.5578C7.08891 12.3965 6.5476 12.6757 6.38644 13.1799L6.35827 13.2679C6.2873 13.2214 6.20898 13.1836 6.12427 13.1565C5.70282 13.0217 5.25625 13.1954 5.0267 13.5503C5.02379 13.5298 5.02145 13.5093 5.01944 13.4888C5.0192 13.4863 5.01887 13.4839 5.01859 13.4814C4.99225 13.1924 5.05886 12.9037 5.21284 12.6515C5.40226 12.3413 5.70109 12.1234 6.05438 12.0381C6.37468 11.9606 6.71119 12.0015 7.00205 12.1533C7.17422 12.2431 7.38656 12.1764 7.47637 12.0043C7.56623 11.8321 7.49948 11.6198 7.32736 11.5299C7.02956 11.3745 6.70041 11.2959 6.36877 11.297V9.19173C7.992 7.95353 10.513 6.73803 12.3717 6.0147C12.6579 6.29543 13.0495 6.46901 13.4811 6.46901H14.1869C14.4614 6.46901 14.7197 6.39884 14.9451 6.27561C15.794 6.8022 16.7782 7.53621 17.6309 8.49391V11.2975C16.9112 11.3066 16.2263 11.6942 15.8596 12.3379ZM19.0084 13.4821C19.0082 13.4842 19.0079 13.4863 19.0077 13.4885C19.0046 13.5206 19.0001 13.5526 18.9947 13.5846C18.7724 13.2066 18.3106 13.0176 17.8756 13.1565C17.7909 13.1836 17.7126 13.2214 17.6416 13.2679L17.6135 13.1798C17.4711 12.7344 17.0318 12.4652 16.5837 12.5197C16.9082 12.1082 17.4526 11.9122 17.9727 12.0381C18.326 12.1235 18.6248 12.3413 18.8142 12.6515C18.9683 12.9038 19.0349 13.1927 19.0084 13.4821ZM19.0297 11.822H19.3753C19.7472 11.822 20.0499 12.1244 20.0499 12.496C20.0499 12.6763 19.9797 12.8457 19.8524 12.9731C19.8064 13.0191 19.7548 13.0573 19.6993 13.0878C19.6619 12.8068 19.5665 12.5342 19.4144 12.2851C19.3076 12.1103 19.1779 11.9549 19.0297 11.822ZM20.182 15.6027C20.0135 15.9294 19.9825 16.3021 20.0943 16.6522L20.2706 17.2037C20.2781 17.2271 20.2652 17.2522 20.2418 17.2597C20.2183 17.2671 20.1932 17.2542 20.1858 17.2308L19.2594 14.3329C19.3425 14.3412 19.426 14.3549 19.5073 14.3743C19.9561 14.483 20.3367 14.7506 20.5882 15.1256C20.4197 15.2495 20.2806 15.4114 20.182 15.6027Z" fill="#5F5D5D"/>
<path d="M10.3717 21.9648C9.81567 21.9648 9.36328 22.4172 9.36328 22.9733C9.36328 23.5293 9.81567 23.9817 10.3717 23.9817C10.9277 23.9817 11.3801 23.5293 11.3801 22.9733C11.3802 22.4172 10.9278 21.9648 10.3717 21.9648ZM10.3717 23.2786C10.2034 23.2786 10.0664 23.1416 10.0664 22.9732C10.0664 22.8049 10.2034 22.6679 10.3717 22.6679C10.54 22.6679 10.677 22.8049 10.677 22.9732C10.677 23.1416 10.5401 23.2786 10.3717 23.2786Z" fill="#5F5D5D"/>
</g>
<defs>
<clipPath id="clip0_78_1143">
<rect width="24" height="24" fill="white" transform="translate(0 0.273438)"/>
</clipPath>
</defs>
</svg>
